<svg xmlns="http://www.w3.org/2000/svg" width="103" height="48" fill="none"><path fill="#fcc765" d="M6 4a4 4 0 0 1 4-4h89a4 4 0 0 1 4 4v34a4 4 0 0 1-4 4H10a4 4 0 0 1-4-4z"/><path fill="#000" fill-opacity=".5" d="M99 41v1H10v-1zm3-3V4a3 3 0 0 0-3-3H10a3 3 0 0 0-3 3v34a3 3 0 0 0 3 3v1a4 4 0 0 1-3.995-3.794L6 38V4A4 4 0 0 1 9.794.005L10 0h89l.206.005A4 4 0 0 1 103 4v34a4 4 0 0 1-4 4v-1a3 3 0 0 0 3-3"/><path fill="#fcc765" d="M3 7a4 4 0 0 1 4-4h89a4 4 0 0 1 4 4v34a4 4 0 0 1-4 4H7a4 4 0 0 1-4-4z"/><path fill="#000" fill-opacity=".5" d="M96 44v1H7v-1zm3-3V7a3 3 0 0 0-3-3H7a3 3 0 0 0-3 3v34a3 3 0 0 0 3 3v1a4 4 0 0 1-3.995-3.794L3 41V7a4 4 0 0 1 3.794-3.995L7 3h89l.206.005A4 4 0 0 1 100 7v34a4 4 0 0 1-4 4v-1a3 3 0 0 0 3-3"/><path fill="#fcc765" d="M0 10a4 4 0 0 1 4-4h89a4 4 0 0 1 4 4v34a4 4 0 0 1-4 4H4a4 4 0 0 1-4-4z"/><path fill="#000" fill-opacity=".5" d="M93 47v1H4v-1zm3-3V10a3 3 0 0 0-3-3H4a3 3 0 0 0-3 3v34a3 3 0 0 0 3 3v1a4 4 0 0 1-3.995-3.794L0 44V10a4 4 0 0 1 3.794-3.995L4 6h89l.206.005A4 4 0 0 1 97 10v34a4 4 0 0 1-4 4v-1a3 3 0 0 0 3-3"/><path fill="#000" fill-opacity=".76" d="M20.25 33h-3.375q-1.71 0-2.918-1.177-1.207-1.185-1.207-2.888 0-1.463.877-2.61a3.9 3.9 0 0 1 2.31-1.462q.473-1.725 1.876-2.79A5.13 5.13 0 0 1 21 21q2.197 0 3.72 1.53 1.53 1.523 1.53 3.72 1.297.15 2.145 1.125.855.96.855 2.25 0 1.41-.983 2.392-.982.983-2.392.983H21.75v-5.363l1.2 1.163L24 27.75l-3-3-3 3 1.05 1.05 1.2-1.163zM84.025 21.5V32h-1.654V21.5zM78.885 30.517v-3.528q0-.396-.144-.683a1 1 0 0 0-.437-.445q-.288-.157-.725-.157-.403 0-.697.137a1.13 1.13 0 0 0-.458.369.9.9 0 0 0-.164.526h-1.64q0-.437.211-.847.212-.411.615-.732.404-.321.964-.506a4 4 0 0 1 1.258-.184q.834 0 1.476.28.65.28 1.02.848.375.56.375 1.408v3.288q0 .505.068.91.075.396.212.69V32h-1.688a3 3 0 0 1-.185-.677 5.5 5.5 0 0 1-.061-.806m.239-3.015.014 1.018h-1.183q-.458 0-.807.09a1.7 1.7 0 0 0-.58.245 1.07 1.07 0 0 0-.465.923q0 .294.136.54.137.24.397.376.267.137.642.137.506 0 .882-.205.383-.211.602-.513.219-.307.232-.58l.533.73a2.5 2.5 0 0 1-.28.602q-.198.322-.52.616a2.585 2.585 0 0 1-1.77.656q-.725 0-1.292-.287a2.3 2.3 0 0 1-.889-.787 2.04 2.04 0 0 1-.32-1.127q0-.588.218-1.04.225-.457.656-.765.438-.307 1.067-.465.628-.164 1.435-.164zM68.556 26.183V32h-1.648v-7.396h1.552zm-.294 1.845-.534-.006a4.8 4.8 0 0 1 .22-1.443q.218-.655.6-1.128.39-.472.93-.724a2.74 2.74 0 0 1 1.204-.26q.532 0 .963.15.438.144.746.472.315.328.478.854.165.52.164 1.279V32H71.38v-4.785q0-.534-.157-.841a.88.88 0 0 0-.445-.444q-.287-.137-.717-.137-.424 0-.76.178-.334.177-.567.485-.225.307-.348.711a3 3 0 0 0-.123.861M63.627 26.012V32h-1.648v-7.396h1.573zm2.263-1.456-.014 1.53a4.293 4.293 0 0 0-.67-.055q-.423.001-.745.124a1.4 1.4 0 0 0-.54.342q-.211.22-.328.533-.116.315-.137.704l-.376.028q0-.698.137-1.292.136-.595.41-1.046.281-.452.697-.704.425-.253.978-.253.15 0 .321.027.177.027.267.062M57.728 32.137a3.9 3.9 0 0 1-1.484-.267 3.3 3.3 0 0 1-1.121-.759 3.4 3.4 0 0 1-.704-1.141 4 4 0 0 1-.246-1.415v-.274q0-.868.253-1.572.252-.704.704-1.203.45-.506 1.066-.773.615-.266 1.333-.266.793 0 1.388.266.595.267.984.752.397.48.588 1.142.198.663.199 1.463v.704h-5.715V27.61h4.087v-.13a2.3 2.3 0 0 0-.177-.834 1.4 1.4 0 0 0-.486-.628q-.327-.24-.874-.24-.411 0-.732.178-.315.17-.526.5a2.6 2.6 0 0 0-.328.792q-.11.458-.11 1.032v.274q0 .485.13.902.136.41.396.718t.63.485q.368.171.84.171.595 0 1.06-.24.465-.238.806-.676l.869.84q-.24.35-.623.67-.383.315-.936.514a3.7 3.7 0 0 1-1.272.198M53.195 24.604v1.203h-4.17v-1.203zm-2.967-1.812h1.648v7.164q0 .342.096.526a.5.5 0 0 0 .28.24q.177.06.417.061.17 0 .328-.02a3 3 0 0 0 .253-.041l.007 1.258a4 4 0 0 1-.479.109 3.5 3.5 0 0 1-.615.048q-.567 0-1.005-.198a1.48 1.48 0 0 1-.683-.664q-.247-.457-.247-1.216zM44.022 24.604l1.408 2.454 1.435-2.454h1.812l-2.242 3.63L48.765 32h-1.81l-1.505-2.557L43.946 32h-1.818l2.324-3.767-2.235-3.63zM41.526 30.64V32h-5.284v-1.36zm-4.799-8.593V32h-1.715v-9.953zm4.109 4.156v1.34h-4.594v-1.34zm.656-4.156v1.367h-5.25v-1.367z"/></svg>