<svg xmlns="http://www.w3.org/2000/svg" width="110" height="48" fill="none"><path fill="#30d2cc" d="M6 4a4 4 0 0 1 4-4h96a4 4 0 0 1 4 4v34a4 4 0 0 1-4 4H10a4 4 0 0 1-4-4z"/><path fill="#000" fill-opacity=".5" d="M106 41v1H10v-1zm3-3V4a3 3 0 0 0-3-3H10a3 3 0 0 0-3 3v34a3 3 0 0 0 3 3v1a4 4 0 0 1-3.995-3.794L6 38V4a4 4 0 0 1 4-4h96l.206.005A4 4 0 0 1 110 4v34a4 4 0 0 1-3.794 3.995L106 42v-1a3 3 0 0 0 3-3"/><path fill="#30d2cc" d="M3 7a4 4 0 0 1 4-4h96a4 4 0 0 1 4 4v34a4 4 0 0 1-4 4H7a4 4 0 0 1-4-4z"/><path fill="#000" fill-opacity=".5" d="M103 44v1H7v-1zm3-3V7a3 3 0 0 0-3-3H7a3 3 0 0 0-3 3v34a3 3 0 0 0 3 3v1a4 4 0 0 1-3.995-3.794L3 41V7a4 4 0 0 1 4-4h96l.206.005A4 4 0 0 1 107 7v34a4 4 0 0 1-3.794 3.995L103 45v-1a3 3 0 0 0 3-3"/><path fill="#30d2cc" d="M0 10a4 4 0 0 1 4-4h96a4 4 0 0 1 4 4v34a4 4 0 0 1-4 4H4a4 4 0 0 1-4-4z"/><path fill="#000" fill-opacity=".5" d="M100 47v1H4v-1zm3-3V10a3 3 0 0 0-3-3H4a3 3 0 0 0-3 3v34a3 3 0 0 0 3 3v1a4 4 0 0 1-3.995-3.794L0 44V10a4 4 0 0 1 4-4h96l.206.005A4 4 0 0 1 104 10v34a4 4 0 0 1-3.794 3.995L100 48v-1a3 3 0 0 0 3-3"/><path fill="#000" fill-opacity=".76" d="M25.5 22.5h-6.878l4.5 4.5-4.5 4.5H25.5V33h-9v-1.5L21 27l-4.5-4.5V21h9zM89.474 29.997a.83.83 0 0 0-.123-.444q-.123-.205-.472-.37-.342-.164-1.012-.3a9 9 0 0 1-1.08-.308 3.4 3.4 0 0 1-.834-.444 1.9 1.9 0 0 1-.54-.615 1.7 1.7 0 0 1-.191-.82q0-.452.198-.855.198-.404.567-.711.37-.308.896-.485a3.8 3.8 0 0 1 1.19-.178q.93 0 1.592.314.67.308 1.025.841.356.526.356 1.19h-1.648q0-.295-.15-.547a1.05 1.05 0 0 0-.437-.417q-.294-.165-.739-.164-.423 0-.704.136a.96.96 0 0 0-.41.342.87.87 0 0 0-.061.8q.075.143.246.267.171.116.464.218.301.103.752.198.848.178 1.456.459.615.273.944.71.328.432.328 1.094 0 .493-.212.902a2.05 2.05 0 0 1-.602.705 3 3 0 0 1-.95.458 4.3 4.3 0 0 1-1.23.164q-1.005 0-1.702-.356-.697-.362-1.06-.923a2.2 2.2 0 0 1-.355-1.175h1.592q.028.458.253.731.233.267.575.39.348.116.717.116.445 0 .745-.116.301-.123.458-.328a.8.8 0 0 0 .158-.479M81.031 30.824q.404 0 .725-.157.328-.165.526-.451.205-.288.226-.663h1.552a2.3 2.3 0 0 1-.424 1.305 2.94 2.94 0 0 1-1.087.937q-.677.342-1.497.342-.848 0-1.477-.287a2.9 2.9 0 0 1-1.046-.807 3.6 3.6 0 0 1-.629-1.183 4.9 4.9 0 0 1-.205-1.435v-.24q0-.765.205-1.435a3.5 3.5 0 0 1 .63-1.19 2.85 2.85 0 0 1 1.045-.8q.63-.293 1.47-.293.888 0 1.558.355.67.35 1.053.978.39.622.404 1.449h-1.552a1.65 1.65 0 0 0-.205-.738 1.36 1.36 0 0 0-.506-.534 1.44 1.44 0 0 0-.773-.198q-.498 0-.827.205-.329.199-.512.547a2.7 2.7 0 0 0-.267.773q-.075.423-.075.882v.239q0 .457.075.889.075.43.26.772.19.334.52.54.327.198.833.198M76.205 24.604V32h-1.654v-7.396zm-1.764-1.942q0-.375.246-.622.254-.253.698-.253.437 0 .69.253a.83.83 0 0 1 .253.622.82.82 0 0 1-.253.615q-.253.246-.69.246-.445 0-.698-.246a.83.83 0 0 1-.246-.615M73.17 24.604v1.203H69v-1.203zm-2.967-1.812h1.648v7.164q0 .342.095.526a.5.5 0 0 0 .28.24q.179.06.418.061.17 0 .328-.02a3 3 0 0 0 .253-.041l.006 1.258a4 4 0 0 1-.478.109 3.5 3.5 0 0 1-.615.048q-.569 0-1.005-.198a1.48 1.48 0 0 1-.684-.664q-.246-.457-.246-1.216zM65.063 31.193l2.01-6.59h1.763l-2.967 8.525q-.102.273-.266.595a2.7 2.7 0 0 1-.431.608q-.26.294-.65.472-.39.184-.943.184a2 2 0 0 1-.424-.04 7 7 0 0 1-.376-.076l-.007-1.258q.068.008.165.014.102.007.164.007.409 0 .683-.103a.95.95 0 0 0 .444-.314q.179-.219.301-.588zm-1.135-6.59 1.757 5.538.293 1.736-1.141.294-2.687-7.567zM61.111 21.5V32h-1.654V21.5zM55.97 30.517v-3.528q0-.396-.143-.683a1 1 0 0 0-.437-.445q-.288-.157-.725-.157-.403 0-.697.137a1.1 1.1 0 0 0-.458.369.9.9 0 0 0-.164.526h-1.64q0-.437.211-.847.211-.411.615-.732t.964-.506a4 4 0 0 1 1.258-.184q.834 0 1.477.28.648.28 1.018.848.376.56.376 1.408v3.288q0 .505.068.91.075.396.212.69V32h-1.688a3 3 0 0 1-.185-.677 5.5 5.5 0 0 1-.061-.806m.24-3.015.014 1.018H55.04q-.457 0-.807.09a1.7 1.7 0 0 0-.58.245q-.233.165-.35.397a1.16 1.16 0 0 0-.116.526q0 .294.137.54.136.24.397.376.266.137.642.137.506 0 .882-.205.383-.211.602-.513.218-.307.232-.58l.533.73a2.5 2.5 0 0 1-.28.602q-.198.322-.52.616-.315.286-.758.471a2.6 2.6 0 0 1-1.012.185q-.725 0-1.292-.287a2.3 2.3 0 0 1-.889-.787 2.04 2.04 0 0 1-.321-1.127q0-.588.219-1.04.225-.457.656-.765.438-.307 1.066-.465.63-.164 1.436-.164zM45.642 26.183V32h-1.648v-7.396h1.552zm-.294 1.845-.533-.006a4.8 4.8 0 0 1 .218-1.443q.22-.655.602-1.128.39-.472.93-.724.54-.26 1.203-.26.532 0 .963.15.437.144.746.472.315.328.478.854.165.52.164 1.279V32h-1.654v-4.785q0-.534-.157-.841a.88.88 0 0 0-.445-.444q-.286-.137-.718-.137-.423 0-.758.178-.336.177-.568.485-.225.307-.348.711a3 3 0 0 0-.123.861M38.888 23.373 35.914 32h-1.798l3.746-9.953h1.149zM41.376 32l-2.98-8.627-.13-1.326h1.155L43.18 32zm-.144-3.691v1.36h-5.414v-1.36z"/></svg>