<svg xmlns="http://www.w3.org/2000/svg" width="124" height="48" fill="none"><path fill="#cdf14f" d="M6 4a4 4 0 0 1 4-4h110a4 4 0 0 1 4 4v34a4 4 0 0 1-4 4H10a4 4 0 0 1-4-4z"/><path fill="#000" fill-opacity=".5" d="M120 41v1H10v-1zm3-3V4a3 3 0 0 0-2.846-2.996L120 1H10a3 3 0 0 0-3 3v34a3 3 0 0 0 3 3v1l-.206-.005a4 4 0 0 1-3.79-3.789L6 38V4a4 4 0 0 1 4-4h110a4 4 0 0 1 4 4v34a4 4 0 0 1-3.794 3.995L120 42v-1a3 3 0 0 0 3-3"/><path fill="#cdf14f" d="M3 7a4 4 0 0 1 4-4h110a4 4 0 0 1 4 4v34a4 4 0 0 1-4 4H7a4 4 0 0 1-4-4z"/><path fill="#000" fill-opacity=".5" d="M117 44v1H7v-1zm3-3V7a3 3 0 0 0-2.846-2.996L117 4H7a3 3 0 0 0-3 3v34a3 3 0 0 0 3 3v1l-.206-.005a4 4 0 0 1-3.79-3.789L3 41V7a4 4 0 0 1 4-4h110a4 4 0 0 1 4 4v34a4 4 0 0 1-3.794 3.995L117 45v-1a3 3 0 0 0 3-3"/><path fill="#cdf14f" d="M0 10a4 4 0 0 1 4-4h110a4 4 0 0 1 4 4v34a4 4 0 0 1-4 4H4a4 4 0 0 1-4-4z"/><path fill="#000" fill-opacity=".5" d="M114 47v1H4v-1zm3-3V10a3 3 0 0 0-2.846-2.996L114 7H4a3 3 0 0 0-3 3v34a3 3 0 0 0 3 3v1l-.206-.005a4 4 0 0 1-3.79-3.789L0 44V10a4 4 0 0 1 4-4h110a4 4 0 0 1 4 4v34a4 4 0 0 1-3.794 3.995L114 48v-1a3 3 0 0 0 3-3"/><path fill="#000" fill-opacity=".76" d="M22.243 24.513h-9.118v1.658h9.118zm0-3.316h-9.118v1.658h9.118zm3.316 6.632v-3.316h-1.658v3.316h-3.315v1.658H23.9v3.316h1.658v-3.316h3.316v-1.658zm-12.434 1.658h5.803v-1.658h-5.803zM105.053 24.604v1.203h-4.17v-1.203zm-2.967-1.812h1.647v7.164q0 .342.096.526a.5.5 0 0 0 .28.24q.178.06.417.061.172 0 .328-.02.158-.021.253-.041l.007 1.258a4 4 0 0 1-.478.109 3.5 3.5 0 0 1-.615.048q-.569 0-1.005-.198a1.48 1.48 0 0 1-.684-.664q-.246-.457-.246-1.216zM95.503 26.183V32h-1.647v-7.396h1.551zm-.294 1.845-.533-.006a4.8 4.8 0 0 1 .218-1.443q.22-.655.602-1.128.39-.472.93-.724.54-.26 1.203-.26.533 0 .964.15.437.144.745.472.315.328.478.854.165.52.165 1.279V32h-1.655v-4.785q0-.534-.157-.841a.88.88 0 0 0-.444-.444q-.288-.137-.718-.137-.424 0-.759.178-.335.177-.567.485-.226.307-.349.711a3 3 0 0 0-.123.861M89.624 32.137a3.9 3.9 0 0 1-1.483-.267 3.3 3.3 0 0 1-1.122-.759 3.4 3.4 0 0 1-.704-1.141 4 4 0 0 1-.246-1.415v-.274q0-.868.253-1.572.254-.704.704-1.203.452-.506 1.067-.773.615-.266 1.333-.266.792 0 1.388.266.594.267.984.752.396.48.588 1.142.198.663.198 1.463v.704h-5.715V27.61h4.088v-.13a2.3 2.3 0 0 0-.178-.834 1.4 1.4 0 0 0-.485-.628q-.328-.24-.875-.24-.41 0-.731.178-.315.17-.527.5a2.6 2.6 0 0 0-.328.792q-.11.458-.11 1.032v.274q0 .485.13.902.138.41.397.718.26.308.629.485.369.171.84.171.595 0 1.06-.24.466-.238.807-.676l.868.84q-.24.35-.622.67-.382.315-.936.514a3.7 3.7 0 0 1-1.272.198M75.815 26.107V32h-1.647v-7.396h1.552zm-.266 1.921-.56-.006q0-.766.19-1.416.192-.65.561-1.128.37-.484.916-.745.554-.266 1.279-.266.505 0 .922.15.425.144.732.458.315.315.478.807.171.491.171 1.19V32h-1.647v-4.785q0-.54-.164-.848a.9.9 0 0 0-.458-.437 1.7 1.7 0 0 0-.704-.137q-.465 0-.793.178-.322.177-.527.485a2.2 2.2 0 0 0-.3.711 3.7 3.7 0 0 0-.096.861m4.587-.437-.773.17q0-.669.185-1.264.19-.602.554-1.053.369-.457.909-.717a2.8 2.8 0 0 1 1.237-.26q.567 0 1.012.157.45.15.765.479.315.327.479.854.165.52.164 1.258V32h-1.654v-4.792q0-.56-.164-.868a.85.85 0 0 0-.452-.424 1.8 1.8 0 0 0-.704-.123q-.382 0-.676.143a1.34 1.34 0 0 0-.486.39 1.7 1.7 0 0 0-.3.568 2.4 2.4 0 0 0-.096.697M68.016 21.5V32h-1.641V21.5zm-.288 6.528-.533-.006q.008-.766.212-1.416a3.6 3.6 0 0 1 .588-1.128 2.62 2.62 0 0 1 2.099-1.011q.547 0 .984.15.445.15.766.485.321.329.485.862.171.526.171 1.285V32h-1.654v-4.765q0-.533-.157-.847a.9.9 0 0 0-.445-.452 1.6 1.6 0 0 0-.718-.143q-.444 0-.786.178a1.64 1.64 0 0 0-.56.485q-.226.307-.342.711a3.3 3.3 0 0 0-.11.861M62.096 30.824q.403 0 .724-.157.33-.165.527-.451.205-.288.225-.663h1.552a2.3 2.3 0 0 1-.424 1.305 2.94 2.94 0 0 1-1.087.937q-.676.342-1.497.342-.847 0-1.476-.287a2.9 2.9 0 0 1-1.046-.807 3.6 3.6 0 0 1-.63-1.183 4.9 4.9 0 0 1-.204-1.435v-.24q0-.765.205-1.435a3.5 3.5 0 0 1 .629-1.19 2.85 2.85 0 0 1 1.046-.8q.628-.293 1.47-.293.888 0 1.558.355.67.35 1.053.978.39.622.403 1.449h-1.552a1.65 1.65 0 0 0-.205-.738 1.36 1.36 0 0 0-.506-.534 1.44 1.44 0 0 0-.772-.198q-.499 0-.827.205a1.4 1.4 0 0 0-.513.547 2.7 2.7 0 0 0-.267.773q-.075.423-.075.882v.239q0 .457.075.889.075.43.26.772.192.334.52.54.327.198.834.198M57.27 24.604V32h-1.655v-7.396zm-1.764-1.942q0-.375.246-.622.253-.253.697-.253.438 0 .69.253a.83.83 0 0 1 .254.622.82.82 0 0 1-.253.615q-.254.246-.69.246-.446 0-.698-.246a.83.83 0 0 1-.246-.615M52.21 26.012V32h-1.647v-7.396h1.573zm2.264-1.456-.014 1.53q-.15-.026-.328-.04a4 4 0 0 0-.342-.014q-.423 0-.745.123a1.4 1.4 0 0 0-.54.342q-.211.22-.328.533-.116.315-.137.704l-.376.028q0-.698.137-1.292.136-.595.41-1.046.281-.452.697-.704a1.87 1.87 0 0 1 .978-.253q.15 0 .321.027.177.027.267.062M44.398 26.183V32H42.75v-7.396h1.552zm-.295 1.845-.533-.006a4.8 4.8 0 0 1 .22-1.443q.218-.655.6-1.128.39-.472.93-.724a2.74 2.74 0 0 1 1.203-.26q.534 0 .964.15.438.144.745.472.315.328.479.854.165.52.164 1.279V32h-1.654v-4.785q0-.534-.157-.841a.88.88 0 0 0-.445-.444q-.286-.137-.718-.137-.423 0-.758.178-.336.177-.568.485-.225.307-.348.711a3 3 0 0 0-.123.861M41.526 30.64V32h-5.284v-1.36zm-4.799-8.593V32h-1.715v-9.953zm4.109 4.156v1.34h-4.594v-1.34zm.656-4.156v1.367h-5.25v-1.367z"/></svg>