<svg xmlns="http://www.w3.org/2000/svg" width="84" height="48" fill="none"><path fill="#f0e861" d="M6 4a4 4 0 0 1 4-4h70a4 4 0 0 1 4 4v34a4 4 0 0 1-4 4H10a4 4 0 0 1-4-4z"/><path fill="#000" fill-opacity=".5" d="M80 41v1H10v-1zm3-3V4a3 3 0 0 0-3-3H10a3 3 0 0 0-3 3v34a3 3 0 0 0 3 3v1l-.206-.005a4 4 0 0 1-3.79-3.789L6 38V4a4 4 0 0 1 4-4h70a4 4 0 0 1 4 4v34a4 4 0 0 1-3.794 3.995L80 42v-1a3 3 0 0 0 3-3"/><path fill="#f0e861" d="M3 7a4 4 0 0 1 4-4h70a4 4 0 0 1 4 4v34a4 4 0 0 1-4 4H7a4 4 0 0 1-4-4z"/><path fill="#000" fill-opacity=".5" d="M77 44v1H7v-1zm3-3V7a3 3 0 0 0-3-3H7a3 3 0 0 0-3 3v34a3 3 0 0 0 3 3v1l-.206-.005a4 4 0 0 1-3.79-3.789L3 41V7a4 4 0 0 1 4-4h70a4 4 0 0 1 4 4v34a4 4 0 0 1-3.794 3.995L77 45v-1a3 3 0 0 0 3-3"/><path fill="#f0e861" d="M0 10a4 4 0 0 1 4-4h70a4 4 0 0 1 4 4v34a4 4 0 0 1-4 4H4a4 4 0 0 1-4-4z"/><path fill="#000" fill-opacity=".5" d="M74 47v1H4v-1zm3-3V10a3 3 0 0 0-3-3H4a3 3 0 0 0-3 3v34a3 3 0 0 0 3 3v1l-.206-.005a4 4 0 0 1-3.79-3.789L0 44V10a4 4 0 0 1 4-4h70a4 4 0 0 1 4 4v34a4 4 0 0 1-3.794 3.995L74 48v-1a3 3 0 0 0 3-3"/><path fill="#000" fill-opacity=".76" d="M19.5 31.5h3V30h-3zm-5.25-9V24h13.5v-1.5zm2.25 5.25h9v-1.5h-9zM63.518 26.012V32H61.87v-7.396h1.572zm2.262-1.456-.013 1.53q-.15-.026-.328-.04a4 4 0 0 0-.342-.014q-.424 0-.745.123a1.4 1.4 0 0 0-.54.342q-.212.22-.329.533-.116.315-.136.704l-.376.028q0-.698.136-1.292a3.5 3.5 0 0 1 .41-1.046q.28-.452.698-.704.423-.253.977-.253.15 0 .322.027.177.027.266.062M57.618 32.137a3.9 3.9 0 0 1-1.483-.267 3.3 3.3 0 0 1-1.121-.759 3.4 3.4 0 0 1-.704-1.141 4 4 0 0 1-.247-1.415v-.274q0-.868.253-1.572.254-.704.704-1.203.452-.506 1.067-.773.615-.266 1.333-.266.793 0 1.388.266.594.267.984.752.396.48.588 1.142.198.663.198 1.463v.704h-5.715V27.61h4.088v-.13a2.3 2.3 0 0 0-.178-.834 1.4 1.4 0 0 0-.485-.628q-.328-.24-.875-.24-.41 0-.731.178-.315.17-.527.5-.211.327-.328.792-.11.458-.11 1.032v.274q0 .485.13.902.138.41.397.718.26.308.629.485.369.171.84.171.595 0 1.06-.24.466-.238.807-.676l.868.84q-.24.35-.622.67-.383.315-.936.514a3.7 3.7 0 0 1-1.272.198M53.086 24.604v1.203h-4.17v-1.203zm-2.967-1.812h1.648v7.164q0 .342.095.526a.5.5 0 0 0 .28.24q.179.06.418.061.17 0 .328-.02a3 3 0 0 0 .253-.041l.007 1.258a4 4 0 0 1-.48.109 3.5 3.5 0 0 1-.614.048q-.568 0-1.005-.198a1.48 1.48 0 0 1-.684-.664q-.246-.457-.246-1.216zM47.89 21.5V32h-1.654V21.5zM44.322 24.604V32h-1.654v-7.396zm-1.763-1.942q0-.375.246-.622.252-.253.697-.253.438 0 .69.253a.83.83 0 0 1 .253.622.82.82 0 0 1-.253.615q-.252.246-.69.246-.445 0-.697-.246a.83.83 0 0 1-.246-.615M36.728 22.047V32h-1.716v-9.953zm4.06 4.354v1.36H36.29v-1.36zm.568-4.354v1.367H36.29v-1.367z"/></svg>