<svg xmlns="http://www.w3.org/2000/svg" width="93" height="48" fill="none"><path fill="#f1928f" d="M6 4a4 4 0 0 1 4-4h79a4 4 0 0 1 4 4v34a4 4 0 0 1-4 4H10a4 4 0 0 1-4-4z"/><path fill="#000" fill-opacity=".5" d="M89 41v1H10v-1zm3-3V4a3 3 0 0 0-3-3H10a3 3 0 0 0-3 3v34a3 3 0 0 0 3 3v1l-.206-.005a4 4 0 0 1-3.79-3.789L6 38V4A4 4 0 0 1 9.794.005L10 0h79a4 4 0 0 1 4 4v34a4 4 0 0 1-4 4v-1a3 3 0 0 0 3-3"/><path fill="#f1928f" d="M3 7a4 4 0 0 1 4-4h79a4 4 0 0 1 4 4v34a4 4 0 0 1-4 4H7a4 4 0 0 1-4-4z"/><path fill="#000" fill-opacity=".5" d="M86 44v1H7v-1zm3-3V7a3 3 0 0 0-3-3H7a3 3 0 0 0-3 3v34a3 3 0 0 0 3 3v1l-.206-.005a4 4 0 0 1-3.79-3.789L3 41V7a4 4 0 0 1 3.794-3.995L7 3h79a4 4 0 0 1 4 4v34a4 4 0 0 1-4 4v-1a3 3 0 0 0 3-3"/><path fill="#f1928f" d="M0 10a4 4 0 0 1 4-4h79a4 4 0 0 1 4 4v34a4 4 0 0 1-4 4H4a4 4 0 0 1-4-4z"/><path fill="#000" fill-opacity=".5" d="M83 47v1H4v-1zm3-3V10a3 3 0 0 0-3-3H4a3 3 0 0 0-3 3v34a3 3 0 0 0 3 3v1l-.206-.005a4 4 0 0 1-3.79-3.789L0 44V10a4 4 0 0 1 3.794-3.995L4 6h79a4 4 0 0 1 4 4v34a4 4 0 0 1-4 4v-1a3 3 0 0 0 3-3"/><path fill="#000" fill-opacity=".76" d="M17.25 19.5v8.25h2.25v6.75l5.25-9h-3l3-6zM69.253 26.183V32h-1.647v-7.396h1.551zm-.294 1.845-.533-.006a4.8 4.8 0 0 1 .218-1.443q.22-.655.602-1.128.39-.472.93-.724.54-.26 1.203-.26.533 0 .964.15.437.144.745.472.315.328.478.854.165.52.165 1.279V32h-1.655v-4.785q0-.534-.157-.841a.88.88 0 0 0-.444-.444q-.288-.137-.718-.137-.424 0-.759.178-.335.177-.567.485-.226.307-.349.711a3 3 0 0 0-.123.861M59.361 28.384v-.157q0-.8.233-1.484.232-.69.67-1.196a3 3 0 0 1 1.08-.793 3.5 3.5 0 0 1 1.449-.287q.813 0 1.45.287.642.28 1.086.793.444.506.677 1.196.232.683.232 1.484v.157q0 .8-.232 1.483-.232.684-.677 1.197a3.1 3.1 0 0 1-1.08.792 3.5 3.5 0 0 1-1.442.28 3.6 3.6 0 0 1-1.456-.28 3.1 3.1 0 0 1-1.08-.793 3.6 3.6 0 0 1-.677-1.196 4.6 4.6 0 0 1-.233-1.483m1.648-.157v.157q0 .498.102.943a2.4 2.4 0 0 0 .322.78q.218.334.56.526.343.19.814.191.458 0 .793-.191.34-.192.56-.527.219-.335.321-.779.11-.444.11-.943v-.157q0-.494-.11-.93a2.4 2.4 0 0 0-.328-.786 1.6 1.6 0 0 0-.56-.534 1.54 1.54 0 0 0-.8-.198q-.465 0-.807.198a1.6 1.6 0 0 0-.553.534q-.219.342-.322.786a4 4 0 0 0-.102.93M57.871 24.604V32h-1.654v-7.396zm-1.764-1.942q0-.375.246-.622.255-.253.698-.253.437 0 .69.253a.83.83 0 0 1 .253.622.82.82 0 0 1-.253.615q-.253.246-.69.246-.444 0-.698-.246a.84.84 0 0 1-.246-.615M54.836 24.604v1.203h-4.17v-1.203zm-2.967-1.812h1.648v7.164q0 .342.095.526a.5.5 0 0 0 .28.24q.179.06.418.061.17 0 .328-.02a3 3 0 0 0 .253-.041l.007 1.258a4 4 0 0 1-.48.109 3.5 3.5 0 0 1-.614.048q-.568 0-1.005-.198a1.48 1.48 0 0 1-.684-.664q-.246-.457-.246-1.216zM47.152 30.824q.404 0 .725-.157.328-.165.526-.451.205-.288.226-.663h1.552a2.3 2.3 0 0 1-.424 1.305 2.94 2.94 0 0 1-1.087.937q-.677.342-1.497.342-.847 0-1.477-.287a2.9 2.9 0 0 1-1.046-.807 3.6 3.6 0 0 1-.628-1.183 4.9 4.9 0 0 1-.206-1.435v-.24q0-.765.206-1.435a3.5 3.5 0 0 1 .628-1.19 2.85 2.85 0 0 1 1.046-.8q.63-.293 1.47-.293.889 0 1.559.355.67.35 1.052.978.39.622.404 1.449h-1.552a1.65 1.65 0 0 0-.205-.738 1.36 1.36 0 0 0-.506-.534 1.44 1.44 0 0 0-.773-.198q-.498 0-.827.205-.328.199-.512.547a2.7 2.7 0 0 0-.267.773q-.075.423-.075.882v.239q0 .457.075.889.075.43.26.772.19.334.52.54.327.198.833.198M38.888 23.373 35.914 32h-1.798l3.746-9.953h1.149zM41.376 32l-2.98-8.627-.13-1.326h1.155L43.18 32zm-.144-3.691v1.36h-5.414v-1.36z"/></svg>