<svg xmlns="http://www.w3.org/2000/svg" width="150" height="48" fill="none"><path fill="#79cef1" d="M6 4a4 4 0 0 1 4-4h136a4 4 0 0 1 4 4v34a4 4 0 0 1-4 4H10a4 4 0 0 1-4-4z"/><path fill="#000" fill-opacity=".5" d="M146 41v1H10v-1zm3-3V4a3 3 0 0 0-3-3H10a3 3 0 0 0-3 3v34a3 3 0 0 0 3 3v1a4 4 0 0 1-3.995-3.794L6 38V4a4 4 0 0 1 4-4h136l.206.005A4 4 0 0 1 150 4v34a4 4 0 0 1-3.794 3.995L146 42v-1a3 3 0 0 0 3-3"/><path fill="#79cef1" d="M3 7a4 4 0 0 1 4-4h136a4 4 0 0 1 4 4v34a4 4 0 0 1-4 4H7a4 4 0 0 1-4-4z"/><path fill="#000" fill-opacity=".5" d="M143 44v1H7v-1zm3-3V7a3 3 0 0 0-3-3H7a3 3 0 0 0-3 3v34a3 3 0 0 0 3 3v1a4 4 0 0 1-3.995-3.794L3 41V7a4 4 0 0 1 4-4h136l.206.005A4 4 0 0 1 147 7v34a4 4 0 0 1-3.794 3.995L143 45v-1a3 3 0 0 0 3-3"/><path fill="#79cef1" d="M0 10a4 4 0 0 1 4-4h136a4 4 0 0 1 4 4v34a4 4 0 0 1-4 4H4a4 4 0 0 1-4-4z"/><path fill="#000" fill-opacity=".5" d="M140 47v1H4v-1zm3-3V10a3 3 0 0 0-3-3H4a3 3 0 0 0-3 3v34a3 3 0 0 0 3 3v1a4 4 0 0 1-3.995-3.794L0 44V10a4 4 0 0 1 4-4h136l.206.005A4 4 0 0 1 144 10v34a4 4 0 0 1-3.794 3.995L140 48v-1a3 3 0 0 0 3-3"/><path fill="#000" fill-opacity=".76" d="M29.5 31.5V30H19v-9h1.5l-2.25-2.25L16 21h1.5v1.5h-3V24h3v6c0 .825.675 1.5 1.5 1.5h6V33h-1.5l2.25 2.25L28 33h-1.5v-1.5zm-9-7.5H25v4.5h1.5V24c0-.825-.675-1.5-1.5-1.5h-4.5zM126.526 26.183V32h-1.647v-7.396h1.552zm-.294 1.845-.533-.006a4.8 4.8 0 0 1 .219-1.443 3.5 3.5 0 0 1 .602-1.128q.389-.472.929-.724.54-.26 1.203-.26.534 0 .964.15.438.144.745.472.314.328.479.854.164.52.164 1.279V32h-1.654v-4.785q0-.534-.158-.841a.88.88 0 0 0-.444-.444q-.287-.137-.718-.137-.423 0-.759.178-.335.177-.567.485-.225.307-.349.711a3 3 0 0 0-.123.861M116.635 28.384v-.157q0-.8.232-1.484.232-.69.67-1.196a3 3 0 0 1 1.08-.793 3.5 3.5 0 0 1 1.449-.287q.814 0 1.45.287.642.28 1.087.793.444.506.676 1.196.233.683.233 1.484v.157q0 .8-.233 1.483-.232.684-.676 1.197a3.15 3.15 0 0 1-1.081.792q-.635.28-1.442.28a3.6 3.6 0 0 1-1.456-.28 3.1 3.1 0 0 1-1.08-.793 3.6 3.6 0 0 1-.677-1.196 4.6 4.6 0 0 1-.232-1.483m1.647-.157v.157q0 .498.103.943.102.444.321.78.219.334.561.526.341.19.813.191.458 0 .793-.191a1.6 1.6 0 0 0 .561-.527q.218-.335.321-.779a4 4 0 0 0 .109-.943v-.157q0-.494-.109-.93a2.4 2.4 0 0 0-.328-.786 1.6 1.6 0 0 0-.561-.534 1.54 1.54 0 0 0-.8-.198 1.6 1.6 0 0 0-.806.198 1.6 1.6 0 0 0-.554.534q-.219.342-.321.786a4 4 0 0 0-.103.93M115.145 24.604V32h-1.655v-7.396zm-1.764-1.942q0-.375.246-.622.253-.253.697-.253.438 0 .691.253a.83.83 0 0 1 .253.622.83.83 0 0 1-.253.615q-.253.246-.691.246-.444 0-.697-.246a.84.84 0 0 1-.246-.615M112.109 24.604v1.203h-4.17v-1.203zm-2.966-1.812h1.647v7.164q0 .342.096.526a.5.5 0 0 0 .28.24q.179.06.417.061.17 0 .328-.02.157-.021.253-.041l.007 1.258a4 4 0 0 1-.479.109 3.5 3.5 0 0 1-.615.048q-.567 0-1.005-.198a1.48 1.48 0 0 1-.683-.664q-.246-.457-.246-1.216zM105.342 30.517v-3.528q0-.396-.144-.683a1 1 0 0 0-.437-.445q-.287-.157-.725-.157a1.6 1.6 0 0 0-.697.137 1.1 1.1 0 0 0-.458.369.9.9 0 0 0-.164.526h-1.641q0-.437.212-.847a2.3 2.3 0 0 1 .615-.732 3.1 3.1 0 0 1 .964-.506 4 4 0 0 1 1.258-.184q.834 0 1.477.28.65.28 1.018.848.376.56.376 1.408v3.288q0 .505.068.91.076.396.212.69V32h-1.688a3 3 0 0 1-.185-.677 5.5 5.5 0 0 1-.061-.806m.239-3.015.014 1.018h-1.183q-.458 0-.807.09a1.7 1.7 0 0 0-.581.245 1.06 1.06 0 0 0-.464.923q0 .294.136.54a.96.96 0 0 0 .397.376q.267.137.642.137.507 0 .882-.205a1.8 1.8 0 0 0 .602-.513q.219-.307.232-.58l.533.73a2.5 2.5 0 0 1-.28.602q-.198.322-.519.616-.315.286-.759.471a2.6 2.6 0 0 1-1.012.185q-.725 0-1.292-.287a2.3 2.3 0 0 1-.889-.787 2.04 2.04 0 0 1-.321-1.127q0-.588.219-1.04.225-.457.656-.765.438-.307 1.067-.465.628-.164 1.435-.164zM90.624 26.107V32h-1.647v-7.396h1.551zm-.267 1.921-.56-.006q0-.766.191-1.416.192-.65.56-1.128.37-.484.917-.745.554-.266 1.278-.266.506 0 .923.15.424.144.731.458.315.315.479.807.17.491.17 1.19V32H93.4v-4.785q0-.54-.164-.848a.9.9 0 0 0-.458-.437 1.66 1.66 0 0 0-.704-.137q-.465 0-.793.178-.322.177-.526.485a2.2 2.2 0 0 0-.3.711 3.7 3.7 0 0 0-.097.861m4.587-.437-.772.17q0-.669.184-1.264.192-.602.554-1.053.37-.457.91-.717a2.8 2.8 0 0 1 1.237-.26q.567 0 1.011.157.451.15.766.479.316.327.478.854.165.52.165 1.258V32h-1.655v-4.792q0-.56-.164-.868a.85.85 0 0 0-.451-.424 1.8 1.8 0 0 0-.704-.123q-.382 0-.677.143a1.34 1.34 0 0 0-.485.39 1.7 1.7 0 0 0-.301.568 2.4 2.4 0 0 0-.096.697M85.682 26.012V32h-1.648v-7.396h1.572zm2.262-1.456-.013 1.53q-.15-.026-.328-.04a4 4 0 0 0-.342-.014q-.424 0-.745.123a1.4 1.4 0 0 0-.54.342q-.212.22-.329.533-.116.315-.136.704l-.376.028q0-.698.136-1.292.137-.595.41-1.046.282-.452.698-.704a1.87 1.87 0 0 1 .977-.253q.15 0 .322.027.177.027.266.062M75.77 28.384v-.157q0-.8.232-1.484.232-.69.67-1.196a3 3 0 0 1 1.08-.793 3.5 3.5 0 0 1 1.45-.287q.813 0 1.448.287.643.28 1.087.793.445.506.677 1.196.233.683.233 1.484v.157q0 .8-.233 1.483-.232.684-.677 1.197a3.1 3.1 0 0 1-1.08.792 3.5 3.5 0 0 1-1.442.28 3.6 3.6 0 0 1-1.456-.28 3.1 3.1 0 0 1-1.08-.793 3.6 3.6 0 0 1-.677-1.196 4.6 4.6 0 0 1-.233-1.483m1.647-.157v.157q0 .498.102.943a2.4 2.4 0 0 0 .322.78q.22.334.56.526.343.19.814.191.458 0 .793-.191.342-.192.56-.527t.322-.779q.11-.444.109-.943v-.157q0-.494-.11-.93a2.4 2.4 0 0 0-.328-.786 1.6 1.6 0 0 0-.56-.534 1.54 1.54 0 0 0-.8-.198q-.465 0-.806.198a1.6 1.6 0 0 0-.554.534q-.219.342-.322.786a4 4 0 0 0-.102.93M73.363 32h-1.647v-8.107q0-.828.307-1.388a2.03 2.03 0 0 1 .896-.855q.58-.294 1.374-.294.246 0 .485.035.24.027.465.089l-.04 1.271a2 2 0 0 0-.302-.048 4 4 0 0 0-.341-.014q-.377 0-.65.144a.95.95 0 0 0-.41.403 1.4 1.4 0 0 0-.137.657zm1.525-7.396v1.203H70.58v-1.203zM68.08 29.997a.83.83 0 0 0-.124-.444q-.123-.205-.472-.37-.341-.164-1.011-.3a9 9 0 0 1-1.08-.308 3.4 3.4 0 0 1-.834-.444 1.9 1.9 0 0 1-.54-.615 1.7 1.7 0 0 1-.192-.82q0-.452.198-.855.2-.404.568-.711.369-.308.895-.485a3.8 3.8 0 0 1 1.19-.178q.93 0 1.593.314.67.308 1.025.841.355.526.355 1.19h-1.647q0-.295-.15-.547a1.05 1.05 0 0 0-.438-.417q-.294-.165-.738-.164-.424 0-.704.136a.96.96 0 0 0-.41.342.87.87 0 0 0-.062.8q.075.143.246.267.171.116.465.218.3.103.752.198.847.178 1.456.459.615.273.943.71.328.432.328 1.094 0 .493-.211.902a2.05 2.05 0 0 1-.602.705 3 3 0 0 1-.95.458 4.3 4.3 0 0 1-1.23.164q-1.005 0-1.703-.356-.697-.362-1.06-.923a2.2 2.2 0 0 1-.355-1.175h1.593q.027.458.253.731.232.267.574.39.349.116.718.116.444 0 .745-.116.3-.123.458-.328a.8.8 0 0 0 .157-.479M57.77 26.183V32h-1.647v-7.396h1.552zm-.293 1.845-.534-.006a4.8 4.8 0 0 1 .22-1.443q.218-.655.6-1.128.39-.472.93-.724.54-.26 1.204-.26.533 0 .963.15.438.144.745.472.315.328.479.854.165.52.164 1.279V32h-1.654v-4.785q0-.534-.157-.841a.88.88 0 0 0-.445-.444q-.286-.137-.718-.137-.423 0-.758.178-.336.177-.568.485-.225.307-.348.711a3 3 0 0 0-.123.861M52.76 30.517v-3.528q0-.396-.144-.683a1 1 0 0 0-.437-.445q-.287-.157-.725-.157-.403 0-.697.137a1.13 1.13 0 0 0-.458.369.9.9 0 0 0-.164.526h-1.64q0-.437.211-.847.211-.411.615-.732t.964-.506a4 4 0 0 1 1.258-.184q.834 0 1.477.28.649.28 1.018.848.376.56.376 1.408v3.288q0 .505.068.91.075.396.212.69V32h-1.688a3 3 0 0 1-.185-.677 5.5 5.5 0 0 1-.061-.806m.239-3.015.014 1.018H51.83q-.457 0-.807.09a1.7 1.7 0 0 0-.58.245 1.07 1.07 0 0 0-.465.923q0 .294.136.54.137.24.397.376.266.137.642.137.507 0 .882-.205.383-.211.602-.513.219-.307.232-.58l.533.73a2.5 2.5 0 0 1-.28.602q-.198.322-.52.616a2.585 2.585 0 0 1-1.77.656q-.725 0-1.292-.287a2.3 2.3 0 0 1-.889-.787 2.04 2.04 0 0 1-.32-1.127q0-.588.218-1.04.225-.457.656-.765.438-.307 1.067-.465.628-.164 1.435-.164zM45.541 26.012V32h-1.647v-7.396h1.572zm2.263-1.456-.014 1.53q-.15-.026-.328-.04a4 4 0 0 0-.342-.014q-.423 0-.745.123a1.4 1.4 0 0 0-.54.342q-.211.22-.328.533-.117.315-.137.704l-.376.028q0-.698.137-1.292t.41-1.046q.281-.452.697-.704a1.87 1.87 0 0 1 .978-.253q.15 0 .321.027.178.027.267.062M40.106 22.047V32h-1.702v-9.953zm3.124 0v1.367h-7.922v-1.367z"/></svg>