<svg xmlns="http://www.w3.org/2000/svg" width="82" height="48" fill="none"><path fill="#d6c4f2" d="M6 4a4 4 0 0 1 4-4h68a4 4 0 0 1 4 4v34a4 4 0 0 1-4 4H10a4 4 0 0 1-4-4z"/><path fill="#000" fill-opacity=".5" d="M78 41v1H10v-1zm3-3V4a3 3 0 0 0-3-3H10a3 3 0 0 0-3 3v34a3 3 0 0 0 3 3v1l-.206-.005a4 4 0 0 1-3.79-3.789L6 38V4a4 4 0 0 1 4-4h68a4 4 0 0 1 4 4v34a4 4 0 0 1-3.794 3.995L78 42v-1a3 3 0 0 0 3-3"/><path fill="#d6c4f2" d="M3 7a4 4 0 0 1 4-4h68a4 4 0 0 1 4 4v34a4 4 0 0 1-4 4H7a4 4 0 0 1-4-4z"/><path fill="#000" fill-opacity=".5" d="M75 44v1H7v-1zm3-3V7a3 3 0 0 0-3-3H7a3 3 0 0 0-3 3v34a3 3 0 0 0 3 3v1l-.206-.005a4 4 0 0 1-3.79-3.789L3 41V7a4 4 0 0 1 4-4h68a4 4 0 0 1 4 4v34a4 4 0 0 1-3.794 3.995L75 45v-1a3 3 0 0 0 3-3"/><path fill="#d6c4f2" d="M0 10a4 4 0 0 1 4-4h68a4 4 0 0 1 4 4v34a4 4 0 0 1-4 4H4a4 4 0 0 1-4-4z"/><path fill="#000" fill-opacity=".5" d="M72 47v1H4v-1zm3-3V10a3 3 0 0 0-3-3H4a3 3 0 0 0-3 3v34a3 3 0 0 0 3 3v1l-.206-.005a4 4 0 0 1-3.79-3.789L0 44V10a4 4 0 0 1 4-4h68a4 4 0 0 1 4 4v34a4 4 0 0 1-3.794 3.995L72 48v-1a3 3 0 0 0 3-3"/><path fill="#000" fill-opacity=".76" d="m17.828 23.07-1.155-.96L12.615 27l4.058 4.89 1.155-.96L14.565 27zm-.578 4.68h1.5v-1.5h-1.5zm7.5-1.5h-1.5v1.5h1.5zm-4.5 1.5h1.5v-1.5h-1.5zm5.078-5.64-1.155.96L27.435 27l-3.262 3.93 1.155.96L29.385 27zM56.08 30.36l1.71-5.756h1.052l-.287 1.722L56.832 32h-.943zm-1.005-5.756 1.333 5.783.11 1.613h-1.053l-2.003-7.396zm5.366 5.714 1.292-5.715h1.607L61.344 32H60.29zm-1.422-5.715 1.689 5.688L60.92 32h-.943l-1.744-5.68-.287-1.716zM45.813 28.384v-.157q0-.8.232-1.484.232-.69.67-1.196a3 3 0 0 1 1.08-.793 3.5 3.5 0 0 1 1.45-.287q.812 0 1.448.287.643.28 1.087.793.445.506.677 1.196.233.683.233 1.484v.157q0 .8-.233 1.483a3.6 3.6 0 0 1-.677 1.197 3.1 3.1 0 0 1-1.08.792 3.5 3.5 0 0 1-1.442.28 3.6 3.6 0 0 1-1.456-.28 3.1 3.1 0 0 1-1.08-.793 3.6 3.6 0 0 1-.677-1.196 4.6 4.6 0 0 1-.233-1.483m1.647-.157v.157q0 .498.102.943a2.4 2.4 0 0 0 .322.78q.22.334.56.526.343.19.814.191.458 0 .793-.191.342-.192.56-.527t.322-.779q.108-.444.109-.943v-.157q0-.494-.11-.93a2.4 2.4 0 0 0-.328-.786 1.6 1.6 0 0 0-.56-.534 1.54 1.54 0 0 0-.8-.198q-.465 0-.806.198a1.6 1.6 0 0 0-.554.534q-.219.342-.322.786a4 4 0 0 0-.102.93M44.322 21.5V32h-1.654V21.5zM36.728 22.047V32h-1.716v-9.953zm4.06 4.354v1.36H36.29v-1.36zm.568-4.354v1.367H36.29v-1.367z"/></svg>