<svg xmlns="http://www.w3.org/2000/svg" width="720" height="252" fill="none"><g clip-path="url(#a)"><path fill="#fff" d="M0 0h720v252H0z"/><g fill="#c1c3c8" clip-path="url(#b)" opacity=".5"><path d="M-11 254a1 1 0 1 1 0 2 1 1 0 0 1 0-2M3 254a1 1 0 1 1 0 2 1 1 0 0 1 0-2M17 254a1 1 0 1 1 0 2 1 1 0 0 1 0-2M31 254a1 1 0 1 1 0 2 1 1 0 0 1 0-2M45 254a1 1 0 1 1 0 2 1 1 0 0 1 0-2M59 254a1 1 0 1 1 0 2 1 1 0 0 1 0-2M73 254a1 1 0 1 1 0 2 1 1 0 0 1 0-2M87 254a1 1 0 1 1 0 2 1 1 0 0 1 0-2M101 254a1 1 0 1 1 0 2 1 1 0 0 1 0-2M115 254a1 1 0 1 1 0 2 1 1 0 0 1 0-2M129 254a1 1 0 1 1 0 2 1 1 0 0 1 0-2M143 254a1 1 0 1 1 0 2 1 1 0 0 1 0-2M157 254a1 1 0 1 1 0 2 1 1 0 0 1 0-2M171 254a1 1 0 1 1 0 2 1 1 0 0 1 0-2M185 254a1 1 0 1 1 0 2 1 1 0 0 1 0-2M199 254a1 1 0 1 1 0 2 1 1 0 0 1 0-2M213 254a1 1 0 1 1 0 2 1 1 0 0 1 0-2M227 254a1 1 0 1 1 0 2 1 1 0 0 1 0-2M241 254a1 1 0 1 1 0 2 1 1 0 0 1 0-2M255 254a1 1 0 1 1 0 2 1 1 0 0 1 0-2M269 254a1 1 0 1 1 0 2 1 1 0 0 1 0-2M283 254a1 1 0 1 1 0 2 1 1 0 0 1 0-2M297 254a1 1 0 1 1 0 2 1 1 0 0 1 0-2M311 254a1 1 0 1 1 0 2 1 1 0 0 1 0-2M325 254a1 1 0 1 1 0 2 1 1 0 0 1 0-2M339 254a1 1 0 1 1 0 2 1 1 0 0 1 0-2M353 254a1 1 0 1 1 0 2 1 1 0 0 1 0-2M367 254a1 1 0 1 1 0 2 1 1 0 0 1 0-2M381 254a1 1 0 1 1 0 2 1 1 0 0 1 0-2M395 254a1 1 0 1 1 0 2 1 1 0 0 1 0-2M409 254a1 1 0 1 1 0 2 1 1 0 0 1 0-2M423 254a1 1 0 1 1 0 2 1 1 0 0 1 0-2M437 254a1 1 0 1 1 0 2 1 1 0 0 1 0-2M451 254a1 1 0 1 1 0 2 1 1 0 0 1 0-2M465 254a1 1 0 1 1 0 2 1 1 0 0 1 0-2M479 254a1 1 0 1 1 0 2 1 1 0 0 1 0-2M493 254a1 1 0 1 1 0 2 1 1 0 0 1 0-2M507 254a1 1 0 1 1 0 2 1 1 0 0 1 0-2M521 254a1 1 0 1 1 0 2 1 1 0 0 1 0-2M535 254a1 1 0 1 1 0 2 1 1 0 0 1 0-2M549 254a1 1 0 1 1 0 2 1 1 0 0 1 0-2M563 254a1 1 0 1 1 0 2 1 1 0 0 1 0-2M577 254a1 1 0 1 1 0 2 1 1 0 0 1 0-2M591 254a1 1 0 1 1 0 2 1 1 0 0 1 0-2M605 254a1 1 0 1 1 0 2 1 1 0 0 1 0-2M619 254a1 1 0 1 1 0 2 1 1 0 0 1 0-2M633 254a1 1 0 1 1 0 2 1 1 0 0 1 0-2M647 254a1 1 0 1 1 0 2 1 1 0 0 1 0-2M661 254a1 1 0 1 1 0 2 1 1 0 0 1 0-2M675 254a1 1 0 1 1 0 2 1 1 0 0 1 0-2M689 254a1 1 0 1 1 0 2 1 1 0 0 1 0-2M703 254a1 1 0 1 1 0 2 1 1 0 0 1 0-2M-11 240a1 1 0 1 1 0 2 1 1 0 0 1 0-2M3 240a1 1 0 1 1 0 2 1 1 0 0 1 0-2M17 240a1 1 0 1 1 0 2 1 1 0 0 1 0-2M31 240a1 1 0 1 1 0 2 1 1 0 0 1 0-2M45 240a1 1 0 1 1 0 2 1 1 0 0 1 0-2M59 240a1 1 0 1 1 0 2 1 1 0 0 1 0-2M73 240a1 1 0 1 1 0 2 1 1 0 0 1 0-2M87 240a1 1 0 1 1 0 2 1 1 0 0 1 0-2M101 240a1 1 0 1 1 0 2 1 1 0 0 1 0-2M115 240a1 1 0 1 1 0 2 1 1 0 0 1 0-2M129 240a1 1 0 1 1 0 2 1 1 0 0 1 0-2M143 240a1 1 0 1 1 0 2 1 1 0 0 1 0-2M157 240a1 1 0 1 1 0 2 1 1 0 0 1 0-2M171 240a1 1 0 1 1 0 2 1 1 0 0 1 0-2M185 240a1 1 0 1 1 0 2 1 1 0 0 1 0-2M199 240a1 1 0 1 1 0 2 1 1 0 0 1 0-2M213 240a1 1 0 1 1 0 2 1 1 0 0 1 0-2M227 240a1 1 0 1 1 0 2 1 1 0 0 1 0-2M241 240a1 1 0 1 1 0 2 1 1 0 0 1 0-2M255 240a1 1 0 1 1 0 2 1 1 0 0 1 0-2M269 240a1 1 0 1 1 0 2 1 1 0 0 1 0-2M283 240a1 1 0 1 1 0 2 1 1 0 0 1 0-2M297 240a1 1 0 1 1 0 2 1 1 0 0 1 0-2M311 240a1 1 0 1 1 0 2 1 1 0 0 1 0-2M325 240a1 1 0 1 1 0 2 1 1 0 0 1 0-2M339 240a1 1 0 1 1 0 2 1 1 0 0 1 0-2M353 240a1 1 0 1 1 0 2 1 1 0 0 1 0-2M367 240a1 1 0 1 1 0 2 1 1 0 0 1 0-2M381 240a1 1 0 1 1 0 2 1 1 0 0 1 0-2M395 240a1 1 0 1 1 0 2 1 1 0 0 1 0-2M409 240a1 1 0 1 1 0 2 1 1 0 0 1 0-2M423 240a1 1 0 1 1 0 2 1 1 0 0 1 0-2M437 240a1 1 0 1 1 0 2 1 1 0 0 1 0-2M451 240a1 1 0 1 1 0 2 1 1 0 0 1 0-2M465 240a1 1 0 1 1 0 2 1 1 0 0 1 0-2M479 240a1 1 0 1 1 0 2 1 1 0 0 1 0-2M493 240a1 1 0 1 1 0 2 1 1 0 0 1 0-2M507 240a1 1 0 1 1 0 2 1 1 0 0 1 0-2M521 240a1 1 0 1 1 0 2 1 1 0 0 1 0-2M535 240a1 1 0 1 1 0 2 1 1 0 0 1 0-2M549 240a1 1 0 1 1 0 2 1 1 0 0 1 0-2M563 240a1 1 0 1 1 0 2 1 1 0 0 1 0-2M577 240a1 1 0 1 1 0 2 1 1 0 0 1 0-2M591 240a1 1 0 1 1 0 2 1 1 0 0 1 0-2M605 240a1 1 0 1 1 0 2 1 1 0 0 1 0-2M619 240a1 1 0 1 1 0 2 1 1 0 0 1 0-2M633 240a1 1 0 1 1 0 2 1 1 0 0 1 0-2M647 240a1 1 0 1 1 0 2 1 1 0 0 1 0-2M661 240a1 1 0 1 1 0 2 1 1 0 0 1 0-2M675 240a1 1 0 1 1 0 2 1 1 0 0 1 0-2M689 240a1 1 0 1 1 0 2 1 1 0 0 1 0-2M703 240a1 1 0 1 1 0 2 1 1 0 0 1 0-2M717 240a1 1 0 1 1 0 2 1 1 0 0 1 0-2M-11 226a1 1 0 1 1 0 2 1 1 0 0 1 0-2M3 226a1 1 0 1 1 0 2 1 1 0 0 1 0-2M17 226a1 1 0 1 1 0 2 1 1 0 0 1 0-2M31 226a1 1 0 1 1 0 2 1 1 0 0 1 0-2M45 226a1 1 0 1 1 0 2 1 1 0 0 1 0-2M59 226a1 1 0 1 1 0 2 1 1 0 0 1 0-2M73 226a1 1 0 1 1 0 2 1 1 0 0 1 0-2M87 226a1 1 0 1 1 0 2 1 1 0 0 1 0-2M101 226a1 1 0 1 1 0 2 1 1 0 0 1 0-2M115 226a1 1 0 1 1 0 2 1 1 0 0 1 0-2M129 226a1 1 0 1 1 0 2 1 1 0 0 1 0-2M143 226a1 1 0 1 1 0 2 1 1 0 0 1 0-2M157 226a1 1 0 1 1 0 2 1 1 0 0 1 0-2M171 226a1 1 0 1 1 0 2 1 1 0 0 1 0-2M185 226a1 1 0 1 1 0 2 1 1 0 0 1 0-2M199 226a1 1 0 1 1 0 2 1 1 0 0 1 0-2M213 226a1 1 0 1 1 0 2 1 1 0 0 1 0-2M227 226a1 1 0 1 1 0 2 1 1 0 0 1 0-2M241 226a1 1 0 1 1 0 2 1 1 0 0 1 0-2M255 226a1 1 0 1 1 0 2 1 1 0 0 1 0-2M269 226a1 1 0 1 1 0 2 1 1 0 0 1 0-2M283 226a1 1 0 1 1 0 2 1 1 0 0 1 0-2M297 226a1 1 0 1 1 0 2 1 1 0 0 1 0-2M311 226a1 1 0 1 1 0 2 1 1 0 0 1 0-2M325 226a1 1 0 1 1 0 2 1 1 0 0 1 0-2M339 226a1 1 0 1 1 0 2 1 1 0 0 1 0-2M353 226a1 1 0 1 1 0 2 1 1 0 0 1 0-2M367 226a1 1 0 1 1 0 2 1 1 0 0 1 0-2M381 226a1 1 0 1 1 0 2 1 1 0 0 1 0-2M395 226a1 1 0 1 1 0 2 1 1 0 0 1 0-2M409 226a1 1 0 1 1 0 2 1 1 0 0 1 0-2M423 226a1 1 0 1 1 0 2 1 1 0 0 1 0-2M437 226a1 1 0 1 1 0 2 1 1 0 0 1 0-2M451 226a1 1 0 1 1 0 2 1 1 0 0 1 0-2M465 226a1 1 0 1 1 0 2 1 1 0 0 1 0-2M479 226a1 1 0 1 1 0 2 1 1 0 0 1 0-2M493 226a1 1 0 1 1 0 2 1 1 0 0 1 0-2M507 226a1 1 0 1 1 0 2 1 1 0 0 1 0-2M521 226a1 1 0 1 1 0 2 1 1 0 0 1 0-2M535 226a1 1 0 1 1 0 2 1 1 0 0 1 0-2M549 226a1 1 0 1 1 0 2 1 1 0 0 1 0-2M563 226a1 1 0 1 1 0 2 1 1 0 0 1 0-2M577 226a1 1 0 1 1 0 2 1 1 0 0 1 0-2M591 226a1 1 0 1 1 0 2 1 1 0 0 1 0-2M605 226a1 1 0 1 1 0 2 1 1 0 0 1 0-2M619 226a1 1 0 1 1 0 2 1 1 0 0 1 0-2M633 226a1 1 0 1 1 0 2 1 1 0 0 1 0-2M647 226a1 1 0 1 1 0 2 1 1 0 0 1 0-2M661 226a1 1 0 1 1 0 2 1 1 0 0 1 0-2M675 226a1 1 0 1 1 0 2 1 1 0 0 1 0-2M689 226a1 1 0 1 1 0 2 1 1 0 0 1 0-2M703 226a1 1 0 1 1 0 2 1 1 0 0 1 0-2M717 226a1 1 0 1 1 0 2 1 1 0 0 1 0-2M-11 212a1 1 0 1 1 0 2 1 1 0 0 1 0-2M3 212a1 1 0 1 1 0 2 1 1 0 0 1 0-2M17 212a1 1 0 1 1 0 2 1 1 0 0 1 0-2M31 212a1 1 0 1 1 0 2 1 1 0 0 1 0-2M45 212a1 1 0 1 1 0 2 1 1 0 0 1 0-2M59 212a1 1 0 1 1 0 2 1 1 0 0 1 0-2M73 212a1 1 0 1 1 0 2 1 1 0 0 1 0-2M87 212a1 1 0 1 1 0 2 1 1 0 0 1 0-2M101 212a1 1 0 1 1 0 2 1 1 0 0 1 0-2M115 212a1 1 0 1 1 0 2 1 1 0 0 1 0-2M129 212a1 1 0 1 1 0 2 1 1 0 0 1 0-2M143 212a1 1 0 1 1 0 2 1 1 0 0 1 0-2M157 212a1 1 0 1 1 0 2 1 1 0 0 1 0-2M171 212a1 1 0 1 1 0 2 1 1 0 0 1 0-2M185 212a1 1 0 1 1 0 2 1 1 0 0 1 0-2M199 212a1 1 0 1 1 0 2 1 1 0 0 1 0-2M213 212a1 1 0 1 1 0 2 1 1 0 0 1 0-2M227 212a1 1 0 1 1 0 2 1 1 0 0 1 0-2M241 212a1 1 0 1 1 0 2 1 1 0 0 1 0-2M255 212a1 1 0 1 1 0 2 1 1 0 0 1 0-2M269 212a1 1 0 1 1 0 2 1 1 0 0 1 0-2M283 212a1 1 0 1 1 0 2 1 1 0 0 1 0-2M297 212a1 1 0 1 1 0 2 1 1 0 0 1 0-2M311 212a1 1 0 1 1 0 2 1 1 0 0 1 0-2M325 212a1 1 0 1 1 0 2 1 1 0 0 1 0-2M339 212a1 1 0 1 1 0 2 1 1 0 0 1 0-2M353 212a1 1 0 1 1 0 2 1 1 0 0 1 0-2M367 212a1 1 0 1 1 0 2 1 1 0 0 1 0-2M381 212a1 1 0 1 1 0 2 1 1 0 0 1 0-2M395 212a1 1 0 1 1 0 2 1 1 0 0 1 0-2M409 212a1 1 0 1 1 0 2 1 1 0 0 1 0-2M423 212a1 1 0 1 1 0 2 1 1 0 0 1 0-2M437 212a1 1 0 1 1 0 2 1 1 0 0 1 0-2M451 212a1 1 0 1 1 0 2 1 1 0 0 1 0-2M465 212a1 1 0 1 1 0 2 1 1 0 0 1 0-2M479 212a1 1 0 1 1 0 2 1 1 0 0 1 0-2M493 212a1 1 0 1 1 0 2 1 1 0 0 1 0-2M507 212a1 1 0 1 1 0 2 1 1 0 0 1 0-2M521 212a1 1 0 1 1 0 2 1 1 0 0 1 0-2M535 212a1 1 0 1 1 0 2 1 1 0 0 1 0-2M549 212a1 1 0 1 1 0 2 1 1 0 0 1 0-2M563 212a1 1 0 1 1 0 2 1 1 0 0 1 0-2M577 212a1 1 0 1 1 0 2 1 1 0 0 1 0-2M591 212a1 1 0 1 1 0 2 1 1 0 0 1 0-2M605 212a1 1 0 1 1 0 2 1 1 0 0 1 0-2M619 212a1 1 0 1 1 0 2 1 1 0 0 1 0-2M633 212a1 1 0 1 1 0 2 1 1 0 0 1 0-2M647 212a1 1 0 1 1 0 2 1 1 0 0 1 0-2M661 212a1 1 0 1 1 0 2 1 1 0 0 1 0-2M675 212a1 1 0 1 1 0 2 1 1 0 0 1 0-2M689 212a1 1 0 1 1 0 2 1 1 0 0 1 0-2M703 212a1 1 0 1 1 0 2 1 1 0 0 1 0-2M717 212a1 1 0 1 1 0 2 1 1 0 0 1 0-2M-11 198a1 1 0 1 1 0 2 1 1 0 0 1 0-2M3 198a1 1 0 1 1 0 2 1 1 0 0 1 0-2M17 198a1 1 0 1 1 0 2 1 1 0 0 1 0-2M31 198a1 1 0 1 1 0 2 1 1 0 0 1 0-2M45 198a1 1 0 1 1 0 2 1 1 0 0 1 0-2M59 198a1 1 0 1 1 0 2 1 1 0 0 1 0-2M73 198a1 1 0 1 1 0 2 1 1 0 0 1 0-2M87 198a1 1 0 1 1 0 2 1 1 0 0 1 0-2M101 198a1 1 0 1 1 0 2 1 1 0 0 1 0-2M115 198a1 1 0 1 1 0 2 1 1 0 0 1 0-2M129 198a1 1 0 1 1 0 2 1 1 0 0 1 0-2M143 198a1 1 0 1 1 0 2 1 1 0 0 1 0-2M157 198a1 1 0 1 1 0 2 1 1 0 0 1 0-2M171 198a1 1 0 1 1 0 2 1 1 0 0 1 0-2M185 198a1 1 0 1 1 0 2 1 1 0 0 1 0-2M199 198a1 1 0 1 1 0 2 1 1 0 0 1 0-2M213 198a1 1 0 1 1 0 2 1 1 0 0 1 0-2M227 198a1 1 0 1 1 0 2 1 1 0 0 1 0-2M241 198a1 1 0 1 1 0 2 1 1 0 0 1 0-2M255 198a1 1 0 1 1 0 2 1 1 0 0 1 0-2M269 198a1 1 0 1 1 0 2 1 1 0 0 1 0-2M283 198a1 1 0 1 1 0 2 1 1 0 0 1 0-2M297 198a1 1 0 1 1 0 2 1 1 0 0 1 0-2M311 198a1 1 0 1 1 0 2 1 1 0 0 1 0-2M325 198a1 1 0 1 1 0 2 1 1 0 0 1 0-2M339 198a1 1 0 1 1 0 2 1 1 0 0 1 0-2M353 198a1 1 0 1 1 0 2 1 1 0 0 1 0-2M367 198a1 1 0 1 1 0 2 1 1 0 0 1 0-2M381 198a1 1 0 1 1 0 2 1 1 0 0 1 0-2M395 198a1 1 0 1 1 0 2 1 1 0 0 1 0-2M409 198a1 1 0 1 1 0 2 1 1 0 0 1 0-2M423 198a1 1 0 1 1 0 2 1 1 0 0 1 0-2M437 198a1 1 0 1 1 0 2 1 1 0 0 1 0-2M451 198a1 1 0 1 1 0 2 1 1 0 0 1 0-2M465 198a1 1 0 1 1 0 2 1 1 0 0 1 0-2M479 198a1 1 0 1 1 0 2 1 1 0 0 1 0-2M493 198a1 1 0 1 1 0 2 1 1 0 0 1 0-2M507 198a1 1 0 1 1 0 2 1 1 0 0 1 0-2M521 198a1 1 0 1 1 0 2 1 1 0 0 1 0-2M535 198a1 1 0 1 1 0 2 1 1 0 0 1 0-2M549 198a1 1 0 1 1 0 2 1 1 0 0 1 0-2M563 198a1 1 0 1 1 0 2 1 1 0 0 1 0-2M577 198a1 1 0 1 1 0 2 1 1 0 0 1 0-2M591 198a1 1 0 1 1 0 2 1 1 0 0 1 0-2M605 198a1 1 0 1 1 0 2 1 1 0 0 1 0-2M619 198a1 1 0 1 1 0 2 1 1 0 0 1 0-2M633 198a1 1 0 1 1 0 2 1 1 0 0 1 0-2M647 198a1 1 0 1 1 0 2 1 1 0 0 1 0-2M661 198a1 1 0 1 1 0 2 1 1 0 0 1 0-2M675 198a1 1 0 1 1 0 2 1 1 0 0 1 0-2M689 198a1 1 0 1 1 0 2 1 1 0 0 1 0-2M703 198a1 1 0 1 1 0 2 1 1 0 0 1 0-2M717 198a1 1 0 1 1 0 2 1 1 0 0 1 0-2M-11 184a1 1 0 1 1 0 2 1 1 0 0 1 0-2M3 184a1 1 0 1 1 0 2 1 1 0 0 1 0-2M17 184a1 1 0 1 1 0 2 1 1 0 0 1 0-2M31 184a1 1 0 1 1 0 2 1 1 0 0 1 0-2M45 184a1 1 0 1 1 0 2 1 1 0 0 1 0-2M59 184a1 1 0 1 1 0 2 1 1 0 0 1 0-2M73 184a1 1 0 1 1 0 2 1 1 0 0 1 0-2M87 184a1 1 0 1 1 0 2 1 1 0 0 1 0-2M101 184a1 1 0 1 1 0 2 1 1 0 0 1 0-2M115 184a1 1 0 1 1 0 2 1 1 0 0 1 0-2M129 184a1 1 0 1 1 0 2 1 1 0 0 1 0-2M143 184a1 1 0 1 1 0 2 1 1 0 0 1 0-2M157 184a1 1 0 1 1 0 2 1 1 0 0 1 0-2M171 184a1 1 0 1 1 0 2 1 1 0 0 1 0-2M185 184a1 1 0 1 1 0 2 1 1 0 0 1 0-2M199 184a1 1 0 1 1 0 2 1 1 0 0 1 0-2M213 184a1 1 0 1 1 0 2 1 1 0 0 1 0-2M227 184a1 1 0 1 1 0 2 1 1 0 0 1 0-2M241 184a1 1 0 1 1 0 2 1 1 0 0 1 0-2M255 184a1 1 0 1 1 0 2 1 1 0 0 1 0-2M269 184a1 1 0 1 1 0 2 1 1 0 0 1 0-2M283 184a1 1 0 1 1 0 2 1 1 0 0 1 0-2M297 184a1 1 0 1 1 0 2 1 1 0 0 1 0-2M311 184a1 1 0 1 1 0 2 1 1 0 0 1 0-2M325 184a1 1 0 1 1 0 2 1 1 0 0 1 0-2M339 184a1 1 0 1 1 0 2 1 1 0 0 1 0-2M353 184a1 1 0 1 1 0 2 1 1 0 0 1 0-2M367 184a1 1 0 1 1 0 2 1 1 0 0 1 0-2M381 184a1 1 0 1 1 0 2 1 1 0 0 1 0-2M395 184a1 1 0 1 1 0 2 1 1 0 0 1 0-2M409 184a1 1 0 1 1 0 2 1 1 0 0 1 0-2M423 184a1 1 0 1 1 0 2 1 1 0 0 1 0-2M437 184a1 1 0 1 1 0 2 1 1 0 0 1 0-2M451 184a1 1 0 1 1 0 2 1 1 0 0 1 0-2M465 184a1 1 0 1 1 0 2 1 1 0 0 1 0-2M479 184a1 1 0 1 1 0 2 1 1 0 0 1 0-2M493 184a1 1 0 1 1 0 2 1 1 0 0 1 0-2M507 184a1 1 0 1 1 0 2 1 1 0 0 1 0-2M521 184a1 1 0 1 1 0 2 1 1 0 0 1 0-2M535 184a1 1 0 1 1 0 2 1 1 0 0 1 0-2M549 184a1 1 0 1 1 0 2 1 1 0 0 1 0-2M563 184a1 1 0 1 1 0 2 1 1 0 0 1 0-2M577 184a1 1 0 1 1 0 2 1 1 0 0 1 0-2M591 184a1 1 0 1 1 0 2 1 1 0 0 1 0-2M605 184a1 1 0 1 1 0 2 1 1 0 0 1 0-2M619 184a1 1 0 1 1 0 2 1 1 0 0 1 0-2M633 184a1 1 0 1 1 0 2 1 1 0 0 1 0-2M647 184a1 1 0 1 1 0 2 1 1 0 0 1 0-2M661 184a1 1 0 1 1 0 2 1 1 0 0 1 0-2M675 184a1 1 0 1 1 0 2 1 1 0 0 1 0-2M689 184a1 1 0 1 1 0 2 1 1 0 0 1 0-2M703 184a1 1 0 1 1 0 2 1 1 0 0 1 0-2M717 184a1 1 0 1 1 0 2 1 1 0 0 1 0-2M-11 170a1 1 0 1 1 0 2 1 1 0 0 1 0-2M3 170a1 1 0 1 1 0 2 1 1 0 0 1 0-2M17 170a1 1 0 1 1 0 2 1 1 0 0 1 0-2M31 170a1 1 0 1 1 0 2 1 1 0 0 1 0-2M45 170a1 1 0 1 1 0 2 1 1 0 0 1 0-2M59 170a1 1 0 1 1 0 2 1 1 0 0 1 0-2M73 170a1 1 0 1 1 0 2 1 1 0 0 1 0-2M87 170a1 1 0 1 1 0 2 1 1 0 0 1 0-2M101 170a1 1 0 1 1 0 2 1 1 0 0 1 0-2M115 170a1 1 0 1 1 0 2 1 1 0 0 1 0-2M129 170a1 1 0 1 1 0 2 1 1 0 0 1 0-2M143 170a1 1 0 1 1 0 2 1 1 0 0 1 0-2M157 170a1 1 0 1 1 0 2 1 1 0 0 1 0-2M171 170a1 1 0 1 1 0 2 1 1 0 0 1 0-2M185 170a1 1 0 1 1 0 2 1 1 0 0 1 0-2M199 170a1 1 0 1 1 0 2 1 1 0 0 1 0-2M213 170a1 1 0 1 1 0 2 1 1 0 0 1 0-2M227 170a1 1 0 1 1 0 2 1 1 0 0 1 0-2M241 170a1 1 0 1 1 0 2 1 1 0 0 1 0-2M255 170a1 1 0 1 1 0 2 1 1 0 0 1 0-2M269 170a1 1 0 1 1 0 2 1 1 0 0 1 0-2M283 170a1 1 0 1 1 0 2 1 1 0 0 1 0-2M297 170a1 1 0 1 1 0 2 1 1 0 0 1 0-2M311 170a1 1 0 1 1 0 2 1 1 0 0 1 0-2M325 170a1 1 0 1 1 0 2 1 1 0 0 1 0-2M339 170a1 1 0 1 1 0 2 1 1 0 0 1 0-2M353 170a1 1 0 1 1 0 2 1 1 0 0 1 0-2M367 170a1 1 0 1 1 0 2 1 1 0 0 1 0-2M381 170a1 1 0 1 1 0 2 1 1 0 0 1 0-2M395 170a1 1 0 1 1 0 2 1 1 0 0 1 0-2M409 170a1 1 0 1 1 0 2 1 1 0 0 1 0-2M423 170a1 1 0 1 1 0 2 1 1 0 0 1 0-2M437 170a1 1 0 1 1 0 2 1 1 0 0 1 0-2M451 170a1 1 0 1 1 0 2 1 1 0 0 1 0-2M465 170a1 1 0 1 1 0 2 1 1 0 0 1 0-2M479 170a1 1 0 1 1 0 2 1 1 0 0 1 0-2M493 170a1 1 0 1 1 0 2 1 1 0 0 1 0-2M507 170a1 1 0 1 1 0 2 1 1 0 0 1 0-2M521 170a1 1 0 1 1 0 2 1 1 0 0 1 0-2M535 170a1 1 0 1 1 0 2 1 1 0 0 1 0-2M549 170a1 1 0 1 1 0 2 1 1 0 0 1 0-2M563 170a1 1 0 1 1 0 2 1 1 0 0 1 0-2M577 170a1 1 0 1 1 0 2 1 1 0 0 1 0-2M591 170a1 1 0 1 1 0 2 1 1 0 0 1 0-2M605 170a1 1 0 1 1 0 2 1 1 0 0 1 0-2M619 170a1 1 0 1 1 0 2 1 1 0 0 1 0-2M633 170a1 1 0 1 1 0 2 1 1 0 0 1 0-2M647 170a1 1 0 1 1 0 2 1 1 0 0 1 0-2M661 170a1 1 0 1 1 0 2 1 1 0 0 1 0-2M675 170a1 1 0 1 1 0 2 1 1 0 0 1 0-2M689 170a1 1 0 1 1 0 2 1 1 0 0 1 0-2M703 170a1 1 0 1 1 0 2 1 1 0 0 1 0-2M717 170a1 1 0 1 1 0 2 1 1 0 0 1 0-2M-11 156a1 1 0 1 1 0 2 1 1 0 0 1 0-2M3 156a1 1 0 1 1 0 2 1 1 0 0 1 0-2M17 156a1 1 0 1 1 0 2 1 1 0 0 1 0-2M31 156a1 1 0 1 1 0 2 1 1 0 0 1 0-2M45 156a1 1 0 1 1 0 2 1 1 0 0 1 0-2M59 156a1 1 0 1 1 0 2 1 1 0 0 1 0-2M73 156a1 1 0 1 1 0 2 1 1 0 0 1 0-2M87 156a1 1 0 1 1 0 2 1 1 0 0 1 0-2M101 156a1 1 0 1 1 0 2 1 1 0 0 1 0-2M115 156a1 1 0 1 1 0 2 1 1 0 0 1 0-2M129 156a1 1 0 1 1 0 2 1 1 0 0 1 0-2M143 156a1 1 0 1 1 0 2 1 1 0 0 1 0-2M157 156a1 1 0 1 1 0 2 1 1 0 0 1 0-2M171 156a1 1 0 1 1 0 2 1 1 0 0 1 0-2M185 156a1 1 0 1 1 0 2 1 1 0 0 1 0-2M199 156a1 1 0 1 1 0 2 1 1 0 0 1 0-2M213 156a1 1 0 1 1 0 2 1 1 0 0 1 0-2M227 156a1 1 0 1 1 0 2 1 1 0 0 1 0-2M241 156a1 1 0 1 1 0 2 1 1 0 0 1 0-2M255 156a1 1 0 1 1 0 2 1 1 0 0 1 0-2M269 156a1 1 0 1 1 0 2 1 1 0 0 1 0-2M283 156a1 1 0 1 1 0 2 1 1 0 0 1 0-2M297 156a1 1 0 1 1 0 2 1 1 0 0 1 0-2M311 156a1 1 0 1 1 0 2 1 1 0 0 1 0-2M325 156a1 1 0 1 1 0 2 1 1 0 0 1 0-2M339 156a1 1 0 1 1 0 2 1 1 0 0 1 0-2M353 156a1 1 0 1 1 0 2 1 1 0 0 1 0-2M367 156a1 1 0 1 1 0 2 1 1 0 0 1 0-2M381 156a1 1 0 1 1 0 2 1 1 0 0 1 0-2M395 156a1 1 0 1 1 0 2 1 1 0 0 1 0-2M409 156a1 1 0 1 1 0 2 1 1 0 0 1 0-2M423 156a1 1 0 1 1 0 2 1 1 0 0 1 0-2M437 156a1 1 0 1 1 0 2 1 1 0 0 1 0-2M451 156a1 1 0 1 1 0 2 1 1 0 0 1 0-2M465 156a1 1 0 1 1 0 2 1 1 0 0 1 0-2M479 156a1 1 0 1 1 0 2 1 1 0 0 1 0-2M493 156a1 1 0 1 1 0 2 1 1 0 0 1 0-2M507 156a1 1 0 1 1 0 2 1 1 0 0 1 0-2M521 156a1 1 0 1 1 0 2 1 1 0 0 1 0-2M535 156a1 1 0 1 1 0 2 1 1 0 0 1 0-2M549 156a1 1 0 1 1 0 2 1 1 0 0 1 0-2M563 156a1 1 0 1 1 0 2 1 1 0 0 1 0-2M577 156a1 1 0 1 1 0 2 1 1 0 0 1 0-2M591 156a1 1 0 1 1 0 2 1 1 0 0 1 0-2M605 156a1 1 0 1 1 0 2 1 1 0 0 1 0-2M619 156a1 1 0 1 1 0 2 1 1 0 0 1 0-2M633 156a1 1 0 1 1 0 2 1 1 0 0 1 0-2M647 156a1 1 0 1 1 0 2 1 1 0 0 1 0-2M661 156a1 1 0 1 1 0 2 1 1 0 0 1 0-2M675 156a1 1 0 1 1 0 2 1 1 0 0 1 0-2M689 156a1 1 0 1 1 0 2 1 1 0 0 1 0-2M703 156a1 1 0 1 1 0 2 1 1 0 0 1 0-2M717 156a1 1 0 1 1 0 2 1 1 0 0 1 0-2M-11 142a1 1 0 1 1 0 2 1 1 0 0 1 0-2M3 142a1 1 0 1 1 0 2 1 1 0 0 1 0-2M17 142a1 1 0 1 1 0 2 1 1 0 0 1 0-2M31 142a1 1 0 1 1 0 2 1 1 0 0 1 0-2M45 142a1 1 0 1 1 0 2 1 1 0 0 1 0-2M59 142a1 1 0 1 1 0 2 1 1 0 0 1 0-2M73 142a1 1 0 1 1 0 2 1 1 0 0 1 0-2M87 142a1 1 0 1 1 0 2 1 1 0 0 1 0-2M101 142a1 1 0 1 1 0 2 1 1 0 0 1 0-2M115 142a1 1 0 1 1 0 2 1 1 0 0 1 0-2M129 142a1 1 0 1 1 0 2 1 1 0 0 1 0-2M143 142a1 1 0 1 1 0 2 1 1 0 0 1 0-2M157 142a1 1 0 1 1 0 2 1 1 0 0 1 0-2M171 142a1 1 0 1 1 0 2 1 1 0 0 1 0-2M185 142a1 1 0 1 1 0 2 1 1 0 0 1 0-2M199 142a1 1 0 1 1 0 2 1 1 0 0 1 0-2M213 142a1 1 0 1 1 0 2 1 1 0 0 1 0-2M227 142a1 1 0 1 1 0 2 1 1 0 0 1 0-2M241 142a1 1 0 1 1 0 2 1 1 0 0 1 0-2M255 142a1 1 0 1 1 0 2 1 1 0 0 1 0-2M269 142a1 1 0 1 1 0 2 1 1 0 0 1 0-2M283 142a1 1 0 1 1 0 2 1 1 0 0 1 0-2M297 142a1 1 0 1 1 0 2 1 1 0 0 1 0-2M311 142a1 1 0 1 1 0 2 1 1 0 0 1 0-2M325 142a1 1 0 1 1 0 2 1 1 0 0 1 0-2M339 142a1 1 0 1 1 0 2 1 1 0 0 1 0-2M353 142a1 1 0 1 1 0 2 1 1 0 0 1 0-2M367 142a1 1 0 1 1 0 2 1 1 0 0 1 0-2M381 142a1 1 0 1 1 0 2 1 1 0 0 1 0-2M395 142a1 1 0 1 1 0 2 1 1 0 0 1 0-2M409 142a1 1 0 1 1 0 2 1 1 0 0 1 0-2M423 142a1 1 0 1 1 0 2 1 1 0 0 1 0-2M437 142a1 1 0 1 1 0 2 1 1 0 0 1 0-2M451 142a1 1 0 1 1 0 2 1 1 0 0 1 0-2M465 142a1 1 0 1 1 0 2 1 1 0 0 1 0-2M479 142a1 1 0 1 1 0 2 1 1 0 0 1 0-2M493 142a1 1 0 1 1 0 2 1 1 0 0 1 0-2M507 142a1 1 0 1 1 0 2 1 1 0 0 1 0-2M521 142a1 1 0 1 1 0 2 1 1 0 0 1 0-2M535 142a1 1 0 1 1 0 2 1 1 0 0 1 0-2M549 142a1 1 0 1 1 0 2 1 1 0 0 1 0-2M563 142a1 1 0 1 1 0 2 1 1 0 0 1 0-2M577 142a1 1 0 1 1 0 2 1 1 0 0 1 0-2M591 142a1 1 0 1 1 0 2 1 1 0 0 1 0-2M605 142a1 1 0 1 1 0 2 1 1 0 0 1 0-2M619 142a1 1 0 1 1 0 2 1 1 0 0 1 0-2M633 142a1 1 0 1 1 0 2 1 1 0 0 1 0-2M647 142a1 1 0 1 1 0 2 1 1 0 0 1 0-2M661 142a1 1 0 1 1 0 2 1 1 0 0 1 0-2M675 142a1 1 0 1 1 0 2 1 1 0 0 1 0-2M689 142a1 1 0 1 1 0 2 1 1 0 0 1 0-2M703 142a1 1 0 1 1 0 2 1 1 0 0 1 0-2M717 142a1 1 0 1 1 0 2 1 1 0 0 1 0-2M-11 128a1 1 0 1 1 0 2 1 1 0 0 1 0-2M3 128a1 1 0 1 1 0 2 1 1 0 0 1 0-2M17 128a1 1 0 1 1 0 2 1 1 0 0 1 0-2M31 128a1 1 0 1 1 0 2 1 1 0 0 1 0-2M45 128a1 1 0 1 1 0 2 1 1 0 0 1 0-2M59 128a1 1 0 1 1 0 2 1 1 0 0 1 0-2M73 128a1 1 0 1 1 0 2 1 1 0 0 1 0-2M87 128a1 1 0 1 1 0 2 1 1 0 0 1 0-2M101 128a1 1 0 1 1 0 2 1 1 0 0 1 0-2M115 128a1 1 0 1 1 0 2 1 1 0 0 1 0-2M129 128a1 1 0 1 1 0 2 1 1 0 0 1 0-2M143 128a1 1 0 1 1 0 2 1 1 0 0 1 0-2M157 128a1 1 0 1 1 0 2 1 1 0 0 1 0-2M171 128a1 1 0 1 1 0 2 1 1 0 0 1 0-2M185 128a1 1 0 1 1 0 2 1 1 0 0 1 0-2M199 128a1 1 0 1 1 0 2 1 1 0 0 1 0-2M213 128a1 1 0 1 1 0 2 1 1 0 0 1 0-2M227 128a1 1 0 1 1 0 2 1 1 0 0 1 0-2M241 128a1 1 0 1 1 0 2 1 1 0 0 1 0-2M255 128a1 1 0 1 1 0 2 1 1 0 0 1 0-2M269 128a1 1 0 1 1 0 2 1 1 0 0 1 0-2M283 128a1 1 0 1 1 0 2 1 1 0 0 1 0-2M297 128a1 1 0 1 1 0 2 1 1 0 0 1 0-2M311 128a1 1 0 1 1 0 2 1 1 0 0 1 0-2M325 128a1 1 0 1 1 0 2 1 1 0 0 1 0-2M339 128a1 1 0 1 1 0 2 1 1 0 0 1 0-2M353 128a1 1 0 1 1 0 2 1 1 0 0 1 0-2M367 128a1 1 0 1 1 0 2 1 1 0 0 1 0-2M381 128a1 1 0 1 1 0 2 1 1 0 0 1 0-2M395 128a1 1 0 1 1 0 2 1 1 0 0 1 0-2M409 128a1 1 0 1 1 0 2 1 1 0 0 1 0-2M423 128a1 1 0 1 1 0 2 1 1 0 0 1 0-2M437 128a1 1 0 1 1 0 2 1 1 0 0 1 0-2M451 128a1 1 0 1 1 0 2 1 1 0 0 1 0-2M465 128a1 1 0 1 1 0 2 1 1 0 0 1 0-2M479 128a1 1 0 1 1 0 2 1 1 0 0 1 0-2M493 128a1 1 0 1 1 0 2 1 1 0 0 1 0-2M507 128a1 1 0 1 1 0 2 1 1 0 0 1 0-2M521 128a1 1 0 1 1 0 2 1 1 0 0 1 0-2M535 128a1 1 0 1 1 0 2 1 1 0 0 1 0-2M549 128a1 1 0 1 1 0 2 1 1 0 0 1 0-2M563 128a1 1 0 1 1 0 2 1 1 0 0 1 0-2M577 128a1 1 0 1 1 0 2 1 1 0 0 1 0-2M591 128a1 1 0 1 1 0 2 1 1 0 0 1 0-2M605 128a1 1 0 1 1 0 2 1 1 0 0 1 0-2M619 128a1 1 0 1 1 0 2 1 1 0 0 1 0-2M633 128a1 1 0 1 1 0 2 1 1 0 0 1 0-2M647 128a1 1 0 1 1 0 2 1 1 0 0 1 0-2M661 128a1 1 0 1 1 0 2 1 1 0 0 1 0-2M675 128a1 1 0 1 1 0 2 1 1 0 0 1 0-2M689 128a1 1 0 1 1 0 2 1 1 0 0 1 0-2M703 128a1 1 0 1 1 0 2 1 1 0 0 1 0-2M717 128a1 1 0 1 1 0 2 1 1 0 0 1 0-2M-11 114a1 1 0 1 1 0 2 1 1 0 0 1 0-2M3 114a1 1 0 1 1 0 2 1 1 0 0 1 0-2M17 114a1 1 0 1 1 0 2 1 1 0 0 1 0-2M31 114a1 1 0 1 1 0 2 1 1 0 0 1 0-2M45 114a1 1 0 1 1 0 2 1 1 0 0 1 0-2M59 114a1 1 0 1 1 0 2 1 1 0 0 1 0-2M73 114a1 1 0 1 1 0 2 1 1 0 0 1 0-2M87 114a1 1 0 1 1 0 2 1 1 0 0 1 0-2M101 114a1 1 0 1 1 0 2 1 1 0 0 1 0-2M115 114a1 1 0 1 1 0 2 1 1 0 0 1 0-2M129 114a1 1 0 1 1 0 2 1 1 0 0 1 0-2M143 114a1 1 0 1 1 0 2 1 1 0 0 1 0-2M157 114a1 1 0 1 1 0 2 1 1 0 0 1 0-2M171 114a1 1 0 1 1 0 2 1 1 0 0 1 0-2M185 114a1 1 0 1 1 0 2 1 1 0 0 1 0-2M199 114a1 1 0 1 1 0 2 1 1 0 0 1 0-2M213 114a1 1 0 1 1 0 2 1 1 0 0 1 0-2M227 114a1 1 0 1 1 0 2 1 1 0 0 1 0-2M241 114a1 1 0 1 1 0 2 1 1 0 0 1 0-2M255 114a1 1 0 1 1 0 2 1 1 0 0 1 0-2M269 114a1 1 0 1 1 0 2 1 1 0 0 1 0-2M283 114a1 1 0 1 1 0 2 1 1 0 0 1 0-2M297 114a1 1 0 1 1 0 2 1 1 0 0 1 0-2M311 114a1 1 0 1 1 0 2 1 1 0 0 1 0-2M325 114a1 1 0 1 1 0 2 1 1 0 0 1 0-2M339 114a1 1 0 1 1 0 2 1 1 0 0 1 0-2M353 114a1 1 0 1 1 0 2 1 1 0 0 1 0-2M367 114a1 1 0 1 1 0 2 1 1 0 0 1 0-2M381 114a1 1 0 1 1 0 2 1 1 0 0 1 0-2M395 114a1 1 0 1 1 0 2 1 1 0 0 1 0-2M409 114a1 1 0 1 1 0 2 1 1 0 0 1 0-2M423 114a1 1 0 1 1 0 2 1 1 0 0 1 0-2M437 114a1 1 0 1 1 0 2 1 1 0 0 1 0-2M451 114a1 1 0 1 1 0 2 1 1 0 0 1 0-2M465 114a1 1 0 1 1 0 2 1 1 0 0 1 0-2M479 114a1 1 0 1 1 0 2 1 1 0 0 1 0-2M493 114a1 1 0 1 1 0 2 1 1 0 0 1 0-2M507 114a1 1 0 1 1 0 2 1 1 0 0 1 0-2M521 114a1 1 0 1 1 0 2 1 1 0 0 1 0-2M535 114a1 1 0 1 1 0 2 1 1 0 0 1 0-2M549 114a1 1 0 1 1 0 2 1 1 0 0 1 0-2M563 114a1 1 0 1 1 0 2 1 1 0 0 1 0-2M577 114a1 1 0 1 1 0 2 1 1 0 0 1 0-2M591 114a1 1 0 1 1 0 2 1 1 0 0 1 0-2M605 114a1 1 0 1 1 0 2 1 1 0 0 1 0-2M619 114a1 1 0 1 1 0 2 1 1 0 0 1 0-2M633 114a1 1 0 1 1 0 2 1 1 0 0 1 0-2M647 114a1 1 0 1 1 0 2 1 1 0 0 1 0-2M661 114a1 1 0 1 1 0 2 1 1 0 0 1 0-2M675 114a1 1 0 1 1 0 2 1 1 0 0 1 0-2M689 114a1 1 0 1 1 0 2 1 1 0 0 1 0-2M703 114a1 1 0 1 1 0 2 1 1 0 0 1 0-2M717 114a1 1 0 1 1 0 2 1 1 0 0 1 0-2M-11 100a1 1 0 1 1 0 2 1 1 0 0 1 0-2M3 100a1 1 0 1 1 0 2 1 1 0 0 1 0-2M17 100a1 1 0 1 1 0 2 1 1 0 0 1 0-2M31 100a1 1 0 1 1 0 2 1 1 0 0 1 0-2M45 100a1 1 0 1 1 0 2 1 1 0 0 1 0-2M59 100a1 1 0 1 1 0 2 1 1 0 0 1 0-2M73 100a1 1 0 1 1 0 2 1 1 0 0 1 0-2M87 100a1 1 0 1 1 0 2 1 1 0 0 1 0-2M101 100a1 1 0 1 1 0 2 1 1 0 0 1 0-2M115 100a1 1 0 1 1 0 2 1 1 0 0 1 0-2M129 100a1 1 0 1 1 0 2 1 1 0 0 1 0-2M143 100a1 1 0 1 1 0 2 1 1 0 0 1 0-2M157 100a1 1 0 1 1 0 2 1 1 0 0 1 0-2M171 100a1 1 0 1 1 0 2 1 1 0 0 1 0-2M185 100a1 1 0 1 1 0 2 1 1 0 0 1 0-2M199 100a1 1 0 1 1 0 2 1 1 0 0 1 0-2M213 100a1 1 0 1 1 0 2 1 1 0 0 1 0-2M227 100a1 1 0 1 1 0 2 1 1 0 0 1 0-2M241 100a1 1 0 1 1 0 2 1 1 0 0 1 0-2M255 100a1 1 0 1 1 0 2 1 1 0 0 1 0-2M269 100a1 1 0 1 1 0 2 1 1 0 0 1 0-2M283 100a1 1 0 1 1 0 2 1 1 0 0 1 0-2M297 100a1 1 0 1 1 0 2 1 1 0 0 1 0-2M311 100a1 1 0 1 1 0 2 1 1 0 0 1 0-2M325 100a1 1 0 1 1 0 2 1 1 0 0 1 0-2M339 100a1 1 0 1 1 0 2 1 1 0 0 1 0-2M353 100a1 1 0 1 1 0 2 1 1 0 0 1 0-2M367 100a1 1 0 1 1 0 2 1 1 0 0 1 0-2M381 100a1 1 0 1 1 0 2 1 1 0 0 1 0-2M395 100a1 1 0 1 1 0 2 1 1 0 0 1 0-2M409 100a1 1 0 1 1 0 2 1 1 0 0 1 0-2M423 100a1 1 0 1 1 0 2 1 1 0 0 1 0-2M437 100a1 1 0 1 1 0 2 1 1 0 0 1 0-2M451 100a1 1 0 1 1 0 2 1 1 0 0 1 0-2M465 100a1 1 0 1 1 0 2 1 1 0 0 1 0-2M479 100a1 1 0 1 1 0 2 1 1 0 0 1 0-2M493 100a1 1 0 1 1 0 2 1 1 0 0 1 0-2M507 100a1 1 0 1 1 0 2 1 1 0 0 1 0-2M521 100a1 1 0 1 1 0 2 1 1 0 0 1 0-2M535 100a1 1 0 1 1 0 2 1 1 0 0 1 0-2M549 100a1 1 0 1 1 0 2 1 1 0 0 1 0-2M563 100a1 1 0 1 1 0 2 1 1 0 0 1 0-2M577 100a1 1 0 1 1 0 2 1 1 0 0 1 0-2M591 100a1 1 0 1 1 0 2 1 1 0 0 1 0-2M605 100a1 1 0 1 1 0 2 1 1 0 0 1 0-2M619 100a1 1 0 1 1 0 2 1 1 0 0 1 0-2M633 100a1 1 0 1 1 0 2 1 1 0 0 1 0-2M647 100a1 1 0 1 1 0 2 1 1 0 0 1 0-2M661 100a1 1 0 1 1 0 2 1 1 0 0 1 0-2M675 100a1 1 0 1 1 0 2 1 1 0 0 1 0-2M689 100a1 1 0 1 1 0 2 1 1 0 0 1 0-2M703 100a1 1 0 1 1 0 2 1 1 0 0 1 0-2M717 100a1 1 0 1 1 0 2 1 1 0 0 1 0-2M-11 86a1 1 0 1 1 0 2 1 1 0 0 1 0-2M3 86a1 1 0 1 1 0 2 1 1 0 0 1 0-2M17 86a1 1 0 1 1 0 2 1 1 0 0 1 0-2M31 86a1 1 0 1 1 0 2 1 1 0 0 1 0-2M45 86a1 1 0 1 1 0 2 1 1 0 0 1 0-2M59 86a1 1 0 1 1 0 2 1 1 0 0 1 0-2M73 86a1 1 0 1 1 0 2 1 1 0 0 1 0-2M87 86a1 1 0 1 1 0 2 1 1 0 0 1 0-2M101 86a1 1 0 1 1 0 2 1 1 0 0 1 0-2M115 86a1 1 0 1 1 0 2 1 1 0 0 1 0-2M129 86a1 1 0 1 1 0 2 1 1 0 0 1 0-2M143 86a1 1 0 1 1 0 2 1 1 0 0 1 0-2M157 86a1 1 0 1 1 0 2 1 1 0 0 1 0-2M171 86a1 1 0 1 1 0 2 1 1 0 0 1 0-2M185 86a1 1 0 1 1 0 2 1 1 0 0 1 0-2M199 86a1 1 0 1 1 0 2 1 1 0 0 1 0-2M213 86a1 1 0 1 1 0 2 1 1 0 0 1 0-2M227 86a1 1 0 1 1 0 2 1 1 0 0 1 0-2M241 86a1 1 0 1 1 0 2 1 1 0 0 1 0-2M255 86a1 1 0 1 1 0 2 1 1 0 0 1 0-2M269 86a1 1 0 1 1 0 2 1 1 0 0 1 0-2M283 86a1 1 0 1 1 0 2 1 1 0 0 1 0-2M297 86a1 1 0 1 1 0 2 1 1 0 0 1 0-2M311 86a1 1 0 1 1 0 2 1 1 0 0 1 0-2M325 86a1 1 0 1 1 0 2 1 1 0 0 1 0-2M339 86a1 1 0 1 1 0 2 1 1 0 0 1 0-2M353 86a1 1 0 1 1 0 2 1 1 0 0 1 0-2M367 86a1 1 0 1 1 0 2 1 1 0 0 1 0-2M381 86a1 1 0 1 1 0 2 1 1 0 0 1 0-2M395 86a1 1 0 1 1 0 2 1 1 0 0 1 0-2M409 86a1 1 0 1 1 0 2 1 1 0 0 1 0-2M423 86a1 1 0 1 1 0 2 1 1 0 0 1 0-2M437 86a1 1 0 1 1 0 2 1 1 0 0 1 0-2M451 86a1 1 0 1 1 0 2 1 1 0 0 1 0-2M465 86a1 1 0 1 1 0 2 1 1 0 0 1 0-2M479 86a1 1 0 1 1 0 2 1 1 0 0 1 0-2M493 86a1 1 0 1 1 0 2 1 1 0 0 1 0-2M507 86a1 1 0 1 1 0 2 1 1 0 0 1 0-2M521 86a1 1 0 1 1 0 2 1 1 0 0 1 0-2M535 86a1 1 0 1 1 0 2 1 1 0 0 1 0-2M549 86a1 1 0 1 1 0 2 1 1 0 0 1 0-2M563 86a1 1 0 1 1 0 2 1 1 0 0 1 0-2M577 86a1 1 0 1 1 0 2 1 1 0 0 1 0-2M591 86a1 1 0 1 1 0 2 1 1 0 0 1 0-2M605 86a1 1 0 1 1 0 2 1 1 0 0 1 0-2M619 86a1 1 0 1 1 0 2 1 1 0 0 1 0-2M633 86a1 1 0 1 1 0 2 1 1 0 0 1 0-2M647 86a1 1 0 1 1 0 2 1 1 0 0 1 0-2M661 86a1 1 0 1 1 0 2 1 1 0 0 1 0-2M675 86a1 1 0 1 1 0 2 1 1 0 0 1 0-2M689 86a1 1 0 1 1 0 2 1 1 0 0 1 0-2M703 86a1 1 0 1 1 0 2 1 1 0 0 1 0-2M717 86a1 1 0 1 1 0 2 1 1 0 0 1 0-2M-11 72a1 1 0 1 1 0 2 1 1 0 0 1 0-2M3 72a1 1 0 1 1 0 2 1 1 0 0 1 0-2M17 72a1 1 0 1 1 0 2 1 1 0 0 1 0-2M31 72a1 1 0 1 1 0 2 1 1 0 0 1 0-2M45 72a1 1 0 1 1 0 2 1 1 0 0 1 0-2M59 72a1 1 0 1 1 0 2 1 1 0 0 1 0-2M73 72a1 1 0 1 1 0 2 1 1 0 0 1 0-2M87 72a1 1 0 1 1 0 2 1 1 0 0 1 0-2M101 72a1 1 0 1 1 0 2 1 1 0 0 1 0-2M115 72a1 1 0 1 1 0 2 1 1 0 0 1 0-2M129 72a1 1 0 1 1 0 2 1 1 0 0 1 0-2M143 72a1 1 0 1 1 0 2 1 1 0 0 1 0-2M157 72a1 1 0 1 1 0 2 1 1 0 0 1 0-2M171 72a1 1 0 1 1 0 2 1 1 0 0 1 0-2M185 72a1 1 0 1 1 0 2 1 1 0 0 1 0-2M199 72a1 1 0 1 1 0 2 1 1 0 0 1 0-2M213 72a1 1 0 1 1 0 2 1 1 0 0 1 0-2M227 72a1 1 0 1 1 0 2 1 1 0 0 1 0-2M241 72a1 1 0 1 1 0 2 1 1 0 0 1 0-2M255 72a1 1 0 1 1 0 2 1 1 0 0 1 0-2M269 72a1 1 0 1 1 0 2 1 1 0 0 1 0-2M283 72a1 1 0 1 1 0 2 1 1 0 0 1 0-2M297 72a1 1 0 1 1 0 2 1 1 0 0 1 0-2M311 72a1 1 0 1 1 0 2 1 1 0 0 1 0-2M325 72a1 1 0 1 1 0 2 1 1 0 0 1 0-2M339 72a1 1 0 1 1 0 2 1 1 0 0 1 0-2M353 72a1 1 0 1 1 0 2 1 1 0 0 1 0-2M367 72a1 1 0 1 1 0 2 1 1 0 0 1 0-2M381 72a1 1 0 1 1 0 2 1 1 0 0 1 0-2M395 72a1 1 0 1 1 0 2 1 1 0 0 1 0-2M409 72a1 1 0 1 1 0 2 1 1 0 0 1 0-2M423 72a1 1 0 1 1 0 2 1 1 0 0 1 0-2M437 72a1 1 0 1 1 0 2 1 1 0 0 1 0-2M451 72a1 1 0 1 1 0 2 1 1 0 0 1 0-2M465 72a1 1 0 1 1 0 2 1 1 0 0 1 0-2M479 72a1 1 0 1 1 0 2 1 1 0 0 1 0-2M493 72a1 1 0 1 1 0 2 1 1 0 0 1 0-2M507 72a1 1 0 1 1 0 2 1 1 0 0 1 0-2M521 72a1 1 0 1 1 0 2 1 1 0 0 1 0-2M535 72a1 1 0 1 1 0 2 1 1 0 0 1 0-2M549 72a1 1 0 1 1 0 2 1 1 0 0 1 0-2M563 72a1 1 0 1 1 0 2 1 1 0 0 1 0-2M577 72a1 1 0 1 1 0 2 1 1 0 0 1 0-2M591 72a1 1 0 1 1 0 2 1 1 0 0 1 0-2M605 72a1 1 0 1 1 0 2 1 1 0 0 1 0-2M619 72a1 1 0 1 1 0 2 1 1 0 0 1 0-2M633 72a1 1 0 1 1 0 2 1 1 0 0 1 0-2M647 72a1 1 0 1 1 0 2 1 1 0 0 1 0-2M661 72a1 1 0 1 1 0 2 1 1 0 0 1 0-2M675 72a1 1 0 1 1 0 2 1 1 0 0 1 0-2M689 72a1 1 0 1 1 0 2 1 1 0 0 1 0-2M703 72a1 1 0 1 1 0 2 1 1 0 0 1 0-2M717 72a1 1 0 1 1 0 2 1 1 0 0 1 0-2M-11 58a1 1 0 1 1 0 2 1 1 0 0 1 0-2M3 58a1 1 0 1 1 0 2 1 1 0 0 1 0-2M17 58a1 1 0 1 1 0 2 1 1 0 0 1 0-2M31 58a1 1 0 1 1 0 2 1 1 0 0 1 0-2M45 58a1 1 0 1 1 0 2 1 1 0 0 1 0-2M59 58a1 1 0 1 1 0 2 1 1 0 0 1 0-2M73 58a1 1 0 1 1 0 2 1 1 0 0 1 0-2M87 58a1 1 0 1 1 0 2 1 1 0 0 1 0-2M101 58a1 1 0 1 1 0 2 1 1 0 0 1 0-2M115 58a1 1 0 1 1 0 2 1 1 0 0 1 0-2M129 58a1 1 0 1 1 0 2 1 1 0 0 1 0-2M143 58a1 1 0 1 1 0 2 1 1 0 0 1 0-2M157 58a1 1 0 1 1 0 2 1 1 0 0 1 0-2M171 58a1 1 0 1 1 0 2 1 1 0 0 1 0-2M185 58a1 1 0 1 1 0 2 1 1 0 0 1 0-2M199 58a1 1 0 1 1 0 2 1 1 0 0 1 0-2M213 58a1 1 0 1 1 0 2 1 1 0 0 1 0-2M227 58a1 1 0 1 1 0 2 1 1 0 0 1 0-2M241 58a1 1 0 1 1 0 2 1 1 0 0 1 0-2M255 58a1 1 0 1 1 0 2 1 1 0 0 1 0-2M269 58a1 1 0 1 1 0 2 1 1 0 0 1 0-2M283 58a1 1 0 1 1 0 2 1 1 0 0 1 0-2M297 58a1 1 0 1 1 0 2 1 1 0 0 1 0-2M311 58a1 1 0 1 1 0 2 1 1 0 0 1 0-2M325 58a1 1 0 1 1 0 2 1 1 0 0 1 0-2M339 58a1 1 0 1 1 0 2 1 1 0 0 1 0-2M353 58a1 1 0 1 1 0 2 1 1 0 0 1 0-2M367 58a1 1 0 1 1 0 2 1 1 0 0 1 0-2M381 58a1 1 0 1 1 0 2 1 1 0 0 1 0-2M395 58a1 1 0 1 1 0 2 1 1 0 0 1 0-2M409 58a1 1 0 1 1 0 2 1 1 0 0 1 0-2M423 58a1 1 0 1 1 0 2 1 1 0 0 1 0-2M437 58a1 1 0 1 1 0 2 1 1 0 0 1 0-2M451 58a1 1 0 1 1 0 2 1 1 0 0 1 0-2M465 58a1 1 0 1 1 0 2 1 1 0 0 1 0-2M479 58a1 1 0 1 1 0 2 1 1 0 0 1 0-2M493 58a1 1 0 1 1 0 2 1 1 0 0 1 0-2M507 58a1 1 0 1 1 0 2 1 1 0 0 1 0-2M521 58a1 1 0 1 1 0 2 1 1 0 0 1 0-2M535 58a1 1 0 1 1 0 2 1 1 0 0 1 0-2M549 58a1 1 0 1 1 0 2 1 1 0 0 1 0-2M563 58a1 1 0 1 1 0 2 1 1 0 0 1 0-2M577 58a1 1 0 1 1 0 2 1 1 0 0 1 0-2M591 58a1 1 0 1 1 0 2 1 1 0 0 1 0-2M605 58a1 1 0 1 1 0 2 1 1 0 0 1 0-2M619 58a1 1 0 1 1 0 2 1 1 0 0 1 0-2M633 58a1 1 0 1 1 0 2 1 1 0 0 1 0-2M647 58a1 1 0 1 1 0 2 1 1 0 0 1 0-2M661 58a1 1 0 1 1 0 2 1 1 0 0 1 0-2M675 58a1 1 0 1 1 0 2 1 1 0 0 1 0-2M689 58a1 1 0 1 1 0 2 1 1 0 0 1 0-2M703 58a1 1 0 1 1 0 2 1 1 0 0 1 0-2M717 58a1 1 0 1 1 0 2 1 1 0 0 1 0-2M-11 44a1 1 0 1 1 0 2 1 1 0 0 1 0-2M3 44a1 1 0 1 1 0 2 1 1 0 0 1 0-2M17 44a1 1 0 1 1 0 2 1 1 0 0 1 0-2M31 44a1 1 0 1 1 0 2 1 1 0 0 1 0-2M45 44a1 1 0 1 1 0 2 1 1 0 0 1 0-2M59 44a1 1 0 1 1 0 2 1 1 0 0 1 0-2M73 44a1 1 0 1 1 0 2 1 1 0 0 1 0-2M87 44a1 1 0 1 1 0 2 1 1 0 0 1 0-2M101 44a1 1 0 1 1 0 2 1 1 0 0 1 0-2M115 44a1 1 0 1 1 0 2 1 1 0 0 1 0-2M129 44a1 1 0 1 1 0 2 1 1 0 0 1 0-2M143 44a1 1 0 1 1 0 2 1 1 0 0 1 0-2M157 44a1 1 0 1 1 0 2 1 1 0 0 1 0-2M171 44a1 1 0 1 1 0 2 1 1 0 0 1 0-2M185 44a1 1 0 1 1 0 2 1 1 0 0 1 0-2M199 44a1 1 0 1 1 0 2 1 1 0 0 1 0-2M213 44a1 1 0 1 1 0 2 1 1 0 0 1 0-2M227 44a1 1 0 1 1 0 2 1 1 0 0 1 0-2M241 44a1 1 0 1 1 0 2 1 1 0 0 1 0-2M255 44a1 1 0 1 1 0 2 1 1 0 0 1 0-2M269 44a1 1 0 1 1 0 2 1 1 0 0 1 0-2M283 44a1 1 0 1 1 0 2 1 1 0 0 1 0-2M297 44a1 1 0 1 1 0 2 1 1 0 0 1 0-2M311 44a1 1 0 1 1 0 2 1 1 0 0 1 0-2M325 44a1 1 0 1 1 0 2 1 1 0 0 1 0-2M339 44a1 1 0 1 1 0 2 1 1 0 0 1 0-2M353 44a1 1 0 1 1 0 2 1 1 0 0 1 0-2M367 44a1 1 0 1 1 0 2 1 1 0 0 1 0-2M381 44a1 1 0 1 1 0 2 1 1 0 0 1 0-2M395 44a1 1 0 1 1 0 2 1 1 0 0 1 0-2M409 44a1 1 0 1 1 0 2 1 1 0 0 1 0-2M423 44a1 1 0 1 1 0 2 1 1 0 0 1 0-2M437 44a1 1 0 1 1 0 2 1 1 0 0 1 0-2M451 44a1 1 0 1 1 0 2 1 1 0 0 1 0-2M465 44a1 1 0 1 1 0 2 1 1 0 0 1 0-2M479 44a1 1 0 1 1 0 2 1 1 0 0 1 0-2M493 44a1 1 0 1 1 0 2 1 1 0 0 1 0-2M507 44a1 1 0 1 1 0 2 1 1 0 0 1 0-2M521 44a1 1 0 1 1 0 2 1 1 0 0 1 0-2M535 44a1 1 0 1 1 0 2 1 1 0 0 1 0-2M549 44a1 1 0 1 1 0 2 1 1 0 0 1 0-2M563 44a1 1 0 1 1 0 2 1 1 0 0 1 0-2M577 44a1 1 0 1 1 0 2 1 1 0 0 1 0-2M591 44a1 1 0 1 1 0 2 1 1 0 0 1 0-2M605 44a1 1 0 1 1 0 2 1 1 0 0 1 0-2M619 44a1 1 0 1 1 0 2 1 1 0 0 1 0-2M633 44a1 1 0 1 1 0 2 1 1 0 0 1 0-2M647 44a1 1 0 1 1 0 2 1 1 0 0 1 0-2M661 44a1 1 0 1 1 0 2 1 1 0 0 1 0-2M675 44a1 1 0 1 1 0 2 1 1 0 0 1 0-2M689 44a1 1 0 1 1 0 2 1 1 0 0 1 0-2M703 44a1 1 0 1 1 0 2 1 1 0 0 1 0-2M717 44a1 1 0 1 1 0 2 1 1 0 0 1 0-2M-11 30a1 1 0 1 1 0 2 1 1 0 0 1 0-2M3 30a1 1 0 1 1 0 2 1 1 0 0 1 0-2M17 30a1 1 0 1 1 0 2 1 1 0 0 1 0-2M31 30a1 1 0 1 1 0 2 1 1 0 0 1 0-2M45 30a1 1 0 1 1 0 2 1 1 0 0 1 0-2M59 30a1 1 0 1 1 0 2 1 1 0 0 1 0-2M73 30a1 1 0 1 1 0 2 1 1 0 0 1 0-2M87 30a1 1 0 1 1 0 2 1 1 0 0 1 0-2M101 30a1 1 0 1 1 0 2 1 1 0 0 1 0-2M115 30a1 1 0 1 1 0 2 1 1 0 0 1 0-2M129 30a1 1 0 1 1 0 2 1 1 0 0 1 0-2M143 30a1 1 0 1 1 0 2 1 1 0 0 1 0-2M157 30a1 1 0 1 1 0 2 1 1 0 0 1 0-2M171 30a1 1 0 1 1 0 2 1 1 0 0 1 0-2M185 30a1 1 0 1 1 0 2 1 1 0 0 1 0-2M199 30a1 1 0 1 1 0 2 1 1 0 0 1 0-2M213 30a1 1 0 1 1 0 2 1 1 0 0 1 0-2M227 30a1 1 0 1 1 0 2 1 1 0 0 1 0-2M241 30a1 1 0 1 1 0 2 1 1 0 0 1 0-2M255 30a1 1 0 1 1 0 2 1 1 0 0 1 0-2M269 30a1 1 0 1 1 0 2 1 1 0 0 1 0-2M283 30a1 1 0 1 1 0 2 1 1 0 0 1 0-2M297 30a1 1 0 1 1 0 2 1 1 0 0 1 0-2M311 30a1 1 0 1 1 0 2 1 1 0 0 1 0-2M325 30a1 1 0 1 1 0 2 1 1 0 0 1 0-2M339 30a1 1 0 1 1 0 2 1 1 0 0 1 0-2M353 30a1 1 0 1 1 0 2 1 1 0 0 1 0-2M367 30a1 1 0 1 1 0 2 1 1 0 0 1 0-2M381 30a1 1 0 1 1 0 2 1 1 0 0 1 0-2M395 30a1 1 0 1 1 0 2 1 1 0 0 1 0-2M409 30a1 1 0 1 1 0 2 1 1 0 0 1 0-2M423 30a1 1 0 1 1 0 2 1 1 0 0 1 0-2M437 30a1 1 0 1 1 0 2 1 1 0 0 1 0-2M451 30a1 1 0 1 1 0 2 1 1 0 0 1 0-2M465 30a1 1 0 1 1 0 2 1 1 0 0 1 0-2M479 30a1 1 0 1 1 0 2 1 1 0 0 1 0-2M493 30a1 1 0 1 1 0 2 1 1 0 0 1 0-2M507 30a1 1 0 1 1 0 2 1 1 0 0 1 0-2M521 30a1 1 0 1 1 0 2 1 1 0 0 1 0-2M535 30a1 1 0 1 1 0 2 1 1 0 0 1 0-2M549 30a1 1 0 1 1 0 2 1 1 0 0 1 0-2M563 30a1 1 0 1 1 0 2 1 1 0 0 1 0-2M577 30a1 1 0 1 1 0 2 1 1 0 0 1 0-2M591 30a1 1 0 1 1 0 2 1 1 0 0 1 0-2M605 30a1 1 0 1 1 0 2 1 1 0 0 1 0-2M619 30a1 1 0 1 1 0 2 1 1 0 0 1 0-2M633 30a1 1 0 1 1 0 2 1 1 0 0 1 0-2M647 30a1 1 0 1 1 0 2 1 1 0 0 1 0-2M661 30a1 1 0 1 1 0 2 1 1 0 0 1 0-2M675 30a1 1 0 1 1 0 2 1 1 0 0 1 0-2M689 30a1 1 0 1 1 0 2 1 1 0 0 1 0-2M703 30a1 1 0 1 1 0 2 1 1 0 0 1 0-2M717 30a1 1 0 1 1 0 2 1 1 0 0 1 0-2M-11 16a1 1 0 1 1 0 2 1 1 0 0 1 0-2M3 16a1 1 0 1 1 0 2 1 1 0 0 1 0-2M17 16a1 1 0 1 1 0 2 1 1 0 0 1 0-2M31 16a1 1 0 1 1 0 2 1 1 0 0 1 0-2M45 16a1 1 0 1 1 0 2 1 1 0 0 1 0-2M59 16a1 1 0 1 1 0 2 1 1 0 0 1 0-2M73 16a1 1 0 1 1 0 2 1 1 0 0 1 0-2M87 16a1 1 0 1 1 0 2 1 1 0 0 1 0-2M101 16a1 1 0 1 1 0 2 1 1 0 0 1 0-2M115 16a1 1 0 1 1 0 2 1 1 0 0 1 0-2M129 16a1 1 0 1 1 0 2 1 1 0 0 1 0-2M143 16a1 1 0 1 1 0 2 1 1 0 0 1 0-2M157 16a1 1 0 1 1 0 2 1 1 0 0 1 0-2M171 16a1 1 0 1 1 0 2 1 1 0 0 1 0-2M185 16a1 1 0 1 1 0 2 1 1 0 0 1 0-2M199 16a1 1 0 1 1 0 2 1 1 0 0 1 0-2M213 16a1 1 0 1 1 0 2 1 1 0 0 1 0-2M227 16a1 1 0 1 1 0 2 1 1 0 0 1 0-2M241 16a1 1 0 1 1 0 2 1 1 0 0 1 0-2M255 16a1 1 0 1 1 0 2 1 1 0 0 1 0-2M269 16a1 1 0 1 1 0 2 1 1 0 0 1 0-2M283 16a1 1 0 1 1 0 2 1 1 0 0 1 0-2M297 16a1 1 0 1 1 0 2 1 1 0 0 1 0-2M311 16a1 1 0 1 1 0 2 1 1 0 0 1 0-2M325 16a1 1 0 1 1 0 2 1 1 0 0 1 0-2M339 16a1 1 0 1 1 0 2 1 1 0 0 1 0-2M353 16a1 1 0 1 1 0 2 1 1 0 0 1 0-2M367 16a1 1 0 1 1 0 2 1 1 0 0 1 0-2M381 16a1 1 0 1 1 0 2 1 1 0 0 1 0-2M395 16a1 1 0 1 1 0 2 1 1 0 0 1 0-2M409 16a1 1 0 1 1 0 2 1 1 0 0 1 0-2M423 16a1 1 0 1 1 0 2 1 1 0 0 1 0-2M437 16a1 1 0 1 1 0 2 1 1 0 0 1 0-2M451 16a1 1 0 1 1 0 2 1 1 0 0 1 0-2M465 16a1 1 0 1 1 0 2 1 1 0 0 1 0-2M479 16a1 1 0 1 1 0 2 1 1 0 0 1 0-2M493 16a1 1 0 1 1 0 2 1 1 0 0 1 0-2M507 16a1 1 0 1 1 0 2 1 1 0 0 1 0-2M521 16a1 1 0 1 1 0 2 1 1 0 0 1 0-2M535 16a1 1 0 1 1 0 2 1 1 0 0 1 0-2M549 16a1 1 0 1 1 0 2 1 1 0 0 1 0-2M563 16a1 1 0 1 1 0 2 1 1 0 0 1 0-2M577 16a1 1 0 1 1 0 2 1 1 0 0 1 0-2M591 16a1 1 0 1 1 0 2 1 1 0 0 1 0-2M605 16a1 1 0 1 1 0 2 1 1 0 0 1 0-2M619 16a1 1 0 1 1 0 2 1 1 0 0 1 0-2M633 16a1 1 0 1 1 0 2 1 1 0 0 1 0-2M647 16a1 1 0 1 1 0 2 1 1 0 0 1 0-2M661 16a1 1 0 1 1 0 2 1 1 0 0 1 0-2M675 16a1 1 0 1 1 0 2 1 1 0 0 1 0-2M689 16a1 1 0 1 1 0 2 1 1 0 0 1 0-2M703 16a1 1 0 1 1 0 2 1 1 0 0 1 0-2M717 16a1 1 0 1 1 0 2 1 1 0 0 1 0-2M-11 2a1 1 0 1 1 0 2 1 1 0 0 1 0-2M3 2a1 1 0 1 1 0 2 1 1 0 0 1 0-2M17 2a1 1 0 1 1 0 2 1 1 0 0 1 0-2M31 2a1 1 0 1 1 0 2 1 1 0 0 1 0-2M45 2a1 1 0 1 1 0 2 1 1 0 0 1 0-2M59 2a1 1 0 1 1 0 2 1 1 0 0 1 0-2M73 2a1 1 0 1 1 0 2 1 1 0 0 1 0-2M87 2a1 1 0 1 1 0 2 1 1 0 0 1 0-2M101 2a1 1 0 1 1 0 2 1 1 0 0 1 0-2M115 2a1 1 0 1 1 0 2 1 1 0 0 1 0-2M129 2a1 1 0 1 1 0 2 1 1 0 0 1 0-2M143 2a1 1 0 1 1 0 2 1 1 0 0 1 0-2M157 2a1 1 0 1 1 0 2 1 1 0 0 1 0-2M171 2a1 1 0 1 1 0 2 1 1 0 0 1 0-2M185 2a1 1 0 1 1 0 2 1 1 0 0 1 0-2M199 2a1 1 0 1 1 0 2 1 1 0 0 1 0-2M213 2a1 1 0 1 1 0 2 1 1 0 0 1 0-2M227 2a1 1 0 1 1 0 2 1 1 0 0 1 0-2M241 2a1 1 0 1 1 0 2 1 1 0 0 1 0-2M255 2a1 1 0 1 1 0 2 1 1 0 0 1 0-2M269 2a1 1 0 1 1 0 2 1 1 0 0 1 0-2M283 2a1 1 0 1 1 0 2 1 1 0 0 1 0-2M297 2a1 1 0 1 1 0 2 1 1 0 0 1 0-2M311 2a1 1 0 1 1 0 2 1 1 0 0 1 0-2M325 2a1 1 0 1 1 0 2 1 1 0 0 1 0-2M339 2a1 1 0 1 1 0 2 1 1 0 0 1 0-2M353 2a1 1 0 1 1 0 2 1 1 0 0 1 0-2M367 2a1 1 0 1 1 0 2 1 1 0 0 1 0-2M381 2a1 1 0 1 1 0 2 1 1 0 0 1 0-2M395 2a1 1 0 1 1 0 2 1 1 0 0 1 0-2M409 2a1 1 0 1 1 0 2 1 1 0 0 1 0-2M423 2a1 1 0 1 1 0 2 1 1 0 0 1 0-2M437 2a1 1 0 1 1 0 2 1 1 0 0 1 0-2M451 2a1 1 0 1 1 0 2 1 1 0 0 1 0-2M465 2a1 1 0 1 1 0 2 1 1 0 0 1 0-2M479 2a1 1 0 1 1 0 2 1 1 0 0 1 0-2M493 2a1 1 0 1 1 0 2 1 1 0 0 1 0-2M507 2a1 1 0 1 1 0 2 1 1 0 0 1 0-2M521 2a1 1 0 1 1 0 2 1 1 0 0 1 0-2M535 2a1 1 0 1 1 0 2 1 1 0 0 1 0-2M549 2a1 1 0 1 1 0 2 1 1 0 0 1 0-2M563 2a1 1 0 1 1 0 2 1 1 0 0 1 0-2M577 2a1 1 0 1 1 0 2 1 1 0 0 1 0-2M591 2a1 1 0 1 1 0 2 1 1 0 0 1 0-2M605 2a1 1 0 1 1 0 2 1 1 0 0 1 0-2M619 2a1 1 0 1 1 0 2 1 1 0 0 1 0-2M633 2a1 1 0 1 1 0 2 1 1 0 0 1 0-2M647 2a1 1 0 1 1 0 2 1 1 0 0 1 0-2M661 2a1 1 0 1 1 0 2 1 1 0 0 1 0-2M675 2a1 1 0 1 1 0 2 1 1 0 0 1 0-2M689 2a1 1 0 1 1 0 2 1 1 0 0 1 0-2M703 2a1 1 0 1 1 0 2 1 1 0 0 1 0-2M717 2a1 1 0 1 1 0 2 1 1 0 0 1 0-2M-11-12a1 1 0 1 1 0 2 1 1 0 0 1 0-2M3-12a1 1 0 1 1 0 2 1 1 0 0 1 0-2M17-12a1 1 0 1 1 0 2 1 1 0 0 1 0-2M31-12a1 1 0 1 1 0 2 1 1 0 0 1 0-2M45-12a1 1 0 1 1 0 2 1 1 0 0 1 0-2M59-12a1 1 0 1 1 0 2 1 1 0 0 1 0-2M73-12a1 1 0 1 1 0 2 1 1 0 0 1 0-2M87-12a1 1 0 1 1 0 2 1 1 0 0 1 0-2M101-12a1 1 0 1 1 0 2 1 1 0 0 1 0-2M115-12a1 1 0 1 1 0 2 1 1 0 0 1 0-2M129-12a1 1 0 1 1 0 2 1 1 0 0 1 0-2M143-12a1 1 0 1 1 0 2 1 1 0 0 1 0-2M157-12a1 1 0 1 1 0 2 1 1 0 0 1 0-2M171-12a1 1 0 1 1 0 2 1 1 0 0 1 0-2M185-12a1 1 0 1 1 0 2 1 1 0 0 1 0-2M199-12a1 1 0 1 1 0 2 1 1 0 0 1 0-2M213-12a1 1 0 1 1 0 2 1 1 0 0 1 0-2M227-12a1 1 0 1 1 0 2 1 1 0 0 1 0-2M241-12a1 1 0 1 1 0 2 1 1 0 0 1 0-2M255-12a1 1 0 1 1 0 2 1 1 0 0 1 0-2M269-12a1 1 0 1 1 0 2 1 1 0 0 1 0-2M283-12a1 1 0 1 1 0 2 1 1 0 0 1 0-2M297-12a1 1 0 1 1 0 2 1 1 0 0 1 0-2M311-12a1 1 0 1 1 0 2 1 1 0 0 1 0-2M325-12a1 1 0 1 1 0 2 1 1 0 0 1 0-2M339-12a1 1 0 1 1 0 2 1 1 0 0 1 0-2M353-12a1 1 0 1 1 0 2 1 1 0 0 1 0-2M367-12a1 1 0 1 1 0 2 1 1 0 0 1 0-2M381-12a1 1 0 1 1 0 2 1 1 0 0 1 0-2M395-12a1 1 0 1 1 0 2 1 1 0 0 1 0-2M409-12a1 1 0 1 1 0 2 1 1 0 0 1 0-2M423-12a1 1 0 1 1 0 2 1 1 0 0 1 0-2M437-12a1 1 0 1 1 0 2 1 1 0 0 1 0-2M451-12a1 1 0 1 1 0 2 1 1 0 0 1 0-2M465-12a1 1 0 1 1 0 2 1 1 0 0 1 0-2M479-12a1 1 0 1 1 0 2 1 1 0 0 1 0-2M493-12a1 1 0 1 1 0 2 1 1 0 0 1 0-2M507-12a1 1 0 1 1 0 2 1 1 0 0 1 0-2M521-12a1 1 0 1 1 0 2 1 1 0 0 1 0-2M535-12a1 1 0 1 1 0 2 1 1 0 0 1 0-2M549-12a1 1 0 1 1 0 2 1 1 0 0 1 0-2M563-12a1 1 0 1 1 0 2 1 1 0 0 1 0-2M577-12a1 1 0 1 1 0 2 1 1 0 0 1 0-2M591-12a1 1 0 1 1 0 2 1 1 0 0 1 0-2M605-12a1 1 0 1 1 0 2 1 1 0 0 1 0-2M619-12a1 1 0 1 1 0 2 1 1 0 0 1 0-2M633-12a1 1 0 1 1 0 2 1 1 0 0 1 0-2M647-12a1 1 0 1 1 0 2 1 1 0 0 1 0-2M661-12a1 1 0 1 1 0 2 1 1 0 0 1 0-2M675-12a1 1 0 1 1 0 2 1 1 0 0 1 0-2M689-12a1 1 0 1 1 0 2 1 1 0 0 1 0-2M703-12a1 1 0 1 1 0 2 1 1 0 0 1 0-2M717-12a1 1 0 1 1 0 2 1 1 0 0 1 0-2M-11-26a1 1 0 1 1 0 2 1 1 0 0 1 0-2M3-26a1 1 0 1 1 0 2 1 1 0 0 1 0-2M17-26a1 1 0 1 1 0 2 1 1 0 0 1 0-2M31-26a1 1 0 1 1 0 2 1 1 0 0 1 0-2M45-26a1 1 0 1 1 0 2 1 1 0 0 1 0-2M59-26a1 1 0 1 1 0 2 1 1 0 0 1 0-2M73-26a1 1 0 1 1 0 2 1 1 0 0 1 0-2M87-26a1 1 0 1 1 0 2 1 1 0 0 1 0-2M101-26a1 1 0 1 1 0 2 1 1 0 0 1 0-2M115-26a1 1 0 1 1 0 2 1 1 0 0 1 0-2M129-26a1 1 0 1 1 0 2 1 1 0 0 1 0-2M143-26a1 1 0 1 1 0 2 1 1 0 0 1 0-2M157-26a1 1 0 1 1 0 2 1 1 0 0 1 0-2M171-26a1 1 0 1 1 0 2 1 1 0 0 1 0-2M185-26a1 1 0 1 1 0 2 1 1 0 0 1 0-2M199-26a1 1 0 1 1 0 2 1 1 0 0 1 0-2M213-26a1 1 0 1 1 0 2 1 1 0 0 1 0-2M227-26a1 1 0 1 1 0 2 1 1 0 0 1 0-2M241-26a1 1 0 1 1 0 2 1 1 0 0 1 0-2M255-26a1 1 0 1 1 0 2 1 1 0 0 1 0-2M269-26a1 1 0 1 1 0 2 1 1 0 0 1 0-2M283-26a1 1 0 1 1 0 2 1 1 0 0 1 0-2M297-26a1 1 0 1 1 0 2 1 1 0 0 1 0-2M311-26a1 1 0 1 1 0 2 1 1 0 0 1 0-2M325-26a1 1 0 1 1 0 2 1 1 0 0 1 0-2M339-26a1 1 0 1 1 0 2 1 1 0 0 1 0-2M353-26a1 1 0 1 1 0 2 1 1 0 0 1 0-2M367-26a1 1 0 1 1 0 2 1 1 0 0 1 0-2M381-26a1 1 0 1 1 0 2 1 1 0 0 1 0-2M395-26a1 1 0 1 1 0 2 1 1 0 0 1 0-2M409-26a1 1 0 1 1 0 2 1 1 0 0 1 0-2M423-26a1 1 0 1 1 0 2 1 1 0 0 1 0-2M437-26a1 1 0 1 1 0 2 1 1 0 0 1 0-2M451-26a1 1 0 1 1 0 2 1 1 0 0 1 0-2M465-26a1 1 0 1 1 0 2 1 1 0 0 1 0-2M479-26a1 1 0 1 1 0 2 1 1 0 0 1 0-2M493-26a1 1 0 1 1 0 2 1 1 0 0 1 0-2M507-26a1 1 0 1 1 0 2 1 1 0 0 1 0-2M521-26a1 1 0 1 1 0 2 1 1 0 0 1 0-2M535-26a1 1 0 1 1 0 2 1 1 0 0 1 0-2M549-26a1 1 0 1 1 0 2 1 1 0 0 1 0-2M563-26a1 1 0 1 1 0 2 1 1 0 0 1 0-2M577-26a1 1 0 1 1 0 2 1 1 0 0 1 0-2M591-26a1 1 0 1 1 0 2 1 1 0 0 1 0-2M605-26a1 1 0 1 1 0 2 1 1 0 0 1 0-2M619-26a1 1 0 1 1 0 2 1 1 0 0 1 0-2M633-26a1 1 0 1 1 0 2 1 1 0 0 1 0-2M647-26a1 1 0 1 1 0 2 1 1 0 0 1 0-2M661-26a1 1 0 1 1 0 2 1 1 0 0 1 0-2M675-26a1 1 0 1 1 0 2 1 1 0 0 1 0-2M689-26a1 1 0 1 1 0 2 1 1 0 0 1 0-2M703-26a1 1 0 1 1 0 2 1 1 0 0 1 0-2M717-26a1 1 0 1 1 0 2 1 1 0 0 1 0-2M-11-40a1 1 0 1 1 0 2 1 1 0 0 1 0-2M3-40a1 1 0 1 1 0 2 1 1 0 0 1 0-2M17-40a1 1 0 1 1 0 2 1 1 0 0 1 0-2M31-40a1 1 0 1 1 0 2 1 1 0 0 1 0-2M45-40a1 1 0 1 1 0 2 1 1 0 0 1 0-2M59-40a1 1 0 1 1 0 2 1 1 0 0 1 0-2M73-40a1 1 0 1 1 0 2 1 1 0 0 1 0-2M87-40a1 1 0 1 1 0 2 1 1 0 0 1 0-2M101-40a1 1 0 1 1 0 2 1 1 0 0 1 0-2M115-40a1 1 0 1 1 0 2 1 1 0 0 1 0-2M129-40a1 1 0 1 1 0 2 1 1 0 0 1 0-2M143-40a1 1 0 1 1 0 2 1 1 0 0 1 0-2M157-40a1 1 0 1 1 0 2 1 1 0 0 1 0-2M171-40a1 1 0 1 1 0 2 1 1 0 0 1 0-2M185-40a1 1 0 1 1 0 2 1 1 0 0 1 0-2M199-40a1 1 0 1 1 0 2 1 1 0 0 1 0-2M213-40a1 1 0 1 1 0 2 1 1 0 0 1 0-2M227-40a1 1 0 1 1 0 2 1 1 0 0 1 0-2M241-40a1 1 0 1 1 0 2 1 1 0 0 1 0-2M255-40a1 1 0 1 1 0 2 1 1 0 0 1 0-2M269-40a1 1 0 1 1 0 2 1 1 0 0 1 0-2M283-40a1 1 0 1 1 0 2 1 1 0 0 1 0-2M297-40a1 1 0 1 1 0 2 1 1 0 0 1 0-2M311-40a1 1 0 1 1 0 2 1 1 0 0 1 0-2M325-40a1 1 0 1 1 0 2 1 1 0 0 1 0-2M339-40a1 1 0 1 1 0 2 1 1 0 0 1 0-2M353-40a1 1 0 1 1 0 2 1 1 0 0 1 0-2M367-40a1 1 0 1 1 0 2 1 1 0 0 1 0-2M381-40a1 1 0 1 1 0 2 1 1 0 0 1 0-2M395-40a1 1 0 1 1 0 2 1 1 0 0 1 0-2M409-40a1 1 0 1 1 0 2 1 1 0 0 1 0-2M423-40a1 1 0 1 1 0 2 1 1 0 0 1 0-2M437-40a1 1 0 1 1 0 2 1 1 0 0 1 0-2M451-40a1 1 0 1 1 0 2 1 1 0 0 1 0-2M465-40a1 1 0 1 1 0 2 1 1 0 0 1 0-2M479-40a1 1 0 1 1 0 2 1 1 0 0 1 0-2M493-40a1 1 0 1 1 0 2 1 1 0 0 1 0-2M507-40a1 1 0 1 1 0 2 1 1 0 0 1 0-2M521-40a1 1 0 1 1 0 2 1 1 0 0 1 0-2M535-40a1 1 0 1 1 0 2 1 1 0 0 1 0-2M549-40a1 1 0 1 1 0 2 1 1 0 0 1 0-2M563-40a1 1 0 1 1 0 2 1 1 0 0 1 0-2M577-40a1 1 0 1 1 0 2 1 1 0 0 1 0-2M591-40a1 1 0 1 1 0 2 1 1 0 0 1 0-2M605-40a1 1 0 1 1 0 2 1 1 0 0 1 0-2M619-40a1 1 0 1 1 0 2 1 1 0 0 1 0-2M633-40a1 1 0 1 1 0 2 1 1 0 0 1 0-2M647-40a1 1 0 1 1 0 2 1 1 0 0 1 0-2M661-40a1 1 0 1 1 0 2 1 1 0 0 1 0-2M675-40a1 1 0 1 1 0 2 1 1 0 0 1 0-2M689-40a1 1 0 1 1 0 2 1 1 0 0 1 0-2M703-40a1 1 0 1 1 0 2 1 1 0 0 1 0-2M717-40a1 1 0 1 1 0 2 1 1 0 0 1 0-2M-11-54a1 1 0 1 1 0 2 1 1 0 0 1 0-2M3-54a1 1 0 1 1 0 2 1 1 0 0 1 0-2M17-54a1 1 0 1 1 0 2 1 1 0 0 1 0-2M31-54a1 1 0 1 1 0 2 1 1 0 0 1 0-2M45-54a1 1 0 1 1 0 2 1 1 0 0 1 0-2M59-54a1 1 0 1 1 0 2 1 1 0 0 1 0-2M73-54a1 1 0 1 1 0 2 1 1 0 0 1 0-2M87-54a1 1 0 1 1 0 2 1 1 0 0 1 0-2M101-54a1 1 0 1 1 0 2 1 1 0 0 1 0-2M115-54a1 1 0 1 1 0 2 1 1 0 0 1 0-2M129-54a1 1 0 1 1 0 2 1 1 0 0 1 0-2M143-54a1 1 0 1 1 0 2 1 1 0 0 1 0-2M157-54a1 1 0 1 1 0 2 1 1 0 0 1 0-2M171-54a1 1 0 1 1 0 2 1 1 0 0 1 0-2M185-54a1 1 0 1 1 0 2 1 1 0 0 1 0-2M199-54a1 1 0 1 1 0 2 1 1 0 0 1 0-2M213-54a1 1 0 1 1 0 2 1 1 0 0 1 0-2M227-54a1 1 0 1 1 0 2 1 1 0 0 1 0-2M241-54a1 1 0 1 1 0 2 1 1 0 0 1 0-2M255-54a1 1 0 1 1 0 2 1 1 0 0 1 0-2M269-54a1 1 0 1 1 0 2 1 1 0 0 1 0-2M283-54a1 1 0 1 1 0 2 1 1 0 0 1 0-2M297-54a1 1 0 1 1 0 2 1 1 0 0 1 0-2M311-54a1 1 0 1 1 0 2 1 1 0 0 1 0-2M325-54a1 1 0 1 1 0 2 1 1 0 0 1 0-2M339-54a1 1 0 1 1 0 2 1 1 0 0 1 0-2M353-54a1 1 0 1 1 0 2 1 1 0 0 1 0-2M367-54a1 1 0 1 1 0 2 1 1 0 0 1 0-2M381-54a1 1 0 1 1 0 2 1 1 0 0 1 0-2M395-54a1 1 0 1 1 0 2 1 1 0 0 1 0-2M409-54a1 1 0 1 1 0 2 1 1 0 0 1 0-2M423-54a1 1 0 1 1 0 2 1 1 0 0 1 0-2M437-54a1 1 0 1 1 0 2 1 1 0 0 1 0-2M451-54a1 1 0 1 1 0 2 1 1 0 0 1 0-2M465-54a1 1 0 1 1 0 2 1 1 0 0 1 0-2M479-54a1 1 0 1 1 0 2 1 1 0 0 1 0-2M493-54a1 1 0 1 1 0 2 1 1 0 0 1 0-2M507-54a1 1 0 1 1 0 2 1 1 0 0 1 0-2M521-54a1 1 0 1 1 0 2 1 1 0 0 1 0-2M535-54a1 1 0 1 1 0 2 1 1 0 0 1 0-2M549-54a1 1 0 1 1 0 2 1 1 0 0 1 0-2M563-54a1 1 0 1 1 0 2 1 1 0 0 1 0-2M577-54a1 1 0 1 1 0 2 1 1 0 0 1 0-2M591-54a1 1 0 1 1 0 2 1 1 0 0 1 0-2M605-54a1 1 0 1 1 0 2 1 1 0 0 1 0-2M619-54a1 1 0 1 1 0 2 1 1 0 0 1 0-2M633-54a1 1 0 1 1 0 2 1 1 0 0 1 0-2M647-54a1 1 0 1 1 0 2 1 1 0 0 1 0-2M661-54a1 1 0 1 1 0 2 1 1 0 0 1 0-2M675-54a1 1 0 1 1 0 2 1 1 0 0 1 0-2M689-54a1 1 0 1 1 0 2 1 1 0 0 1 0-2M703-54a1 1 0 1 1 0 2 1 1 0 0 1 0-2M717-54a1 1 0 1 1 0 2 1 1 0 0 1 0-2M-11-68a1 1 0 1 1 0 2 1 1 0 0 1 0-2M3-68a1 1 0 1 1 0 2 1 1 0 0 1 0-2M17-68a1 1 0 1 1 0 2 1 1 0 0 1 0-2M31-68a1 1 0 1 1 0 2 1 1 0 0 1 0-2M45-68a1 1 0 1 1 0 2 1 1 0 0 1 0-2M59-68a1 1 0 1 1 0 2 1 1 0 0 1 0-2M73-68a1 1 0 1 1 0 2 1 1 0 0 1 0-2M87-68a1 1 0 1 1 0 2 1 1 0 0 1 0-2M101-68a1 1 0 1 1 0 2 1 1 0 0 1 0-2M115-68a1 1 0 1 1 0 2 1 1 0 0 1 0-2M129-68a1 1 0 1 1 0 2 1 1 0 0 1 0-2M143-68a1 1 0 1 1 0 2 1 1 0 0 1 0-2M157-68a1 1 0 1 1 0 2 1 1 0 0 1 0-2M171-68a1 1 0 1 1 0 2 1 1 0 0 1 0-2M185-68a1 1 0 1 1 0 2 1 1 0 0 1 0-2M199-68a1 1 0 1 1 0 2 1 1 0 0 1 0-2M213-68a1 1 0 1 1 0 2 1 1 0 0 1 0-2M227-68a1 1 0 1 1 0 2 1 1 0 0 1 0-2M241-68a1 1 0 1 1 0 2 1 1 0 0 1 0-2M255-68a1 1 0 1 1 0 2 1 1 0 0 1 0-2M269-68a1 1 0 1 1 0 2 1 1 0 0 1 0-2M283-68a1 1 0 1 1 0 2 1 1 0 0 1 0-2M297-68a1 1 0 1 1 0 2 1 1 0 0 1 0-2M311-68a1 1 0 1 1 0 2 1 1 0 0 1 0-2M325-68a1 1 0 1 1 0 2 1 1 0 0 1 0-2M339-68a1 1 0 1 1 0 2 1 1 0 0 1 0-2M353-68a1 1 0 1 1 0 2 1 1 0 0 1 0-2M367-68a1 1 0 1 1 0 2 1 1 0 0 1 0-2M381-68a1 1 0 1 1 0 2 1 1 0 0 1 0-2M395-68a1 1 0 1 1 0 2 1 1 0 0 1 0-2M409-68a1 1 0 1 1 0 2 1 1 0 0 1 0-2M423-68a1 1 0 1 1 0 2 1 1 0 0 1 0-2M437-68a1 1 0 1 1 0 2 1 1 0 0 1 0-2M451-68a1 1 0 1 1 0 2 1 1 0 0 1 0-2M465-68a1 1 0 1 1 0 2 1 1 0 0 1 0-2M479-68a1 1 0 1 1 0 2 1 1 0 0 1 0-2M493-68a1 1 0 1 1 0 2 1 1 0 0 1 0-2M507-68a1 1 0 1 1 0 2 1 1 0 0 1 0-2M521-68a1 1 0 1 1 0 2 1 1 0 0 1 0-2M535-68a1 1 0 1 1 0 2 1 1 0 0 1 0-2M549-68a1 1 0 1 1 0 2 1 1 0 0 1 0-2M563-68a1 1 0 1 1 0 2 1 1 0 0 1 0-2M577-68a1 1 0 1 1 0 2 1 1 0 0 1 0-2M591-68a1 1 0 1 1 0 2 1 1 0 0 1 0-2M605-68a1 1 0 1 1 0 2 1 1 0 0 1 0-2M619-68a1 1 0 1 1 0 2 1 1 0 0 1 0-2M633-68a1 1 0 1 1 0 2 1 1 0 0 1 0-2M647-68a1 1 0 1 1 0 2 1 1 0 0 1 0-2M661-68a1 1 0 1 1 0 2 1 1 0 0 1 0-2M675-68a1 1 0 1 1 0 2 1 1 0 0 1 0-2M689-68a1 1 0 1 1 0 2 1 1 0 0 1 0-2M703-68a1 1 0 1 1 0 2 1 1 0 0 1 0-2M717-68a1 1 0 1 1 0 2 1 1 0 0 1 0-2"/></g><rect width="122" height="27" x="35.5" y="14.5" fill="#edd1fa" rx="3.5"/><rect width="122" height="27" x="35.5" y="14.5" stroke="#bb3df5" rx="3.5"/><g clip-path="url(#c)"><path fill="#660891" d="M50.96 21.334a2 2 0 0 1 1.633.85l.07.108 5.618 9.377.005.01a1.994 1.994 0 0 1-.715 2.712c-.3.177-.64.271-.988.275l-.007.001H45.338a1.993 1.993 0 0 1-1.703-2.989l.005-.009 5.615-9.374.002-.003a1.99 1.99 0 0 1 1.704-.958m0 1.333a.66.66 0 0 0-.563.317l-5.608 9.36a.66.66 0 0 0 .556.99h11.23a.66.66 0 0 0 .557-.99l-5.608-9.36a.66.66 0 0 0-.563-.317m.047 8a.667.667 0 0 1 0 1.333H51a.667.667 0 0 1 0-1.334zm-.673-2V26a.667.667 0 0 1 1.333 0v2.666a.667.667 0 0 1-1.333 0"/></g><path fill="#17181c" d="M65.982 32.5h-1.688l3.073-8.727h1.951l3.077 8.727h-1.688l-2.33-6.937h-.069zm.055-3.422h4.602v1.27h-4.602zm8.982-5.305V32.5h-1.543v-8.727zm3.47 8.86q-.623 0-1.121-.223a1.83 1.83 0 0 1-.784-.664q-.285-.44-.286-1.083 0-.553.205-.916.204-.361.558-.58.354-.217.797-.328.447-.114.925-.166.575-.06.933-.106.358-.05.52-.154.166-.106.166-.328v-.025q0-.482-.285-.746t-.823-.264q-.566 0-.9.247-.328.248-.442.584l-1.44-.205q.17-.597.562-.997.391-.405.959-.605a3.7 3.7 0 0 1 1.252-.205q.474 0 .942.111.469.11.857.367.387.25.622.686.24.435.239 1.086V32.5h-1.483v-.9h-.052a1.9 1.9 0 0 1-.396.512q-.252.235-.635.38-.38.14-.89.14m.4-1.134q.465 0 .806-.184.34-.188.524-.494.187-.307.187-.669v-.771a.7.7 0 0 1-.247.11 4 4 0 0 1-.383.09q-.213.038-.422.068l-.362.051q-.346.048-.618.154-.273.106-.43.298a.73.73 0 0 0-.159.486q0 .426.312.643.31.218.792.218m4.607 1.001v-6.546h1.496v1.092h.068q.178-.568.613-.874a1.7 1.7 0 0 1 1.002-.311q.127 0 .285.013.162.008.269.03v1.418a1.6 1.6 0 0 0-.311-.06 3 3 0 0 0-.405-.029 1.56 1.56 0 0 0-.759.183q-.332.18-.524.499a1.4 1.4 0 0 0-.192.737V32.5zm4.758 0v-6.546h1.474v1.113h.077q.204-.563.677-.878.474-.32 1.13-.32.664 0 1.12.324.46.32.648.874h.068a1.8 1.8 0 0 1 .733-.87q.52-.328 1.232-.328.903 0 1.474.571.57.571.571 1.666V32.5h-1.547v-4.155q0-.61-.324-.89a1.16 1.16 0 0 0-.792-.286q-.559 0-.874.35-.31.345-.31.899V32.5h-1.514v-4.219q0-.507-.306-.81-.303-.302-.793-.302-.332 0-.605.17a1.2 1.2 0 0 0-.435.474 1.5 1.5 0 0 0-.162.707v3.98zm21.284-5.783h-1.594a2 2 0 0 0-.251-.694 1.86 1.86 0 0 0-1.078-.84 2.4 2.4 0 0 0-.746-.11q-.712 0-1.261.357-.55.354-.861 1.04-.311.682-.311 1.666 0 1.002.311 1.688.315.681.861 1.031.549.345 1.257.345.391 0 .733-.102a2 2 0 0 0 .618-.311q.276-.204.464-.503a1.9 1.9 0 0 0 .264-.682l1.594.009q-.09.622-.388 1.167a3.4 3.4 0 0 1-.771.963q-.477.414-1.117.648-.639.23-1.419.23-1.15 0-2.054-.532-.903-.533-1.423-1.539t-.52-2.412q0-1.41.524-2.412.525-1.005 1.428-1.538t2.045-.533q.729 0 1.356.205.626.205 1.116.6.49.393.805.964.32.567.418 1.295m1.38 5.783v-6.546h1.495v1.092h.069q.178-.568.613-.874a1.7 1.7 0 0 1 1.002-.311q.127 0 .285.013.162.008.269.03v1.418a1.6 1.6 0 0 0-.312-.06 3 3 0 0 0-.404-.029q-.422 0-.759.183-.332.18-.524.499a1.4 1.4 0 0 0-.192.737V32.5zm7.386.128q-.985 0-1.701-.41a2.78 2.78 0 0 1-1.095-1.167q-.383-.757-.383-1.785 0-1.011.383-1.773.388-.767 1.083-1.193.694-.43 1.632-.43.605 0 1.142.195.54.192.954.597.418.405.656 1.031.24.623.239 1.483v.473h-5.365v-1.04h3.886a1.65 1.65 0 0 0-.191-.788 1.4 1.4 0 0 0-.524-.55 1.5 1.5 0 0 0-.776-.2q-.472 0-.831.23-.359.226-.558.597a1.7 1.7 0 0 0-.201.805v.908q0 .57.209.98.209.405.584.622.375.213.878.213.336 0 .609-.094.273-.097.473-.285.201-.187.303-.465l1.44.162q-.136.571-.52.997-.379.422-.971.657-.593.23-1.355.23m6.099.004a2.7 2.7 0 0 1-1.121-.221 1.83 1.83 0 0 1-.784-.665q-.285-.44-.286-1.083 0-.553.205-.916.204-.361.558-.58.354-.217.797-.328.448-.114.925-.166.575-.06.933-.106.358-.05.52-.154.166-.106.166-.328v-.025q0-.482-.285-.746-.286-.264-.823-.264-.567 0-.899.247a1.2 1.2 0 0 0-.443.584l-1.441-.205q.171-.597.563-.997.392-.405.959-.605a3.7 3.7 0 0 1 1.253-.205q.473 0 .941.111.469.11.857.367.388.25.622.686.239.435.239 1.086V32.5h-1.483v-.9h-.051a1.88 1.88 0 0 1-1.032.892q-.379.14-.89.14m.4-1.133q.465 0 .806-.184.34-.188.524-.494.187-.307.187-.669v-.771a.7.7 0 0 1-.247.11 4 4 0 0 1-.383.09q-.213.038-.422.068l-.362.051a2.7 2.7 0 0 0-.618.154q-.273.106-.431.298a.73.73 0 0 0-.157.486q0 .426.311.643.31.218.792.218m7.875-5.544v1.193h-3.763v-1.194zm-2.834-1.569h1.543v6.145q0 .312.094.478.097.16.256.221.157.06.349.06.146 0 .264-.021.124-.022.188-.039l.26 1.206q-.124.043-.354.094a3 3 0 0 1-.554.06 2.5 2.5 0 0 1-1.044-.175 1.6 1.6 0 0 1-.737-.605q-.268-.41-.265-1.023zm6.952 8.242q-.984 0-1.7-.41A2.77 2.77 0 0 1 134 31.052q-.383-.757-.383-1.785 0-1.011.383-1.773.388-.767 1.083-1.193.694-.43 1.632-.43.605 0 1.142.195.542.192.954.597.418.405.657 1.031.238.623.238 1.483v.473h-5.365v-1.04h3.887a1.66 1.66 0 0 0-.192-.788 1.4 1.4 0 0 0-.524-.55q-.332-.2-.776-.2-.473 0-.831.23-.358.226-.558.597a1.7 1.7 0 0 0-.2.805v.908q0 .57.208.98.21.405.584.622.375.213.878.213.337 0 .609-.094.273-.097.474-.285t.302-.465l1.44.162q-.137.571-.519.997-.38.422-.972.657-.593.23-1.355.23m6.644-.013q-.771 0-1.38-.396-.61-.397-.963-1.15-.354-.755-.354-1.833 0-1.09.358-1.841.362-.754.976-1.138a2.5 2.5 0 0 1 1.368-.388q.574 0 .946.196.37.192.588.465.218.268.336.507h.064v-3.264h1.547V32.5h-1.517v-1.031h-.094a2.6 2.6 0 0 1-.345.507q-.225.264-.596.452-.372.187-.934.187m.431-1.266q.49 0 .835-.264a1.65 1.65 0 0 0 .524-.745q.179-.479.179-1.113t-.179-1.103a1.57 1.57 0 0 0-.52-.73q-.34-.259-.839-.26-.516 0-.861.27a1.63 1.63 0 0 0-.52.74 3.1 3.1 0 0 0-.175 1.083q0 .614.175 1.095.179.478.524.755.35.272.857.272"/><rect width="218" height="27" x="148.5" y="210.5" fill="#defbd0" rx="3.5"/><rect width="218" height="27" x="148.5" y="210.5" stroke="#4fdf0c" rx="3.5"/><g clip-path="url(#d)"><path fill="#28650b" d="M156.862 223.529a.666.666 0 0 1 .943 0l3.333 3.333a.666.666 0 1 1-.942.943l-3.334-3.334a.666.666 0 0 1 0-.942m13.334-3.334a.666.666 0 1 1 .942.943l-6.666 6.667a.67.67 0 0 1-.943 0l-3.333-3.334a.665.665 0 0 1 0-.942.665.665 0 0 1 .942 0l2.862 2.862zm-3.334 0a.668.668 0 0 1 .943.943l-3.333 3.333a.666.666 0 1 1-.943-.942z"/></g><path fill="#17181c" d="M178.982 228.5h-1.688l3.072-8.727h1.952l3.077 8.727h-1.688l-2.331-6.938h-.068zm.055-3.422h4.602v1.27h-4.602zm8.982-5.305v8.727h-1.543v-8.727zm3.47 8.859q-.623 0-1.121-.221a1.83 1.83 0 0 1-.784-.665q-.286-.44-.286-1.083 0-.553.205-.916.204-.362.558-.579.354-.218.797-.329.447-.115.925-.166.575-.059.933-.106.358-.05.52-.154.166-.106.166-.328v-.025q0-.482-.286-.746-.285-.264-.822-.264-.567 0-.899.247a1.2 1.2 0 0 0-.443.584l-1.441-.205q.171-.597.563-.997.392-.405.959-.605a3.7 3.7 0 0 1 1.253-.205q.473 0 .941.111.469.11.857.367.388.25.622.686.239.434.239 1.086v4.381h-1.483v-.899h-.051a1.88 1.88 0 0 1-1.032.89 2.6 2.6 0 0 1-.89.141m.4-1.133q.464 0 .806-.184.34-.187.524-.494a1.26 1.26 0 0 0 .187-.669v-.771a.7.7 0 0 1-.247.11 3 3 0 0 1-.383.09q-.213.038-.422.068l-.363.051q-.345.048-.617.154-.273.106-.431.298a.73.73 0 0 0-.157.486q0 .426.311.643.31.218.792.218m4.607 1.001v-6.545h1.495v1.09h.069a1.63 1.63 0 0 1 1.615-1.184q.127 0 .285.013.162.008.269.029v1.419a1.7 1.7 0 0 0-.311-.059q-.21-.03-.405-.03-.422 0-.759.183a1.35 1.35 0 0 0-.716 1.236v3.848zm4.758 0v-6.545h1.474v1.112h.077q.204-.563.677-.878.474-.32 1.13-.32.664 0 1.12.324.46.32.648.874h.068q.217-.546.733-.87.52-.328 1.232-.328.903 0 1.474.571t.571 1.667v4.393h-1.547v-4.155q0-.61-.324-.89a1.15 1.15 0 0 0-.792-.286q-.559 0-.874.349-.31.346-.311.9v4.082h-1.513v-4.219q0-.507-.307-.809-.302-.303-.792-.303-.333 0-.605.17a1.2 1.2 0 0 0-.435.473 1.5 1.5 0 0 0-.162.708v3.98zm21.284-5.783h-1.594a2 2 0 0 0-.251-.694 1.86 1.86 0 0 0-1.078-.84 2.4 2.4 0 0 0-.746-.111q-.711 0-1.261.358-.55.354-.861 1.04-.312.682-.311 1.666 0 1.002.311 1.688.315.681.861 1.031.549.345 1.257.345.391 0 .733-.102.345-.107.618-.311a1.89 1.89 0 0 0 .728-1.185l1.594.009q-.09.623-.388 1.167a3.43 3.43 0 0 1-1.888 1.611 4.2 4.2 0 0 1-1.419.23q-1.15 0-2.054-.532t-1.423-1.539q-.52-1.005-.52-2.412 0-1.41.524-2.412.525-1.005 1.428-1.538t2.045-.533q.729 0 1.356.205.625.204 1.116.601.49.392.805.963.32.567.418 1.295m2.922-2.944v8.727h-1.542v-8.727zm4.484 8.855q-.984 0-1.7-.409a2.77 2.77 0 0 1-1.095-1.168q-.384-.759-.384-1.785 0-1.011.384-1.773a2.9 2.9 0 0 1 1.082-1.193q.695-.43 1.632-.431.606 0 1.142.196.541.192.955.597.417.405.656 1.031.239.622.239 1.483v.473h-5.365v-1.04h3.886a1.66 1.66 0 0 0-.192-.788 1.4 1.4 0 0 0-.524-.55q-.332-.2-.775-.2-.474 0-.831.23-.358.226-.559.597-.195.366-.2.805v.908q0 .57.209.98.209.405.584.622.375.213.878.213.336 0 .609-.094.272-.098.473-.285.2-.188.302-.465l1.441.162a2.24 2.24 0 0 1-.52.997q-.38.422-.972.657a3.7 3.7 0 0 1-1.355.23m6.099.004a2.7 2.7 0 0 1-1.12-.221 1.84 1.84 0 0 1-.785-.665q-.285-.44-.285-1.083 0-.553.205-.916.204-.362.558-.579.354-.218.797-.329.447-.115.924-.166.576-.059.934-.106.358-.05.519-.154.167-.106.167-.328v-.025q0-.482-.286-.746-.285-.264-.822-.264-.567 0-.899.247a1.23 1.23 0 0 0-.444.584l-1.44-.205q.17-.597.563-.997a2.44 2.44 0 0 1 .958-.605 3.7 3.7 0 0 1 1.253-.205q.473 0 .942.111.469.11.856.367.388.25.623.686.238.434.238 1.086v4.381h-1.483v-.899h-.051a1.9 1.9 0 0 1-.396.511 1.9 1.9 0 0 1-.635.379q-.38.141-.891.141m.401-1.133q.465 0 .805-.184.341-.187.524-.494.188-.308.188-.669v-.771a.7.7 0 0 1-.247.11 3 3 0 0 1-.384.09q-.213.038-.422.068l-.362.051q-.345.048-.618.154a1 1 0 0 0-.43.298.73.73 0 0 0-.158.486q0 .426.311.643.312.218.793.218m4.606 1.001v-6.545h1.496v1.09h.068q.18-.566.614-.873a1.7 1.7 0 0 1 1.001-.311q.129 0 .286.013.162.008.268.029v1.419a1.7 1.7 0 0 0-.311-.059 3 3 0 0 0-.405-.03 1.56 1.56 0 0 0-.758.183q-.332.18-.524.499a1.4 1.4 0 0 0-.192.737v3.848zm7.386.128q-.984 0-1.7-.409a2.78 2.78 0 0 1-1.095-1.168q-.384-.759-.384-1.785 0-1.011.384-1.773a2.9 2.9 0 0 1 1.082-1.193q.695-.43 1.632-.431.606 0 1.143.196.54.192.954.597.417.405.656 1.031.239.622.239 1.483v.473h-5.365v-1.04h3.886a1.66 1.66 0 0 0-.192-.788 1.4 1.4 0 0 0-.524-.55q-.332-.2-.775-.2-.474 0-.831.23-.359.226-.558.597a1.7 1.7 0 0 0-.201.805v.908q0 .57.209.98.209.405.584.622.375.213.878.213.336 0 .609-.094.273-.098.473-.285.201-.188.303-.465l1.44.162a2.24 2.24 0 0 1-.52.997q-.38.422-.971.657-.593.23-1.356.23m6.645-.013q-.77 0-1.381-.396-.609-.396-.963-1.151-.353-.754-.353-1.832 0-1.09.357-1.841.363-.754.976-1.138a2.5 2.5 0 0 1 1.368-.388q.576 0 .946.196.37.192.588.465.217.268.337.507h.064v-3.264h1.547v8.727h-1.517v-1.031h-.094q-.12.238-.345.507a1.9 1.9 0 0 1-.597.452q-.37.187-.933.187m.43-1.266q.49 0 .836-.264.345-.268.524-.746.179-.476.179-1.112 0-.635-.179-1.103a1.57 1.57 0 0 0-.52-.729q-.34-.26-.84-.26-.515 0-.86.268a1.6 1.6 0 0 0-.52.742 3.1 3.1 0 0 0-.175 1.082q0 .614.175 1.095.179.478.524.755.35.272.856.272m11.239-7.985-2.813 10.448h-1.351l2.813-10.448zm5.15 9.136h-1.688l3.072-8.727h1.952l3.077 8.727h-1.688l-2.331-6.938h-.068zm.055-3.422h4.602v1.27h-4.602zm10.095 3.55q-.98 0-1.683-.431a2.87 2.87 0 0 1-1.078-1.188q-.375-.763-.375-1.756 0-.998.383-1.76a2.87 2.87 0 0 1 1.083-1.193q.702-.43 1.662-.431.796 0 1.41.294.618.29.984.823.367.528.418 1.236h-1.474a1.4 1.4 0 0 0-.427-.789q-.332-.32-.89-.319-.472 0-.831.255a1.63 1.63 0 0 0-.558.725q-.196.473-.196 1.133 0 .67.196 1.151.196.477.549.737.358.256.84.256.34 0 .609-.128.273-.132.456-.379t.252-.601h1.474a2.57 2.57 0 0 1-.409 1.231 2.43 2.43 0 0 1-.963.836q-.61.297-1.432.298m5.477-2.182-.004-1.862h.247l2.352-2.629h1.803l-2.894 3.221h-.319zm-1.406 2.054v-8.727h1.542v8.727zm4.108 0-2.131-2.979 1.04-1.086 2.936 4.065zm4.266-3.835v3.835h-1.542v-6.545h1.474v1.112h.077a1.87 1.87 0 0 1 .72-.874q.498-.324 1.232-.324.677 0 1.18.29.507.29.784.84.282.55.277 1.333v4.168h-1.543v-3.929q0-.656-.34-1.027-.337-.37-.934-.371-.405 0-.72.179a1.25 1.25 0 0 0-.49.507 1.7 1.7 0 0 0-.175.806m8.625 3.963q-.958 0-1.662-.422a2.87 2.87 0 0 1-1.09-1.18q-.384-.759-.384-1.773t.384-1.777a2.86 2.86 0 0 1 1.09-1.185q.704-.422 1.662-.422.96 0 1.662.422.703.421 1.087 1.185.387.762.388 1.777 0 1.014-.388 1.773a2.84 2.84 0 0 1-1.087 1.18q-.702.422-1.662.422m.009-1.236q.52 0 .869-.285.35-.29.52-.776.175-.486.175-1.082 0-.601-.175-1.087a1.7 1.7 0 0 0-.52-.78q-.35-.29-.869-.29-.533 0-.886.29a1.75 1.75 0 0 0-.525.78q-.17.486-.17 1.087 0 .596.17 1.082.175.486.525.776.353.285.886.285m5.6 1.108-1.849-6.545h1.572l1.151 4.602h.06l1.176-4.602h1.555l1.176 4.576h.064l1.134-4.576h1.576l-1.853 6.545h-1.607l-1.227-4.423h-.09l-1.227 4.423zm10.235-8.727v8.727h-1.542v-8.727zm4.484 8.855q-.984 0-1.7-.409a2.77 2.77 0 0 1-1.095-1.168q-.384-.759-.384-1.785 0-1.011.384-1.773a2.9 2.9 0 0 1 1.082-1.193q.695-.43 1.632-.431.606 0 1.142.196.541.192.955.597.417.405.656 1.031.239.622.239 1.483v.473h-5.365v-1.04h3.886a1.66 1.66 0 0 0-.192-.788 1.4 1.4 0 0 0-.524-.55 1.5 1.5 0 0 0-.776-.2q-.473 0-.83.23-.358.226-.559.597-.195.366-.2.805v.908q0 .57.209.98.209.405.584.622.375.213.877.213.337 0 .61-.094.273-.098.473-.285.2-.188.302-.465l1.441.162a2.24 2.24 0 0 1-.52.997q-.38.422-.972.657a3.7 3.7 0 0 1-1.355.23m6.645-.013q-.772 0-1.381-.396t-.963-1.151-.354-1.832q0-1.09.358-1.841.363-.754.976-1.138a2.5 2.5 0 0 1 1.368-.388q.575 0 .946.196.37.192.588.465.217.268.337.507h.064v-3.264h1.546v8.727h-1.517v-1.031h-.093q-.12.238-.345.507a1.9 1.9 0 0 1-.597.452q-.37.187-.933.187m.43-1.266q.49 0 .835-.264.345-.268.524-.746a3.1 3.1 0 0 0 .179-1.112q0-.635-.179-1.103a1.56 1.56 0 0 0-.519-.729q-.342-.26-.84-.26-.516 0-.861.268-.345.269-.52.742a3.1 3.1 0 0 0-.174 1.082q0 .614.174 1.095.18.478.525.755.35.272.856.272m7.546 3.742q-.831 0-1.428-.226-.596-.222-.958-.597a2.06 2.06 0 0 1-.503-.83l1.389-.337q.093.192.273.379.178.192.481.315.308.129.771.128.657 0 1.087-.319.43-.316.431-1.04v-1.24h-.077a2.2 2.2 0 0 1-.35.49q-.225.252-.6.422-.372.17-.934.17-.754 0-1.368-.353-.61-.358-.971-1.066-.358-.711-.358-1.781 0-1.078.358-1.82.362-.745.976-1.129a2.5 2.5 0 0 1 1.368-.388q.574 0 .946.196.375.192.596.465.222.268.337.507h.085v-1.082h1.521v6.652q0 .839-.4 1.389-.4.549-1.095.822t-1.577.273m.013-3.895q.49 0 .835-.239.345-.238.524-.686.179-.447.179-1.074 0-.617-.179-1.082-.175-.465-.52-.72-.34-.26-.839-.26-.516 0-.861.268-.346.269-.52.738a3 3 0 0 0-.175 1.056q0 .602.175 1.053.179.447.524.699.35.247.857.247m7.538 1.432q-.984 0-1.7-.409a2.77 2.77 0 0 1-1.095-1.168q-.384-.759-.384-1.785 0-1.011.384-1.773a2.9 2.9 0 0 1 1.082-1.193q.695-.43 1.632-.431.605 0 1.142.196.541.192.955.597.417.405.656 1.031.239.622.239 1.483v.473h-5.366v-1.04h3.887a1.66 1.66 0 0 0-.192-.788 1.4 1.4 0 0 0-.524-.55 1.5 1.5 0 0 0-.776-.2q-.472 0-.831.23a1.6 1.6 0 0 0-.558.597 1.7 1.7 0 0 0-.2.805v.908q0 .57.209.98.208.405.583.622.375.213.878.213.337 0 .61-.094.273-.098.473-.285.2-.188.302-.465l1.441.162a2.25 2.25 0 0 1-.52.997q-.38.422-.972.657a3.7 3.7 0 0 1-1.355.23m6.645-.013q-.772 0-1.381-.396t-.963-1.151-.354-1.832q0-1.09.358-1.841.363-.754.976-1.138a2.5 2.5 0 0 1 1.368-.388q.575 0 .946.196.37.192.588.465.217.268.337.507h.063v-3.264h1.547v8.727h-1.517v-1.031h-.093q-.12.238-.346.507-.225.264-.596.452-.37.187-.933.187m.43-1.266q.49 0 .835-.264.345-.268.524-.746a3.1 3.1 0 0 0 .179-1.112q0-.635-.179-1.103a1.56 1.56 0 0 0-.52-.729q-.34-.26-.839-.26-.516 0-.861.268-.345.269-.52.742a3.1 3.1 0 0 0-.174 1.082q0 .614.174 1.095.18.478.524.755.35.272.857.272"/><rect width="163" height="55" x="14.5" y="98.5" fill="#cfd4fc" rx="9.5"/><rect width="163" height="55" x="14.5" y="98.5" stroke="#3d50f5" rx="9.5"/><rect width="30" height="30" x="26" y="111" fill="#3d50f5" rx="4"/><path fill="#cfd4fc" d="M45.583 134.25v-1.833a2.75 2.75 0 0 0-2.75-2.75h-3.667a2.75 2.75 0 0 0-2.75 2.75v1.833a.917.917 0 0 1-1.833 0v-1.833a4.584 4.584 0 0 1 4.583-4.584h3.667a4.58 4.58 0 0 1 4.583 4.584v1.833a.917.917 0 0 1-1.833 0m-1.833-12.833a2.75 2.75 0 1 0-5.502 0 2.75 2.75 0 0 0 5.502 0m1.833 0A4.58 4.58 0 0 1 41 126a4.58 4.58 0 0 1-4.584-4.583 4.584 4.584 0 0 1 9.167 0"/><path fill="#17181c" d="M61.933 123v-9.455h6.056v1.436h-4.344v2.567h3.929v1.436h-3.929V123zm7.543 0v-7.091h1.671V123zm.84-8.097a.98.98 0 0 1-.683-.263.85.85 0 0 1-.286-.642q0-.378.286-.642a.97.97 0 0 1 .683-.268q.402 0 .683.268.287.264.287.642a.85.85 0 0 1-.287.642.97.97 0 0 1-.683.263m2.55 8.097v-7.091h1.62v1.182h.074q.193-.614.665-.946a1.83 1.83 0 0 1 1.084-.337q.14 0 .31.013.176.01.29.033v1.537a2 2 0 0 0-.337-.065 3 3 0 0 0-.438-.032q-.458 0-.822.199a1.45 1.45 0 0 0-.568.54q-.207.346-.207.798V123zm10.758-5.217-1.523.167a1.2 1.2 0 0 0-.226-.434 1.1 1.1 0 0 0-.425-.328 1.55 1.55 0 0 0-.656-.125q-.521 0-.877.226-.351.227-.346.587a.61.61 0 0 0 .226.503q.236.193.776.318l1.21.259q1.005.217 1.495.688.494.471.498 1.232a1.93 1.93 0 0 1-.392 1.182q-.382.508-1.066.794t-1.57.286q-1.302 0-2.096-.544-.795-.55-.946-1.528l1.63-.157q.11.48.47.725.36.244.938.244.595 0 .955-.244.365-.246.365-.605a.63.63 0 0 0-.236-.503q-.231-.199-.72-.305l-1.21-.254q-1.02-.212-1.509-.716-.49-.507-.485-1.283a1.82 1.82 0 0 1 .356-1.136q.365-.484 1.01-.747.652-.268 1.501-.268 1.246 0 1.962.531.72.53.891 1.435m5.071-1.874v1.293H84.62v-1.293zm-3.07-1.699h1.672v6.657q0 .337.101.517.106.176.277.24.17.065.379.065.157 0 .286-.023.135-.023.203-.042l.282 1.307q-.135.046-.383.101a3 3 0 0 1-.6.065 2.7 2.7 0 0 1-1.132-.189 1.76 1.76 0 0 1-.798-.656q-.291-.443-.287-1.108zm7.766 8.79v-9.455h3.546q1.09 0 1.828.379.744.378 1.122 1.062.383.678.383 1.583 0 .91-.388 1.579a2.57 2.57 0 0 1-1.13 1.03q-.75.36-1.838.36h-2.525v-1.422h2.294q.638 0 1.043-.176.407-.18.6-.521.2-.346.199-.85 0-.502-.199-.858a1.26 1.26 0 0 0-.604-.545q-.406-.189-1.048-.189h-1.57V123zm4.885-4.284 2.34 4.284h-1.91l-2.3-4.284zm6.534 4.422q-1.067 0-1.842-.443a3 3 0 0 1-1.186-1.265q-.416-.82-.416-1.934 0-1.093.416-1.92.42-.831 1.173-1.293.752-.466 1.768-.466.655 0 1.237.212a2.8 2.8 0 0 1 1.034.646q.453.439.711 1.118.258.673.258 1.606v.513h-5.812v-1.127h4.211a1.8 1.8 0 0 0-.208-.854 1.5 1.5 0 0 0-.568-.595 1.6 1.6 0 0 0-.84-.217q-.513 0-.9.249a1.7 1.7 0 0 0-.605.646 1.86 1.86 0 0 0-.217.873v.983q0 .618.226 1.062.227.438.632.674.406.231.951.231.366 0 .661-.102.295-.106.512-.309a1.3 1.3 0 0 0 .328-.503l1.56.175a2.4 2.4 0 0 1-.563 1.08 2.74 2.74 0 0 1-1.053.711q-.641.249-1.468.249m7.66 0q-1.061 0-1.823-.466a3.1 3.1 0 0 1-1.168-1.288q-.406-.826-.406-1.902 0-1.08.415-1.906a3.1 3.1 0 0 1 1.173-1.293q.761-.466 1.8-.466.864 0 1.528.318.67.315 1.066.891.398.573.453 1.339h-1.597a1.53 1.53 0 0 0-.462-.854q-.36-.346-.965-.346-.513 0-.9.277-.388.272-.605.785-.212.512-.212 1.228 0 .724.212 1.246.213.517.596.799.387.277.909.277.369 0 .66-.139.296-.142.494-.411.199-.267.273-.651h1.597q-.06.753-.443 1.335a2.63 2.63 0 0 1-1.044.904q-.66.323-1.551.323m4.41-.138v-7.091h1.671V123zm.84-8.097a.98.98 0 0 1-.683-.263.85.85 0 0 1-.286-.642.84.84 0 0 1 .286-.642.97.97 0 0 1 .683-.268.96.96 0 0 1 .684.268q.285.264.286.642a.85.85 0 0 1-.286.642.97.97 0 0 1-.684.263m2.55 10.756v-9.75h1.643v1.173h.097q.13-.26.365-.55.235-.295.637-.503.401-.212 1.025-.212.822 0 1.482.42.665.416 1.052 1.232.393.813.393 1.995 0 1.167-.383 1.985-.384.817-1.044 1.246t-1.496.43q-.609 0-1.011-.203a2.1 2.1 0 0 1-.646-.49 3.2 3.2 0 0 1-.374-.549h-.069v3.776zm1.639-6.204q0 .688.194 1.204.198.517.567.808.374.287.905.287.555 0 .928-.296.374-.3.563-.817.195-.522.194-1.186 0-.66-.189-1.173a1.76 1.76 0 0 0-.563-.803q-.374-.291-.933-.291-.535 0-.909.281-.375.282-.568.79-.189.507-.189 1.196m6.486 3.545v-7.091h1.671V123zm.84-8.097a.98.98 0 0 1-.683-.263.85.85 0 0 1-.286-.642.84.84 0 0 1 .286-.642.97.97 0 0 1 .683-.268q.401 0 .683.268a.84.84 0 0 1 .286.642.85.85 0 0 1-.286.642.97.97 0 0 1-.683.263m5.689 8.235q-1.066 0-1.842-.443a3 3 0 0 1-1.187-1.265q-.415-.82-.415-1.934 0-1.093.415-1.92.42-.831 1.173-1.293.752-.466 1.768-.466.655 0 1.237.212.587.208 1.034.646.453.439.711 1.118.26.673.259 1.606v.513h-5.812v-1.127h4.21a1.8 1.8 0 0 0-.208-.854 1.5 1.5 0 0 0-.568-.595 1.6 1.6 0 0 0-.84-.217q-.513 0-.9.249-.388.244-.605.646a1.86 1.86 0 0 0-.217.873v.983q0 .618.226 1.062.226.438.633.674.406.231.951.231.365 0 .66-.102.296-.106.512-.309a1.3 1.3 0 0 0 .328-.503l1.56.175a2.4 2.4 0 0 1-.563 1.08 2.74 2.74 0 0 1-1.052.711q-.642.249-1.468.249m6.238-4.293V123h-1.671v-7.091h1.597v1.205h.083q.245-.595.78-.946.54-.351 1.334-.351.735 0 1.279.314.549.313.849.909.306.596.301 1.445V123h-1.672v-4.256q0-.711-.369-1.113-.365-.402-1.011-.402-.438 0-.78.194-.337.19-.531.55-.189.36-.189.872m9.791-2.936v1.293h-4.076v-1.293zm-3.07-1.699h1.671v6.657q0 .337.102.517a.55.55 0 0 0 .277.24q.17.065.379.065.156 0 .286-.023.134-.023.203-.042l.281 1.307a4 4 0 0 1-.383.101 3 3 0 0 1-.6.065 2.7 2.7 0 0 1-1.131-.189 1.76 1.76 0 0 1-.799-.656q-.29-.443-.286-1.108zm-85.609 20.063q0-1.732.457-3.181a9.2 9.2 0 0 1 1.371-2.687h1.575a6 6 0 0 0-.656 1.122q-.305.66-.53 1.45a14 14 0 0 0-.352 1.629 11.4 11.4 0 0 0-.124 1.667q0 1.094.216 2.216.222 1.122.596 2.082.379.955.85 1.565h-1.575a9.2 9.2 0 0 1-1.37-2.683q-.459-1.453-.458-3.18m6.487-4.728V139H67.05v-9.455zM70.543 139v-7.091h1.598v1.205h.083q.22-.609.734-.951.513-.346 1.223-.346.72 0 1.214.351.499.345.702.946h.074a1.94 1.94 0 0 1 .794-.942q.563-.355 1.334-.355.978 0 1.597.618.62.619.619 1.805V139h-1.676v-4.501q0-.66-.35-.965a1.25 1.25 0 0 0-.86-.309q-.604 0-.946.378-.337.375-.337.974V139h-1.639v-4.57q0-.55-.332-.877-.328-.328-.859-.328-.36 0-.655.184-.296.18-.471.513a1.6 1.6 0 0 0-.176.766V139zm11.667 0v-7.091h1.598v1.205h.083q.22-.609.734-.951.513-.346 1.223-.346.72 0 1.214.351.499.345.702.946h.074a1.94 1.94 0 0 1 .794-.942q.563-.355 1.334-.355.979 0 1.597.618.62.619.619 1.805V139h-1.676v-4.501q0-.66-.35-.965a1.25 1.25 0 0 0-.86-.309q-.604 0-.946.378-.337.375-.337.974V139h-1.639v-4.57q0-.55-.332-.877-.328-.328-.859-.328-.36 0-.655.184-.296.18-.471.513a1.6 1.6 0 0 0-.176.766V139zm14.806.138q-1.066 0-1.841-.443a3 3 0 0 1-1.187-1.265q-.415-.82-.415-1.934 0-1.094.415-1.92.42-.831 1.173-1.293.751-.466 1.768-.466.656 0 1.237.212.585.208 1.034.646.453.439.711 1.118.258.673.259 1.606v.513h-5.813v-1.127h4.21a1.8 1.8 0 0 0-.207-.854 1.5 1.5 0 0 0-.568-.595 1.6 1.6 0 0 0-.84-.217 1.63 1.63 0 0 0-.9.249q-.388.244-.605.646a1.86 1.86 0 0 0-.217.873v.983q0 .618.226 1.062.226.438.633.674.405.231.95.231.366 0 .66-.102.297-.107.513-.309.217-.203.328-.503l1.56.175a2.4 2.4 0 0 1-.563 1.08 2.74 2.74 0 0 1-1.052.711q-.642.249-1.469.249m7.199-.013a2.7 2.7 0 0 1-1.496-.43q-.66-.429-1.043-1.246-.384-.818-.384-1.985 0-1.182.388-1.995.393-.816 1.057-1.232.666-.42 1.482-.42.623 0 1.025.212.402.208.637.503.236.29.365.55h.069v-3.537h1.676V139h-1.643v-1.117h-.102a3 3 0 0 1-.374.549 2.1 2.1 0 0 1-.646.49q-.402.203-1.011.203m.466-1.371q.53 0 .905-.287.373-.29.568-.808.194-.517.194-1.204 0-.689-.194-1.196a1.7 1.7 0 0 0-.564-.79q-.369-.28-.909-.281-.558 0-.933.291a1.76 1.76 0 0 0-.563.803 3.4 3.4 0 0 0-.189 1.173q0 .664.189 1.186.194.517.568.817.378.296.928.296m5.091 1.246v-7.091h1.671V139zm.84-8.097a.98.98 0 0 1-.683-.263.85.85 0 0 1-.286-.642.84.84 0 0 1 .286-.642.97.97 0 0 1 .683-.268q.402 0 .683.268a.84.84 0 0 1 .286.642.85.85 0 0 1-.286.642.97.97 0 0 1-.683.263m4.59 8.24a3 3 0 0 1-1.214-.24 2 2 0 0 1-.85-.72q-.309-.476-.309-1.173 0-.6.222-.992.221-.393.604-.628.384-.236.864-.356a7 7 0 0 1 1.001-.18 38 38 0 0 0 1.011-.115q.389-.055.564-.166.18-.116.18-.356v-.027q0-.522-.31-.808-.309-.286-.891-.286-.614 0-.974.267-.355.268-.48.633l-1.56-.222q.184-.647.609-1.08.425-.438 1.039-.656a4 4 0 0 1 1.357-.221q.513 0 1.02.12.508.12.928.397.42.272.674.743.26.47.259 1.177V139h-1.607v-.974h-.055a2 2 0 0 1-.429.554 2.1 2.1 0 0 1-.688.411 2.8 2.8 0 0 1-.965.152m.434-1.228q.503 0 .872-.198.37-.203.568-.536.203-.332.203-.725v-.835a.8.8 0 0 1-.267.12 4 4 0 0 1-.416.097q-.23.04-.457.074l-.392.055a3 3 0 0 0-.67.166 1.1 1.1 0 0 0-.466.323.8.8 0 0 0-.171.527q0 .461.337.697t.859.235m8.531-6.006v1.293h-4.076v-1.293zm-3.07-1.699h1.671v6.657q0 .337.102.517a.55.55 0 0 0 .277.24q.171.065.378.065.157 0 .287-.023.134-.023.203-.042l.281 1.307a4 4 0 0 1-.383.101 3 3 0 0 1-.6.065 2.7 2.7 0 0 1-1.131-.189 1.76 1.76 0 0 1-.799-.656q-.29-.443-.286-1.108zm7.531 8.928q-1.067 0-1.842-.443a3 3 0 0 1-1.187-1.265q-.415-.82-.415-1.934 0-1.094.415-1.92.42-.831 1.173-1.293.753-.466 1.768-.466.655 0 1.237.212.587.208 1.034.646.453.439.711 1.118.26.673.259 1.606v.513h-5.812v-1.127h4.21a1.8 1.8 0 0 0-.208-.854 1.5 1.5 0 0 0-.568-.595 1.6 1.6 0 0 0-.84-.217q-.512 0-.9.249-.388.244-.605.646a1.9 1.9 0 0 0-.217.873v.983q0 .618.226 1.062.226.438.633.674.407.231.951.231.364 0 .66-.102.296-.107.512-.309a1.3 1.3 0 0 0 .328-.503l1.561.175a2.44 2.44 0 0 1-.564 1.08 2.74 2.74 0 0 1-1.052.711q-.642.249-1.468.249m7.549-3.993q0 1.727-.462 3.181a9.1 9.1 0 0 1-1.366 2.682h-1.574q.355-.457.655-1.117.305-.66.526-1.45.227-.79.351-1.634a11 11 0 0 0-.092-3.878 11.7 11.7 0 0 0-.596-2.082q-.374-.96-.844-1.569h1.574a9 9 0 0 1 1.366 2.686q.462 1.45.462 3.181"/><rect width="163" height="55" x="334.5" y="98.5" fill="#d6e7e5" rx="9.5"/><rect width="163" height="55" x="334.5" y="98.5" stroke="#00695c" rx="9.5"/><rect width="30" height="30" x="346" y="111" fill="#00695c" rx="4"/><path fill="#d6e7e5" d="M365.583 134.25v-1.833a2.75 2.75 0 0 0-2.75-2.75h-3.667a2.75 2.75 0 0 0-2.75 2.75v1.833a.917.917 0 1 1-1.833 0v-1.833a4.58 4.58 0 0 1 4.583-4.584h3.667a4.58 4.58 0 0 1 4.583 4.584v1.833a.917.917 0 1 1-1.833 0m-1.833-12.833a2.75 2.75 0 1 0-5.5 0 2.75 2.75 0 0 0 5.5 0m1.833 0a4.58 4.58 0 0 1-1.343 3.24 4.58 4.58 0 0 1-6.481 0 4.584 4.584 0 0 1 3.241-7.824 4.582 4.582 0 0 1 4.583 4.584"/><path fill="#17181c" d="M387.071 116.145a1.26 1.26 0 0 0-.545-.942q-.475-.337-1.237-.337-.536 0-.919.161a1.36 1.36 0 0 0-.586.439 1.06 1.06 0 0 0-.208.632q0 .295.134.513.138.217.374.369.236.148.521.249.287.102.578.171l.886.222q.536.124 1.029.337.5.212.891.535.397.324.628.781.231.456.231 1.071 0 .83-.425 1.463-.424.628-1.228.983-.798.351-1.934.351-1.103 0-1.916-.342-.807-.341-1.265-.997-.451-.655-.489-1.597h1.685q.037.493.305.822.267.327.697.489.433.162.969.162.56 0 .979-.167a1.6 1.6 0 0 0 .665-.47q.24-.305.244-.711a.9.9 0 0 0-.217-.61 1.6 1.6 0 0 0-.595-.406 6 6 0 0 0-.887-.295l-1.075-.277q-1.168-.3-1.847-.91-.674-.614-.674-1.629 0-.836.453-1.464a3 3 0 0 1 1.241-.974q.785-.351 1.778-.351 1.007 0 1.763.351.762.346 1.196.965.434.614.448 1.413zm6.369 6.993q-1.067 0-1.842-.443a3 3 0 0 1-1.186-1.265q-.416-.82-.416-1.934 0-1.093.416-1.92.42-.831 1.172-1.293.752-.466 1.769-.466.655 0 1.237.212a2.8 2.8 0 0 1 1.034.646q.452.439.711 1.118.258.673.258 1.606v.513h-5.812v-1.127h4.21a1.8 1.8 0 0 0-.207-.854 1.5 1.5 0 0 0-.568-.595 1.6 1.6 0 0 0-.84-.217q-.513 0-.901.249-.388.244-.604.646a1.86 1.86 0 0 0-.217.873v.983q0 .618.226 1.062.227.438.632.674.407.231.951.231.365 0 .66-.102a1.5 1.5 0 0 0 .513-.309 1.3 1.3 0 0 0 .328-.503l1.56.175a2.4 2.4 0 0 1-.563 1.08 2.74 2.74 0 0 1-1.053.711q-.642.249-1.468.249m7.66 0q-1.062 0-1.823-.466a3.1 3.1 0 0 1-1.168-1.288q-.407-.826-.407-1.902 0-1.08.416-1.906a3.1 3.1 0 0 1 1.172-1.293q.762-.466 1.801-.466.863 0 1.528.318.67.315 1.066.891.397.573.453 1.339h-1.598a1.52 1.52 0 0 0-.461-.854q-.36-.346-.965-.346-.513 0-.9.277-.388.272-.605.785-.212.512-.212 1.228 0 .724.212 1.246.212.517.596.799.387.277.909.277.369 0 .66-.139.296-.142.494-.411.198-.267.272-.651h1.598q-.06.753-.443 1.335a2.63 2.63 0 0 1-1.044.904q-.66.323-1.551.323m7.503 0q-1.039 0-1.8-.457a3.1 3.1 0 0 1-1.182-1.278q-.416-.822-.416-1.921 0-1.098.416-1.925a3.1 3.1 0 0 1 1.182-1.283q.761-.457 1.8-.457t1.8.457q.762.456 1.178 1.283.42.827.42 1.925 0 1.1-.42 1.921-.416.822-1.178 1.278-.76.457-1.8.457m.009-1.338q.564 0 .942-.31.378-.314.563-.84a3.5 3.5 0 0 0 .19-1.172 3.5 3.5 0 0 0-.19-1.178 1.86 1.86 0 0 0-.563-.844q-.378-.314-.942-.314-.576 0-.96.314-.379.313-.568.844a3.6 3.6 0 0 0-.184 1.178q0 .645.184 1.172.19.526.568.84.384.31.96.31m6.478-2.955V123h-1.671v-7.091h1.598v1.205h.083q.245-.595.78-.946.54-.351 1.334-.351.734 0 1.279.314.549.313.849.909.304.596.3 1.445V123h-1.671v-4.256q0-.711-.369-1.113-.364-.402-1.011-.402-.44 0-.78.194-.338.19-.531.55-.19.36-.19.872m8.882 4.28a2.68 2.68 0 0 1-1.495-.43q-.66-.429-1.044-1.246-.383-.818-.383-1.985 0-1.182.388-1.995.393-.816 1.057-1.232.664-.42 1.482-.42.624 0 1.025.212.402.208.637.503.236.29.365.55h.069v-3.537h1.676V123h-1.644v-1.117h-.101a3 3 0 0 1-.374.549 2.1 2.1 0 0 1-.647.49q-.4.203-1.011.203m.467-1.371q.53 0 .905-.287.373-.29.567-.808.195-.516.194-1.204 0-.689-.194-1.196a1.7 1.7 0 0 0-.563-.79q-.369-.28-.909-.281-.559 0-.933.291a1.76 1.76 0 0 0-.563.803 3.4 3.4 0 0 0-.189 1.173q0 .664.189 1.186.194.517.568.817.379.296.928.296M381.933 139v-9.455h3.545q1.09 0 1.828.379.744.378 1.122 1.062.383.678.383 1.583 0 .91-.388 1.579a2.56 2.56 0 0 1-1.131 1.03q-.747.36-1.837.36h-2.525v-1.422h2.294q.638 0 1.043-.176.406-.18.601-.521.198-.346.198-.85 0-.503-.198-.858a1.27 1.27 0 0 0-.605-.545q-.406-.189-1.048-.189h-1.57V139zm4.884-4.284 2.34 4.284h-1.911l-2.299-4.284zm6.534 4.422q-1.067 0-1.842-.443a3 3 0 0 1-1.186-1.265q-.416-.82-.416-1.934 0-1.094.416-1.92.42-.831 1.173-1.293.752-.466 1.768-.466.655 0 1.237.212a2.8 2.8 0 0 1 1.034.646q.453.439.711 1.118.258.673.258 1.606v.513h-5.812v-1.127h4.211a1.8 1.8 0 0 0-.208-.854 1.5 1.5 0 0 0-.568-.595 1.6 1.6 0 0 0-.84-.217q-.513 0-.9.249a1.7 1.7 0 0 0-.605.646 1.86 1.86 0 0 0-.217.873v.983q0 .618.226 1.062.227.438.632.674.407.231.951.231.366 0 .661-.102.295-.107.512-.309a1.3 1.3 0 0 0 .328-.503l1.56.175a2.4 2.4 0 0 1-.563 1.08 2.74 2.74 0 0 1-1.053.711q-.641.249-1.468.249m7.66 0q-1.061 0-1.823-.466a3.1 3.1 0 0 1-1.168-1.288q-.406-.826-.406-1.902 0-1.08.415-1.906a3.1 3.1 0 0 1 1.173-1.293q.761-.466 1.8-.466.864 0 1.528.318.67.315 1.067.891.396.573.452 1.339h-1.597a1.53 1.53 0 0 0-.462-.854q-.36-.346-.965-.346-.512 0-.9.277-.388.272-.605.785-.212.512-.212 1.228 0 .724.212 1.246.212.517.596.799.387.276.909.277.369 0 .66-.139.296-.143.494-.411.199-.267.273-.651h1.597q-.06.753-.443 1.335a2.6 2.6 0 0 1-1.044.904q-.66.323-1.551.323m4.41-.138v-7.091h1.671V139zm.84-8.097a.98.98 0 0 1-.683-.263.85.85 0 0 1-.286-.642.84.84 0 0 1 .286-.642.97.97 0 0 1 .683-.268.96.96 0 0 1 .684.268q.286.264.286.642a.85.85 0 0 1-.286.642.97.97 0 0 1-.684.263m2.55 10.756v-9.75h1.643v1.173h.097q.13-.26.365-.55.235-.295.637-.503.401-.212 1.025-.212.822 0 1.482.42.665.416 1.052 1.232.393.813.393 1.995 0 1.167-.383 1.985-.384.817-1.044 1.246t-1.496.43q-.609 0-1.011-.203a2.1 2.1 0 0 1-.646-.49 3.2 3.2 0 0 1-.374-.549h-.069v3.776zm1.639-6.204q0 .688.194 1.204.198.517.567.808.375.287.905.287.555 0 .928-.296.374-.3.563-.817.195-.522.194-1.186 0-.66-.189-1.173a1.76 1.76 0 0 0-.563-.803q-.374-.291-.933-.291-.536 0-.909.281-.375.282-.568.79-.189.507-.189 1.196m6.486 3.545v-7.091h1.671V139zm.84-8.097a.98.98 0 0 1-.683-.263.85.85 0 0 1-.286-.642.84.84 0 0 1 .286-.642.97.97 0 0 1 .683-.268q.402 0 .683.268a.84.84 0 0 1 .286.642.85.85 0 0 1-.286.642.96.96 0 0 1-.683.263m5.689 8.235q-1.066 0-1.842-.443a3 3 0 0 1-1.187-1.265q-.415-.82-.415-1.934 0-1.094.415-1.92.42-.831 1.173-1.293.752-.466 1.768-.466.655 0 1.237.212.587.208 1.034.646.453.439.711 1.118.26.673.259 1.606v.513h-5.812v-1.127h4.21a1.8 1.8 0 0 0-.208-.854 1.5 1.5 0 0 0-.568-.595 1.6 1.6 0 0 0-.84-.217q-.513 0-.9.249-.388.244-.605.646a1.86 1.86 0 0 0-.217.873v.983q0 .618.226 1.062.226.438.633.674.406.231.951.231.364 0 .66-.102.296-.107.512-.309a1.3 1.3 0 0 0 .328-.503l1.56.175a2.4 2.4 0 0 1-.563 1.08 2.74 2.74 0 0 1-1.052.711q-.642.249-1.468.249m6.238-4.293V139h-1.671v-7.091h1.597v1.205h.083q.245-.595.78-.946.54-.351 1.334-.351.735 0 1.279.314.549.314.849.909.306.596.301 1.445V139h-1.672v-4.256q0-.711-.369-1.113-.364-.402-1.011-.402-.438 0-.78.194-.337.19-.531.55-.189.36-.189.872m9.791-2.936v1.293h-4.076v-1.293zm-3.07-1.699h1.671v6.657q0 .337.102.517a.55.55 0 0 0 .277.24q.17.065.379.065.156 0 .286-.023.134-.023.203-.042l.281 1.307a4 4 0 0 1-.383.101 3 3 0 0 1-.6.065 2.7 2.7 0 0 1-1.131-.189 1.76 1.76 0 0 1-.799-.656q-.29-.443-.286-1.108z"/><path fill="#3d50f5" d="M331.28 126.53a.75.75 0 0 0 0-1.06l-4.773-4.773a.749.749 0 1 0-1.06 1.06l4.242 4.243-4.242 4.243a.749.749 0 1 0 1.06 1.06zm-52.664-1.28a.75.75 0 0 0 0 1.5v-1.5m-42.875 1.5a.75.75 0 0 0 0-1.5v1.5m-54.491-1.5a.75.75 0 0 0 0 1.5v-1.5m149.5.75v-.75h-52.134v1.5h52.134zm-95.009 0v-.75H181.25v1.5h54.491z"/><path fill="#23262f" d="M245.184 130h-2.825v-8.727h2.914q1.283 0 2.203.524a3.45 3.45 0 0 1 1.411 1.496q.495.97.494 2.331 0 1.364-.498 2.343a3.5 3.5 0 0 1-1.432 1.509q-.938.524-2.267.524m-1.509-1.151h1.436q.998 0 1.658-.375.66-.378.989-1.095.327-.72.328-1.755 0-1.028-.328-1.743a2.3 2.3 0 0 0-.968-1.087q-.643-.37-1.598-.371h-1.517zm9.93 1.283q-.966 0-1.666-.413a2.8 2.8 0 0 1-1.074-1.172q-.375-.759-.375-1.777 0-1.006.375-1.773a2.9 2.9 0 0 1 1.057-1.197q.682-.43 1.594-.431.554 0 1.074.184.52.183.933.575t.652 1.018q.239.622.239 1.513v.452h-5.203v-.955h3.954q0-.503-.204-.89a1.55 1.55 0 0 0-.576-.618 1.6 1.6 0 0 0-.861-.226q-.536 0-.937.264a1.8 1.8 0 0 0-.614.682 2 2 0 0 0-.213.908v.745q0 .657.23 1.117.235.46.652.703.418.239.976.239.363 0 .661-.103.298-.107.515-.315a1.4 1.4 0 0 0 .333-.516l1.206.218q-.145.532-.52.933-.37.396-.933.618a3.5 3.5 0 0 1-1.275.217m5.365-8.859V130h-1.275v-8.727zm3.487 8.872q-.623 0-1.125-.23a1.9 1.9 0 0 1-.797-.678q-.29-.442-.29-1.086 0-.555.213-.912.213-.359.575-.567.363-.209.81-.315t.912-.162l.954-.111q.367-.047.533-.149.166-.103.166-.333v-.03q0-.558-.315-.865-.312-.306-.929-.306-.643 0-1.014.285-.367.281-.507.626l-1.198-.272q.214-.597.622-.963.414-.37.951-.537a3.7 3.7 0 0 1 1.129-.171q.392 0 .831.094.443.09.827.332.387.243.634.695.248.447.248 1.163V130h-1.245v-.895h-.051a1.8 1.8 0 0 1-.371.486 2 2 0 0 1-.635.396 2.5 2.5 0 0 1-.928.158m.277-1.023q.528 0 .903-.209.38-.209.575-.545.2-.34.2-.729v-.844q-.067.07-.264.128-.192.056-.439.098-.247.039-.481.073l-.392.051a3 3 0 0 0-.678.158q-.302.11-.486.319-.179.205-.179.546 0 .473.35.716.35.238.891.238m5.089 3.333a2.7 2.7 0 0 1-.87-.141l.307-1.044q.35.093.622.081a.75.75 0 0 0 .482-.205q.213-.191.375-.626l.158-.435-2.395-6.63h1.363l1.658 5.079h.068l1.658-5.079h1.368l-2.698 7.419q-.187.51-.477.865a1.9 1.9 0 0 1-.69.537 2.3 2.3 0 0 1-.929.179"/><rect width="4" height="4" x="670" y="124" fill="#555962" rx="2"/><rect width="4" height="4" x="678" y="124" fill="#555962" rx="2"/><rect width="4" height="4" x="686" y="124" fill="#555962" rx="2"/><path fill="#00695c" d="M651.28 126.53a.75.75 0 0 0 0-1.06l-4.773-4.773a.749.749 0 1 0-1.06 1.06l4.242 4.243-4.242 4.243a.749.749 0 1 0 1.06 1.06zm-52.665-1.28a.75.75 0 0 0 0 1.5v-1.5m-42.875 1.5a.75.75 0 0 0 0-1.5v1.5m-54.49-1.5a.75.75 0 0 0 0 1.5v-1.5m149.5.75v-.75h-52.135v1.5h52.135zm-95.01 0v-.75h-54.49v1.5h54.49z"/><path fill="#23262f" d="M565.183 130h-2.825v-8.727h2.914q1.283 0 2.203.524a3.45 3.45 0 0 1 1.411 1.496q.495.97.494 2.331 0 1.364-.498 2.343a3.5 3.5 0 0 1-1.432 1.509q-.938.524-2.267.524m-1.509-1.151h1.436q.998 0 1.658-.375.66-.378.989-1.095.327-.72.328-1.755 0-1.028-.328-1.743a2.3 2.3 0 0 0-.968-1.087q-.643-.37-1.598-.371h-1.517zm9.93 1.283q-.966 0-1.666-.413a2.8 2.8 0 0 1-1.074-1.172q-.375-.759-.375-1.777 0-1.006.375-1.773a2.9 2.9 0 0 1 1.057-1.197q.682-.43 1.594-.431.554 0 1.074.184.52.183.933.575t.652 1.018q.239.622.239 1.513v.452h-5.203v-.955h3.954q0-.503-.204-.89a1.55 1.55 0 0 0-.576-.618 1.6 1.6 0 0 0-.86-.226q-.537 0-.938.264a1.8 1.8 0 0 0-.614.682 2 2 0 0 0-.213.908v.745q0 .657.23 1.117.235.46.652.703.418.239.976.239.363 0 .661-.103.299-.107.515-.315a1.4 1.4 0 0 0 .333-.516l1.206.218q-.145.532-.52.933-.37.396-.933.618a3.5 3.5 0 0 1-1.275.217m5.365-8.859V130h-1.275v-8.727zm3.487 8.872q-.623 0-1.125-.23a1.9 1.9 0 0 1-.797-.678q-.29-.442-.29-1.086 0-.555.213-.912.213-.359.575-.567.363-.209.81-.315t.912-.162l.954-.111q.367-.047.533-.149.166-.103.166-.333v-.03q0-.558-.315-.865-.31-.306-.929-.306-.644 0-1.014.285-.367.281-.507.626l-1.198-.272q.214-.597.622-.963.414-.37.951-.537a3.7 3.7 0 0 1 1.129-.171q.391 0 .831.094.443.09.827.332.388.243.634.695.248.447.248 1.163V130h-1.245v-.895h-.051a1.8 1.8 0 0 1-.371.486 2 2 0 0 1-.634.396 2.5 2.5 0 0 1-.929.158m.277-1.023q.528 0 .903-.209.38-.209.575-.545a1.4 1.4 0 0 0 .201-.729v-.844a.65.65 0 0 1-.265.128q-.192.056-.439.098-.246.039-.481.073l-.392.051a3 3 0 0 0-.678.158q-.302.11-.486.319-.179.205-.179.546 0 .473.35.716.35.238.891.238m5.089 3.333a2.7 2.7 0 0 1-.87-.141l.307-1.044q.35.093.622.081a.75.75 0 0 0 .482-.205q.213-.191.375-.626l.158-.435-2.395-6.63h1.363l1.658 5.079h.068l1.658-5.079h1.368l-2.698 7.419q-.188.51-.477.865a1.9 1.9 0 0 1-.69.537 2.3 2.3 0 0 1-.929.179"/><path fill="#bb3df5" d="M95.97 95.28a.75.75 0 0 0 1.06 0l4.773-4.773a.75.75 0 0 0-1.06-1.06L96.5 93.689l-4.243-4.242a.75.75 0 0 0-1.06 1.06zm1.28-50.03a.75.75 0 0 0-1.5 0h1.5m-.75 49.5h.75v-49.5h-1.5v49.5z"/><path fill="#3d50f5" d="M145.28 224.53a.75.75 0 0 0 0-1.06l-4.773-4.773a.749.749 0 1 0-1.06 1.06l4.242 4.243-4.242 4.243a.749.749 0 1 0 1.06 1.06zm-48.53-67.28a.75.75 0 0 0-1.5 0h1.5m48 66.75v-.75H100v1.5h44.75zM96 220h.75v-62.75h-1.5V220zm4 4v-.75a3.25 3.25 0 0 1-3.25-3.25h-1.5a4.75 4.75 0 0 0 4.75 4.75z"/><path fill="#555962" d="M221.023 142.982q0-1.336.351-2.458a7.3 7.3 0 0 1 1.027-2.07h.973a4.4 4.4 0 0 0-.49.863 8 8 0 0 0-.398 1.122q-.171.607-.267 1.261-.095.65-.095 1.282 0 .845.166 1.711.168.867.451 1.609.285.742.633 1.211h-.973a7.3 7.3 0 0 1-1.027-2.071 8.2 8.2 0 0 1-.351-2.46m5.613 3.128q-.806 0-1.388-.344a2.34 2.34 0 0 1-.895-.977q-.312-.632-.313-1.481 0-.837.313-1.477.316-.64.881-.998.567-.359 1.328-.359.461 0 .895.153.433.153.777.48t.544.848q.198.519.198 1.261v.376h-4.335v-.795h3.295q0-.419-.17-.742a1.3 1.3 0 0 0-.48-.515 1.33 1.33 0 0 0-.717-.188q-.447 0-.781.22a1.5 1.5 0 0 0-.512.568 1.64 1.64 0 0 0-.177.756v.622q0 .546.191.93.196.384.544.586.348.2.813.199.302 0 .55-.085.249-.089.43-.263t.277-.43l1.005.181q-.12.445-.433.778-.309.33-.778.515-.465.181-1.062.181m4.108-.043a.7.7 0 0 1-.501-.205.7.7 0 0 1-.209-.505q0-.291.209-.497a.68.68 0 0 1 .501-.209q.291 0 .501.209a.67.67 0 0 1 .209.497.7.7 0 0 1-.099.359.74.74 0 0 1-.256.256.7.7 0 0 1-.355.095m4.31 2.092q-.651 0-1.119-.17a2.2 2.2 0 0 1-.76-.451 1.9 1.9 0 0 1-.44-.615l.912-.376q.096.156.256.33.164.178.44.302.281.124.721.124.604 0 .998-.294.394-.292.394-.931v-1.072h-.067a2.4 2.4 0 0 1-.277.387 1.5 1.5 0 0 1-.49.369q-.313.156-.814.156-.646 0-1.164-.302a2.13 2.13 0 0 1-.817-.898q-.298-.597-.298-1.467t.294-1.491q.299-.621.817-.952a2.13 2.13 0 0 1 1.176-.334q.507 0 .82.171.312.166.486.391.178.223.274.394h.078v-.885h1.04v5.576q0 .702-.326 1.154a1.9 1.9 0 0 1-.884.667 3.4 3.4 0 0 1-1.25.217m-.011-3.121q.458 0 .774-.213.32-.218.483-.618.167-.405.167-.97 0-.55-.163-.969a1.44 1.44 0 0 0-.48-.654 1.27 1.27 0 0 0-.781-.238q-.48 0-.799.249a1.5 1.5 0 0 0-.483.668q-.16.422-.16.944 0 .536.163.941t.483.632q.324.228.796.228m4.485 1.029a.7.7 0 0 1-.501-.205.7.7 0 0 1-.209-.505q0-.291.209-.497a.68.68 0 0 1 .501-.209q.291 0 .501.209a.67.67 0 0 1 .209.497.7.7 0 0 1-.099.359.74.74 0 0 1-.256.256.7.7 0 0 1-.355.095m6.828.032q-.668 0-1.2-.255a2.2 2.2 0 0 1-.845-.71 1.9 1.9 0 0 1-.338-1.03h1.066q.039.468.415.77.377.302.902.302.42 0 .742-.192.327-.195.512-.536.188-.34.188-.778a1.6 1.6 0 0 0-.192-.791 1.4 1.4 0 0 0-.529-.547 1.5 1.5 0 0 0-.767-.203q-.33 0-.664.114a1.5 1.5 0 0 0-.54.298l-1.005-.149.409-3.665h3.998v.941h-3.086l-.231 2.035h.043a1.7 1.7 0 0 1 .565-.344q.355-.14.76-.139.663 0 1.182.316.523.317.82.863a2.5 2.5 0 0 1 .299 1.25q.003.706-.32 1.261-.32.554-.888.873a2.6 2.6 0 0 1-1.296.316m6.241-.099v-5.455h1.02v.888h.067q.171-.45.558-.703.387-.255.926-.256.547 0 .917.256.373.256.55.703h.057q.195-.436.621-.696.426-.263 1.016-.263.742 0 1.211.466.472.465.472 1.402V146h-1.062v-3.558q0-.555-.301-.803a1.1 1.1 0 0 0-.721-.248q-.52 0-.806.319-.288.316-.288.813V146h-1.058v-3.626q0-.444-.277-.713-.277-.27-.721-.27a1.04 1.04 0 0 0-.558.159q-.252.157-.408.437a1.34 1.34 0 0 0-.153.65V146zm8.728 0v-5.455h1.062V146zm.537-6.296a.68.68 0 0 1-.476-.185.6.6 0 0 1-.196-.447q0-.263.196-.448a.67.67 0 0 1 .476-.188q.276 0 .472.188a.6.6 0 0 1 .199.448.6.6 0 0 1-.199.447.66.66 0 0 1-.472.185m2.905 3.057V146h-1.061v-5.455h1.019v.888h.067q.189-.433.59-.696.404-.263 1.019-.263.558 0 .976.235.42.23.65.689t.231 1.133V146h-1.062v-3.342q0-.593-.309-.926-.309-.338-.848-.338-.37 0-.657.16-.285.16-.451.469-.164.305-.164.738m8.26.977v-3.193h1.066V146h-1.044v-.945h-.057a1.7 1.7 0 0 1-.604.728q-.412.288-1.026.288-.526 0-.93-.231a1.6 1.6 0 0 1-.633-.692q-.227-.459-.227-1.133v-3.47h1.062v3.342q0 .558.309.888t.802.33q.299 0 .593-.149.299-.149.494-.451.2-.302.195-.767m4.929-3.193v.853h-2.98v-.853zm-2.181-1.306h1.062v5.159q0 .309.092.466a.5.5 0 0 0 .238.209q.15.054.323.053.129 0 .224-.017l.149-.029.192.877a2 2 0 0 1-.263.071 2 2 0 0 1-.426.043 1.9 1.9 0 0 1-.781-.149 1.33 1.33 0 0 1-.586-.483q-.224-.327-.224-.82zm5.537 6.871q-.806 0-1.388-.344a2.34 2.34 0 0 1-.895-.977q-.312-.632-.313-1.481 0-.837.313-1.477.316-.64.881-.998.567-.359 1.328-.359.462 0 .895.153t.777.48.544.848q.199.519.199 1.261v.376h-4.336v-.795h3.295q0-.419-.17-.742a1.3 1.3 0 0 0-.48-.515 1.33 1.33 0 0 0-.717-.188q-.447 0-.781.22a1.5 1.5 0 0 0-.512.568 1.64 1.64 0 0 0-.177.756v.622q0 .546.191.93.196.384.544.586.348.2.813.199.302 0 .55-.085.249-.089.43-.263t.277-.43l1.005.181q-.12.445-.433.778-.309.33-.778.515-.465.181-1.062.181m7.496-4.233-.962.171a1.2 1.2 0 0 0-.192-.352.95.95 0 0 0-.348-.273 1.3 1.3 0 0 0-.551-.107q-.45 0-.752.202-.303.2-.302.515 0 .274.202.441t.654.273l.866.199q.753.174 1.122.536t.37.941q0 .49-.285.874a1.86 1.86 0 0 1-.784.596 2.9 2.9 0 0 1-1.162.217q-.916 0-1.495-.391-.578-.393-.71-1.118l1.026-.156q.096.401.395.607.298.202.777.202.523 0 .835-.216.312-.22.312-.537a.56.56 0 0 0-.191-.429q-.189-.174-.579-.263l-.924-.202q-.763-.174-1.129-.554-.362-.381-.362-.963 0-.483.27-.845t.746-.565q.475-.206 1.09-.206.884 0 1.392.384.507.38.671 1.019m3.206 1.105q0 1.338-.352 2.46a7.3 7.3 0 0 1-1.026 2.071h-.973q.263-.352.49-.863t.398-1.119q.17-.61.266-1.264t.096-1.285q0-.843-.167-1.709a9.5 9.5 0 0 0-.451-1.608q-.284-.743-.632-1.211h.973q.675.948 1.026 2.07.352 1.122.352 2.458"/><path stroke="#888c96" stroke-dasharray="8 8" stroke-linecap="round" stroke-linejoin="bevel" stroke-width="1.5" d="M370.25 224H412a4 4 0 0 0 4-4v-13.69m0-28.875V157.25"/><path fill="#23262f" d="m365.62 194.995-.844-.848 5.327-5.306.848.844zm4.483 0-5.331-5.31.848-.844 5.326 5.306zm6.915.878v-8.728h5.472v1.134h-4.155v2.659h3.869v1.129h-3.869v2.672h4.206v1.134zm11.901-4.948-1.155.205a1.4 1.4 0 0 0-.23-.422 1.1 1.1 0 0 0-.418-.328 1.5 1.5 0 0 0-.66-.128q-.541 0-.903.243-.363.238-.363.618a.65.65 0 0 0 .243.528q.243.2.784.328l1.04.239q.903.208 1.347.643.443.434.443 1.13 0 .588-.341 1.048-.336.456-.942.716-.6.26-1.393.26-1.1 0-1.794-.469-.694-.473-.853-1.342l1.232-.188q.115.482.473.729.358.243.933.243.627 0 1.002-.26.375-.264.375-.644a.67.67 0 0 0-.231-.515q-.225-.21-.694-.316l-1.108-.243q-.917-.208-1.355-.664-.435-.456-.435-1.155 0-.58.324-1.014t.895-.678a3.3 3.3 0 0 1 1.308-.247q1.061 0 1.671.46.609.456.805 1.223m4.154 5.08q-.95 0-1.636-.431a2.86 2.86 0 0 1-1.049-1.197q-.366-.763-.366-1.747 0-.998.375-1.76.375-.768 1.057-1.198t1.606-.43q.745 0 1.33.277.584.272.941.767.363.493.431 1.155h-1.24a1.5 1.5 0 0 0-.469-.793q-.361-.332-.972-.332-.533 0-.933.281-.396.277-.618.793-.22.511-.221 1.21 0 .715.217 1.236.217.52.614.805.4.285.941.286.363 0 .657-.133.299-.136.498-.387.205-.252.286-.605h1.24a2.4 2.4 0 0 1-.414 1.133q-.345.498-.924.784-.576.286-1.351.286m5.824.012q-.623 0-1.125-.23a1.9 1.9 0 0 1-.797-.677q-.29-.444-.289-1.087 0-.554.213-.912.213-.357.575-.567.362-.208.81-.315.447-.107.911-.162l.955-.111q.366-.047.533-.149.166-.102.166-.332v-.03q0-.559-.315-.865-.312-.307-.929-.307-.643 0-1.015.286a1.53 1.53 0 0 0-.507.626l-1.197-.273q.213-.595.622-.963a2.5 2.5 0 0 1 .95-.537q.537-.17 1.13-.17.392 0 .831.094.443.089.826.332.388.243.635.695.247.447.247 1.163v4.347h-1.244v-.895h-.051a1.8 1.8 0 0 1-.371.485q-.247.24-.635.397a2.5 2.5 0 0 1-.929.157m.277-1.022q.529 0 .904-.209.378-.209.575-.546.2-.34.2-.728v-.844a.7.7 0 0 1-.264.128 4 4 0 0 1-.439.098q-.247.038-.481.072l-.393.051a3.2 3.2 0 0 0-.677.158 1.17 1.17 0 0 0-.486.32q-.179.204-.179.545 0 .474.35.716.349.239.89.239m5.793-7.85v8.728h-1.275v-8.728zm3.487 8.872q-.623 0-1.125-.23a1.9 1.9 0 0 1-.797-.677q-.29-.444-.29-1.087 0-.554.213-.912.213-.357.575-.567.363-.208.81-.315t.912-.162l.954-.111q.367-.047.533-.149t.166-.332v-.03q0-.559-.315-.865-.312-.307-.929-.307-.643 0-1.014.286-.368.28-.507.626l-1.198-.273q.214-.595.622-.963.414-.37.951-.537.537-.17 1.129-.17.392 0 .831.094.443.089.827.332.388.243.634.695.248.447.248 1.163v4.347h-1.245v-.895h-.051a1.8 1.8 0 0 1-.371.485 1.9 1.9 0 0 1-.635.397 2.5 2.5 0 0 1-.928.157m.276-1.022q.53 0 .904-.209.38-.209.575-.546.2-.34.2-.728v-.844a.7.7 0 0 1-.264.128 4 4 0 0 1-.439.098q-.246.038-.481.072l-.392.051a3.2 3.2 0 0 0-.678.158 1.2 1.2 0 0 0-.486.32q-.179.204-.179.545 0 .474.35.716.35.239.89.239m7.574-5.668v1.023h-3.575v-1.023zm-2.616-1.568h1.274v6.192q0 .37.111.558a.57.57 0 0 0 .285.251q.179.064.388.064.154 0 .268-.021l.179-.034.23 1.052a2.523 2.523 0 0 1-.826.137 2.26 2.26 0 0 1-.938-.179 1.6 1.6 0 0 1-.703-.58q-.268-.392-.268-.984zm3.894 8.114v-6.546h1.274v6.546zm.643-7.556a.8.8 0 0 1-.571-.221.72.72 0 0 1-.234-.537.7.7 0 0 1 .234-.537.8.8 0 0 1 .571-.226q.333 0 .567.226a.7.7 0 0 1 .238.537.72.72 0 0 1-.238.537.8.8 0 0 1-.567.221m4.97 7.688q-.92 0-1.607-.422a2.85 2.85 0 0 1-1.065-1.181q-.38-.758-.379-1.772 0-1.018.379-1.782a2.84 2.84 0 0 1 1.065-1.184q.686-.422 1.607-.422t1.606.422q.687.422 1.066 1.184.38.764.379 1.782 0 1.014-.379 1.772-.38.76-1.066 1.181-.685.422-1.606.422m.004-1.07q.597 0 .989-.315.391-.316.579-.84.192-.524.192-1.155a3.3 3.3 0 0 0-.192-1.15 1.9 1.9 0 0 0-.579-.848q-.393-.32-.989-.32-.6 0-.997.32a1.9 1.9 0 0 0-.584.848 3.4 3.4 0 0 0-.187 1.15q0 .631.187 1.155.192.524.584.84.397.315.997.315m5.611-2.949v3.887h-1.274v-6.546h1.223v1.065h.081q.227-.52.708-.835.486-.315 1.223-.315.669 0 1.172.281.503.277.779.827.277.549.277 1.359v4.164h-1.274v-4.01q0-.713-.371-1.113-.37-.404-1.018-.404-.443 0-.788.191a1.4 1.4 0 0 0-.542.563q-.196.366-.196.886m13.672-2.548a1.25 1.25 0 0 0-.562-.938q-.495-.336-1.245-.336-.536 0-.929.17a1.43 1.43 0 0 0-.609.46 1.1 1.1 0 0 0-.213.661q0 .31.145.537a1.3 1.3 0 0 0 .388.379q.243.15.519.252.278.098.533.161l.852.222q.418.102.857.277.44.175.814.46a2.2 2.2 0 0 1 .605.708q.234.422.234 1.01 0 .741-.383 1.316-.38.576-1.104.908-.72.332-1.743.332-.98 0-1.696-.311-.716-.31-1.121-.882-.404-.575-.447-1.363h1.321q.039.473.307.788.273.31.694.464.427.15.934.15.558 0 .993-.175.438-.179.69-.494a1.17 1.17 0 0 0 .251-.746q0-.388-.221-.635a1.64 1.64 0 0 0-.593-.409 6 6 0 0 0-.839-.286l-1.031-.281q-1.049-.285-1.662-.839-.61-.554-.61-1.466 0-.755.41-1.317a2.7 2.7 0 0 1 1.107-.874q.7-.315 1.577-.315.886 0 1.564.311.683.31 1.074.857.392.54.409 1.244zm5.784-.111v1.023h-3.575v-1.023zm-2.616-1.568h1.274v6.192q0 .37.11.558a.58.58 0 0 0 .286.251q.179.064.388.064.153 0 .268-.021l.179-.034.23 1.052a2.523 2.523 0 0 1-.826.137 2.26 2.26 0 0 1-.938-.179 1.6 1.6 0 0 1-.703-.58q-.268-.392-.268-.984zm6.58 8.246q-.92 0-1.606-.422a2.84 2.84 0 0 1-1.066-1.181q-.379-.758-.379-1.772 0-1.018.379-1.782a2.84 2.84 0 0 1 1.066-1.184q.686-.422 1.606-.422t1.607.422 1.065 1.184q.38.764.379 1.782 0 1.014-.379 1.772-.38.76-1.065 1.181-.687.422-1.607.422m.005-1.07q.596 0 .988-.315.393-.316.58-.84.192-.524.191-1.155a3.3 3.3 0 0 0-.191-1.15 1.87 1.87 0 0 0-.58-.848q-.392-.32-.988-.32-.601 0-.998.32a1.9 1.9 0 0 0-.583.848 3.4 3.4 0 0 0-.188 1.15q0 .631.188 1.155.191.524.583.84.397.315.998.315m4.337 3.392v-9h1.244v1.061h.106q.111-.204.32-.473.208-.268.58-.469.37-.204.98-.204.792 0 1.415.4.622.4.975 1.155.358.754.358 1.816 0 1.061-.353 1.819-.354.754-.972 1.164a2.52 2.52 0 0 1-1.41.404q-.597 0-.976-.2a1.8 1.8 0 0 1-.588-.469 3.6 3.6 0 0 1-.329-.477h-.076v3.473zm1.248-5.727q0 .69.2 1.21t.58.814q.38.29.929.29.571 0 .955-.303.382-.306.579-.831.2-.524.2-1.18 0-.648-.196-1.164a1.77 1.77 0 0 0-.579-.813q-.383-.299-.959-.299-.554 0-.937.286-.38.285-.576.797-.195.511-.196 1.193m10.931-1.675-1.155.205a1.4 1.4 0 0 0-.23-.422 1.14 1.14 0 0 0-.418-.328 1.5 1.5 0 0 0-.66-.128q-.541 0-.904.243-.362.238-.362.618a.65.65 0 0 0 .243.528q.243.2.784.328l1.04.239q.903.208 1.346.643.444.434.444 1.13 0 .588-.341 1.048-.338.456-.942.716-.601.26-1.394.26-1.1 0-1.794-.469-.695-.473-.852-1.342l1.232-.188q.114.482.473.729.357.243.933.243.626 0 1.001-.26.375-.264.375-.644a.67.67 0 0 0-.23-.515q-.226-.21-.694-.316l-1.108-.243q-.917-.208-1.355-.664-.435-.456-.435-1.155 0-.58.324-1.014t.895-.678q.57-.247 1.308-.247 1.06 0 1.67.46.61.456.806 1.223"/></g><defs><clipPath id="a"><path fill="#fff" d="M0 0h720v252H0z"/></clipPath><clipPath id="b"><path fill="#fff" d="M0-70h720v314H0z"/></clipPath><clipPath id="c"><path fill="#fff" d="M43 20h16v16H43z"/></clipPath><clipPath id="d"><path fill="#fff" d="M156 216h16v16h-16z"/></clipPath></defs></svg>