<svg xmlns="http://www.w3.org/2000/svg" width="720" height="117" fill="none"><g clip-path="url(#a)"><path fill="#17181c" d="M0 0h720v117H0z"/><g fill="#353841" clip-path="url(#b)" opacity=".5"><path d="M-11 324a1 1 0 1 1 0 2 1 1 0 0 1 0-2M3 324a1 1 0 1 1 0 2 1 1 0 0 1 0-2M17 324a1 1 0 1 1 0 2 1 1 0 0 1 0-2M31 324a1 1 0 1 1 0 2 1 1 0 0 1 0-2M45 324a1 1 0 1 1 0 2 1 1 0 0 1 0-2M59 324a1 1 0 1 1 0 2 1 1 0 0 1 0-2M73 324a1 1 0 1 1 0 2 1 1 0 0 1 0-2M87 324a1 1 0 1 1 0 2 1 1 0 0 1 0-2M101 324a1 1 0 1 1 0 2 1 1 0 0 1 0-2M115 324a1 1 0 1 1 0 2 1 1 0 0 1 0-2M129 324a1 1 0 1 1 0 2 1 1 0 0 1 0-2M143 324a1 1 0 1 1 0 2 1 1 0 0 1 0-2M157 324a1 1 0 1 1 0 2 1 1 0 0 1 0-2M171 324a1 1 0 1 1 0 2 1 1 0 0 1 0-2M185 324a1 1 0 1 1 0 2 1 1 0 0 1 0-2M199 324a1 1 0 1 1 0 2 1 1 0 0 1 0-2M213 324a1 1 0 1 1 0 2 1 1 0 0 1 0-2M227 324a1 1 0 1 1 0 2 1 1 0 0 1 0-2M241 324a1 1 0 1 1 0 2 1 1 0 0 1 0-2M255 324a1 1 0 1 1 0 2 1 1 0 0 1 0-2M269 324a1 1 0 1 1 0 2 1 1 0 0 1 0-2M283 324a1 1 0 1 1 0 2 1 1 0 0 1 0-2M297 324a1 1 0 1 1 0 2 1 1 0 0 1 0-2M311 324a1 1 0 1 1 0 2 1 1 0 0 1 0-2M325 324a1 1 0 1 1 0 2 1 1 0 0 1 0-2M339 324a1 1 0 1 1 0 2 1 1 0 0 1 0-2M353 324a1 1 0 1 1 0 2 1 1 0 0 1 0-2M367 324a1 1 0 1 1 0 2 1 1 0 0 1 0-2M381 324a1 1 0 1 1 0 2 1 1 0 0 1 0-2M395 324a1 1 0 1 1 0 2 1 1 0 0 1 0-2M409 324a1 1 0 1 1 0 2 1 1 0 0 1 0-2M423 324a1 1 0 1 1 0 2 1 1 0 0 1 0-2M437 324a1 1 0 1 1 0 2 1 1 0 0 1 0-2M451 324a1 1 0 1 1 0 2 1 1 0 0 1 0-2M465 324a1 1 0 1 1 0 2 1 1 0 0 1 0-2M479 324a1 1 0 1 1 0 2 1 1 0 0 1 0-2M493 324a1 1 0 1 1 0 2 1 1 0 0 1 0-2M507 324a1 1 0 1 1 0 2 1 1 0 0 1 0-2M521 324a1 1 0 1 1 0 2 1 1 0 0 1 0-2M535 324a1 1 0 1 1 0 2 1 1 0 0 1 0-2M549 324a1 1 0 1 1 0 2 1 1 0 0 1 0-2M563 324a1 1 0 1 1 0 2 1 1 0 0 1 0-2M577 324a1 1 0 1 1 0 2 1 1 0 0 1 0-2M591 324a1 1 0 1 1 0 2 1 1 0 0 1 0-2M605 324a1 1 0 1 1 0 2 1 1 0 0 1 0-2M619 324a1 1 0 1 1 0 2 1 1 0 0 1 0-2M633 324a1 1 0 1 1 0 2 1 1 0 0 1 0-2M647 324a1 1 0 1 1 0 2 1 1 0 0 1 0-2M661 324a1 1 0 1 1 0 2 1 1 0 0 1 0-2M675 324a1 1 0 1 1 0 2 1 1 0 0 1 0-2M689 324a1 1 0 1 1 0 2 1 1 0 0 1 0-2M703 324a1 1 0 1 1 0 2 1 1 0 0 1 0-2M-11 310a1 1 0 1 1 0 2 1 1 0 0 1 0-2M3 310a1 1 0 1 1 0 2 1 1 0 0 1 0-2M17 310a1 1 0 1 1 0 2 1 1 0 0 1 0-2M31 310a1 1 0 1 1 0 2 1 1 0 0 1 0-2M45 310a1 1 0 1 1 0 2 1 1 0 0 1 0-2M59 310a1 1 0 1 1 0 2 1 1 0 0 1 0-2M73 310a1 1 0 1 1 0 2 1 1 0 0 1 0-2M87 310a1 1 0 1 1 0 2 1 1 0 0 1 0-2M101 310a1 1 0 1 1 0 2 1 1 0 0 1 0-2M115 310a1 1 0 1 1 0 2 1 1 0 0 1 0-2M129 310a1 1 0 1 1 0 2 1 1 0 0 1 0-2M143 310a1 1 0 1 1 0 2 1 1 0 0 1 0-2M157 310a1 1 0 1 1 0 2 1 1 0 0 1 0-2M171 310a1 1 0 1 1 0 2 1 1 0 0 1 0-2M185 310a1 1 0 1 1 0 2 1 1 0 0 1 0-2M199 310a1 1 0 1 1 0 2 1 1 0 0 1 0-2M213 310a1 1 0 1 1 0 2 1 1 0 0 1 0-2M227 310a1 1 0 1 1 0 2 1 1 0 0 1 0-2M241 310a1 1 0 1 1 0 2 1 1 0 0 1 0-2M255 310a1 1 0 1 1 0 2 1 1 0 0 1 0-2M269 310a1 1 0 1 1 0 2 1 1 0 0 1 0-2M283 310a1 1 0 1 1 0 2 1 1 0 0 1 0-2M297 310a1 1 0 1 1 0 2 1 1 0 0 1 0-2M311 310a1 1 0 1 1 0 2 1 1 0 0 1 0-2M325 310a1 1 0 1 1 0 2 1 1 0 0 1 0-2M339 310a1 1 0 1 1 0 2 1 1 0 0 1 0-2M353 310a1 1 0 1 1 0 2 1 1 0 0 1 0-2M367 310a1 1 0 1 1 0 2 1 1 0 0 1 0-2M381 310a1 1 0 1 1 0 2 1 1 0 0 1 0-2M395 310a1 1 0 1 1 0 2 1 1 0 0 1 0-2M409 310a1 1 0 1 1 0 2 1 1 0 0 1 0-2M423 310a1 1 0 1 1 0 2 1 1 0 0 1 0-2M437 310a1 1 0 1 1 0 2 1 1 0 0 1 0-2M451 310a1 1 0 1 1 0 2 1 1 0 0 1 0-2M465 310a1 1 0 1 1 0 2 1 1 0 0 1 0-2M479 310a1 1 0 1 1 0 2 1 1 0 0 1 0-2M493 310a1 1 0 1 1 0 2 1 1 0 0 1 0-2M507 310a1 1 0 1 1 0 2 1 1 0 0 1 0-2M521 310a1 1 0 1 1 0 2 1 1 0 0 1 0-2M535 310a1 1 0 1 1 0 2 1 1 0 0 1 0-2M549 310a1 1 0 1 1 0 2 1 1 0 0 1 0-2M563 310a1 1 0 1 1 0 2 1 1 0 0 1 0-2M577 310a1 1 0 1 1 0 2 1 1 0 0 1 0-2M591 310a1 1 0 1 1 0 2 1 1 0 0 1 0-2M605 310a1 1 0 1 1 0 2 1 1 0 0 1 0-2M619 310a1 1 0 1 1 0 2 1 1 0 0 1 0-2M633 310a1 1 0 1 1 0 2 1 1 0 0 1 0-2M647 310a1 1 0 1 1 0 2 1 1 0 0 1 0-2M661 310a1 1 0 1 1 0 2 1 1 0 0 1 0-2M675 310a1 1 0 1 1 0 2 1 1 0 0 1 0-2M689 310a1 1 0 1 1 0 2 1 1 0 0 1 0-2M703 310a1 1 0 1 1 0 2 1 1 0 0 1 0-2M717 310a1 1 0 1 1 0 2 1 1 0 0 1 0-2M-11 296a1 1 0 1 1 0 2 1 1 0 0 1 0-2M3 296a1 1 0 1 1 0 2 1 1 0 0 1 0-2M17 296a1 1 0 1 1 0 2 1 1 0 0 1 0-2M31 296a1 1 0 1 1 0 2 1 1 0 0 1 0-2M45 296a1 1 0 1 1 0 2 1 1 0 0 1 0-2M59 296a1 1 0 1 1 0 2 1 1 0 0 1 0-2M73 296a1 1 0 1 1 0 2 1 1 0 0 1 0-2M87 296a1 1 0 1 1 0 2 1 1 0 0 1 0-2M101 296a1 1 0 1 1 0 2 1 1 0 0 1 0-2M115 296a1 1 0 1 1 0 2 1 1 0 0 1 0-2M129 296a1 1 0 1 1 0 2 1 1 0 0 1 0-2M143 296a1 1 0 1 1 0 2 1 1 0 0 1 0-2M157 296a1 1 0 1 1 0 2 1 1 0 0 1 0-2M171 296a1 1 0 1 1 0 2 1 1 0 0 1 0-2M185 296a1 1 0 1 1 0 2 1 1 0 0 1 0-2M199 296a1 1 0 1 1 0 2 1 1 0 0 1 0-2M213 296a1 1 0 1 1 0 2 1 1 0 0 1 0-2M227 296a1 1 0 1 1 0 2 1 1 0 0 1 0-2M241 296a1 1 0 1 1 0 2 1 1 0 0 1 0-2M255 296a1 1 0 1 1 0 2 1 1 0 0 1 0-2M269 296a1 1 0 1 1 0 2 1 1 0 0 1 0-2M283 296a1 1 0 1 1 0 2 1 1 0 0 1 0-2M297 296a1 1 0 1 1 0 2 1 1 0 0 1 0-2M311 296a1 1 0 1 1 0 2 1 1 0 0 1 0-2M325 296a1 1 0 1 1 0 2 1 1 0 0 1 0-2M339 296a1 1 0 1 1 0 2 1 1 0 0 1 0-2M353 296a1 1 0 1 1 0 2 1 1 0 0 1 0-2M367 296a1 1 0 1 1 0 2 1 1 0 0 1 0-2M381 296a1 1 0 1 1 0 2 1 1 0 0 1 0-2M395 296a1 1 0 1 1 0 2 1 1 0 0 1 0-2M409 296a1 1 0 1 1 0 2 1 1 0 0 1 0-2M423 296a1 1 0 1 1 0 2 1 1 0 0 1 0-2M437 296a1 1 0 1 1 0 2 1 1 0 0 1 0-2M451 296a1 1 0 1 1 0 2 1 1 0 0 1 0-2M465 296a1 1 0 1 1 0 2 1 1 0 0 1 0-2M479 296a1 1 0 1 1 0 2 1 1 0 0 1 0-2M493 296a1 1 0 1 1 0 2 1 1 0 0 1 0-2M507 296a1 1 0 1 1 0 2 1 1 0 0 1 0-2M521 296a1 1 0 1 1 0 2 1 1 0 0 1 0-2M535 296a1 1 0 1 1 0 2 1 1 0 0 1 0-2M549 296a1 1 0 1 1 0 2 1 1 0 0 1 0-2M563 296a1 1 0 1 1 0 2 1 1 0 0 1 0-2M577 296a1 1 0 1 1 0 2 1 1 0 0 1 0-2M591 296a1 1 0 1 1 0 2 1 1 0 0 1 0-2M605 296a1 1 0 1 1 0 2 1 1 0 0 1 0-2M619 296a1 1 0 1 1 0 2 1 1 0 0 1 0-2M633 296a1 1 0 1 1 0 2 1 1 0 0 1 0-2M647 296a1 1 0 1 1 0 2 1 1 0 0 1 0-2M661 296a1 1 0 1 1 0 2 1 1 0 0 1 0-2M675 296a1 1 0 1 1 0 2 1 1 0 0 1 0-2M689 296a1 1 0 1 1 0 2 1 1 0 0 1 0-2M703 296a1 1 0 1 1 0 2 1 1 0 0 1 0-2M717 296a1 1 0 1 1 0 2 1 1 0 0 1 0-2M-11 282a1 1 0 1 1 0 2 1 1 0 0 1 0-2M3 282a1 1 0 1 1 0 2 1 1 0 0 1 0-2M17 282a1 1 0 1 1 0 2 1 1 0 0 1 0-2M31 282a1 1 0 1 1 0 2 1 1 0 0 1 0-2M45 282a1 1 0 1 1 0 2 1 1 0 0 1 0-2M59 282a1 1 0 1 1 0 2 1 1 0 0 1 0-2M73 282a1 1 0 1 1 0 2 1 1 0 0 1 0-2M87 282a1 1 0 1 1 0 2 1 1 0 0 1 0-2M101 282a1 1 0 1 1 0 2 1 1 0 0 1 0-2M115 282a1 1 0 1 1 0 2 1 1 0 0 1 0-2M129 282a1 1 0 1 1 0 2 1 1 0 0 1 0-2M143 282a1 1 0 1 1 0 2 1 1 0 0 1 0-2M157 282a1 1 0 1 1 0 2 1 1 0 0 1 0-2M171 282a1 1 0 1 1 0 2 1 1 0 0 1 0-2M185 282a1 1 0 1 1 0 2 1 1 0 0 1 0-2M199 282a1 1 0 1 1 0 2 1 1 0 0 1 0-2M213 282a1 1 0 1 1 0 2 1 1 0 0 1 0-2M227 282a1 1 0 1 1 0 2 1 1 0 0 1 0-2M241 282a1 1 0 1 1 0 2 1 1 0 0 1 0-2M255 282a1 1 0 1 1 0 2 1 1 0 0 1 0-2M269 282a1 1 0 1 1 0 2 1 1 0 0 1 0-2M283 282a1 1 0 1 1 0 2 1 1 0 0 1 0-2M297 282a1 1 0 1 1 0 2 1 1 0 0 1 0-2M311 282a1 1 0 1 1 0 2 1 1 0 0 1 0-2M325 282a1 1 0 1 1 0 2 1 1 0 0 1 0-2M339 282a1 1 0 1 1 0 2 1 1 0 0 1 0-2M353 282a1 1 0 1 1 0 2 1 1 0 0 1 0-2M367 282a1 1 0 1 1 0 2 1 1 0 0 1 0-2M381 282a1 1 0 1 1 0 2 1 1 0 0 1 0-2M395 282a1 1 0 1 1 0 2 1 1 0 0 1 0-2M409 282a1 1 0 1 1 0 2 1 1 0 0 1 0-2M423 282a1 1 0 1 1 0 2 1 1 0 0 1 0-2M437 282a1 1 0 1 1 0 2 1 1 0 0 1 0-2M451 282a1 1 0 1 1 0 2 1 1 0 0 1 0-2M465 282a1 1 0 1 1 0 2 1 1 0 0 1 0-2M479 282a1 1 0 1 1 0 2 1 1 0 0 1 0-2M493 282a1 1 0 1 1 0 2 1 1 0 0 1 0-2M507 282a1 1 0 1 1 0 2 1 1 0 0 1 0-2M521 282a1 1 0 1 1 0 2 1 1 0 0 1 0-2M535 282a1 1 0 1 1 0 2 1 1 0 0 1 0-2M549 282a1 1 0 1 1 0 2 1 1 0 0 1 0-2M563 282a1 1 0 1 1 0 2 1 1 0 0 1 0-2M577 282a1 1 0 1 1 0 2 1 1 0 0 1 0-2M591 282a1 1 0 1 1 0 2 1 1 0 0 1 0-2M605 282a1 1 0 1 1 0 2 1 1 0 0 1 0-2M619 282a1 1 0 1 1 0 2 1 1 0 0 1 0-2M633 282a1 1 0 1 1 0 2 1 1 0 0 1 0-2M647 282a1 1 0 1 1 0 2 1 1 0 0 1 0-2M661 282a1 1 0 1 1 0 2 1 1 0 0 1 0-2M675 282a1 1 0 1 1 0 2 1 1 0 0 1 0-2M689 282a1 1 0 1 1 0 2 1 1 0 0 1 0-2M703 282a1 1 0 1 1 0 2 1 1 0 0 1 0-2M717 282a1 1 0 1 1 0 2 1 1 0 0 1 0-2M-11 268a1 1 0 1 1 0 2 1 1 0 0 1 0-2M3 268a1 1 0 1 1 0 2 1 1 0 0 1 0-2M17 268a1 1 0 1 1 0 2 1 1 0 0 1 0-2M31 268a1 1 0 1 1 0 2 1 1 0 0 1 0-2M45 268a1 1 0 1 1 0 2 1 1 0 0 1 0-2M59 268a1 1 0 1 1 0 2 1 1 0 0 1 0-2M73 268a1 1 0 1 1 0 2 1 1 0 0 1 0-2M87 268a1 1 0 1 1 0 2 1 1 0 0 1 0-2M101 268a1 1 0 1 1 0 2 1 1 0 0 1 0-2M115 268a1 1 0 1 1 0 2 1 1 0 0 1 0-2M129 268a1 1 0 1 1 0 2 1 1 0 0 1 0-2M143 268a1 1 0 1 1 0 2 1 1 0 0 1 0-2M157 268a1 1 0 1 1 0 2 1 1 0 0 1 0-2M171 268a1 1 0 1 1 0 2 1 1 0 0 1 0-2M185 268a1 1 0 1 1 0 2 1 1 0 0 1 0-2M199 268a1 1 0 1 1 0 2 1 1 0 0 1 0-2M213 268a1 1 0 1 1 0 2 1 1 0 0 1 0-2M227 268a1 1 0 1 1 0 2 1 1 0 0 1 0-2M241 268a1 1 0 1 1 0 2 1 1 0 0 1 0-2M255 268a1 1 0 1 1 0 2 1 1 0 0 1 0-2M269 268a1 1 0 1 1 0 2 1 1 0 0 1 0-2M283 268a1 1 0 1 1 0 2 1 1 0 0 1 0-2M297 268a1 1 0 1 1 0 2 1 1 0 0 1 0-2M311 268a1 1 0 1 1 0 2 1 1 0 0 1 0-2M325 268a1 1 0 1 1 0 2 1 1 0 0 1 0-2M339 268a1 1 0 1 1 0 2 1 1 0 0 1 0-2M353 268a1 1 0 1 1 0 2 1 1 0 0 1 0-2M367 268a1 1 0 1 1 0 2 1 1 0 0 1 0-2M381 268a1 1 0 1 1 0 2 1 1 0 0 1 0-2M395 268a1 1 0 1 1 0 2 1 1 0 0 1 0-2M409 268a1 1 0 1 1 0 2 1 1 0 0 1 0-2M423 268a1 1 0 1 1 0 2 1 1 0 0 1 0-2M437 268a1 1 0 1 1 0 2 1 1 0 0 1 0-2M451 268a1 1 0 1 1 0 2 1 1 0 0 1 0-2M465 268a1 1 0 1 1 0 2 1 1 0 0 1 0-2M479 268a1 1 0 1 1 0 2 1 1 0 0 1 0-2M493 268a1 1 0 1 1 0 2 1 1 0 0 1 0-2M507 268a1 1 0 1 1 0 2 1 1 0 0 1 0-2M521 268a1 1 0 1 1 0 2 1 1 0 0 1 0-2M535 268a1 1 0 1 1 0 2 1 1 0 0 1 0-2M549 268a1 1 0 1 1 0 2 1 1 0 0 1 0-2M563 268a1 1 0 1 1 0 2 1 1 0 0 1 0-2M577 268a1 1 0 1 1 0 2 1 1 0 0 1 0-2M591 268a1 1 0 1 1 0 2 1 1 0 0 1 0-2M605 268a1 1 0 1 1 0 2 1 1 0 0 1 0-2M619 268a1 1 0 1 1 0 2 1 1 0 0 1 0-2M633 268a1 1 0 1 1 0 2 1 1 0 0 1 0-2M647 268a1 1 0 1 1 0 2 1 1 0 0 1 0-2M661 268a1 1 0 1 1 0 2 1 1 0 0 1 0-2M675 268a1 1 0 1 1 0 2 1 1 0 0 1 0-2M689 268a1 1 0 1 1 0 2 1 1 0 0 1 0-2M703 268a1 1 0 1 1 0 2 1 1 0 0 1 0-2M717 268a1 1 0 1 1 0 2 1 1 0 0 1 0-2M-11 254a1 1 0 1 1 0 2 1 1 0 0 1 0-2M3 254a1 1 0 1 1 0 2 1 1 0 0 1 0-2M17 254a1 1 0 1 1 0 2 1 1 0 0 1 0-2M31 254a1 1 0 1 1 0 2 1 1 0 0 1 0-2M45 254a1 1 0 1 1 0 2 1 1 0 0 1 0-2M59 254a1 1 0 1 1 0 2 1 1 0 0 1 0-2M73 254a1 1 0 1 1 0 2 1 1 0 0 1 0-2M87 254a1 1 0 1 1 0 2 1 1 0 0 1 0-2M101 254a1 1 0 1 1 0 2 1 1 0 0 1 0-2M115 254a1 1 0 1 1 0 2 1 1 0 0 1 0-2M129 254a1 1 0 1 1 0 2 1 1 0 0 1 0-2M143 254a1 1 0 1 1 0 2 1 1 0 0 1 0-2M157 254a1 1 0 1 1 0 2 1 1 0 0 1 0-2M171 254a1 1 0 1 1 0 2 1 1 0 0 1 0-2M185 254a1 1 0 1 1 0 2 1 1 0 0 1 0-2M199 254a1 1 0 1 1 0 2 1 1 0 0 1 0-2M213 254a1 1 0 1 1 0 2 1 1 0 0 1 0-2M227 254a1 1 0 1 1 0 2 1 1 0 0 1 0-2M241 254a1 1 0 1 1 0 2 1 1 0 0 1 0-2M255 254a1 1 0 1 1 0 2 1 1 0 0 1 0-2M269 254a1 1 0 1 1 0 2 1 1 0 0 1 0-2M283 254a1 1 0 1 1 0 2 1 1 0 0 1 0-2M297 254a1 1 0 1 1 0 2 1 1 0 0 1 0-2M311 254a1 1 0 1 1 0 2 1 1 0 0 1 0-2M325 254a1 1 0 1 1 0 2 1 1 0 0 1 0-2M339 254a1 1 0 1 1 0 2 1 1 0 0 1 0-2M353 254a1 1 0 1 1 0 2 1 1 0 0 1 0-2M367 254a1 1 0 1 1 0 2 1 1 0 0 1 0-2M381 254a1 1 0 1 1 0 2 1 1 0 0 1 0-2M395 254a1 1 0 1 1 0 2 1 1 0 0 1 0-2M409 254a1 1 0 1 1 0 2 1 1 0 0 1 0-2M423 254a1 1 0 1 1 0 2 1 1 0 0 1 0-2M437 254a1 1 0 1 1 0 2 1 1 0 0 1 0-2M451 254a1 1 0 1 1 0 2 1 1 0 0 1 0-2M465 254a1 1 0 1 1 0 2 1 1 0 0 1 0-2M479 254a1 1 0 1 1 0 2 1 1 0 0 1 0-2M493 254a1 1 0 1 1 0 2 1 1 0 0 1 0-2M507 254a1 1 0 1 1 0 2 1 1 0 0 1 0-2M521 254a1 1 0 1 1 0 2 1 1 0 0 1 0-2M535 254a1 1 0 1 1 0 2 1 1 0 0 1 0-2M549 254a1 1 0 1 1 0 2 1 1 0 0 1 0-2M563 254a1 1 0 1 1 0 2 1 1 0 0 1 0-2M577 254a1 1 0 1 1 0 2 1 1 0 0 1 0-2M591 254a1 1 0 1 1 0 2 1 1 0 0 1 0-2M605 254a1 1 0 1 1 0 2 1 1 0 0 1 0-2M619 254a1 1 0 1 1 0 2 1 1 0 0 1 0-2M633 254a1 1 0 1 1 0 2 1 1 0 0 1 0-2M647 254a1 1 0 1 1 0 2 1 1 0 0 1 0-2M661 254a1 1 0 1 1 0 2 1 1 0 0 1 0-2M675 254a1 1 0 1 1 0 2 1 1 0 0 1 0-2M689 254a1 1 0 1 1 0 2 1 1 0 0 1 0-2M703 254a1 1 0 1 1 0 2 1 1 0 0 1 0-2M717 254a1 1 0 1 1 0 2 1 1 0 0 1 0-2M-11 240a1 1 0 1 1 0 2 1 1 0 0 1 0-2M3 240a1 1 0 1 1 0 2 1 1 0 0 1 0-2M17 240a1 1 0 1 1 0 2 1 1 0 0 1 0-2M31 240a1 1 0 1 1 0 2 1 1 0 0 1 0-2M45 240a1 1 0 1 1 0 2 1 1 0 0 1 0-2M59 240a1 1 0 1 1 0 2 1 1 0 0 1 0-2M73 240a1 1 0 1 1 0 2 1 1 0 0 1 0-2M87 240a1 1 0 1 1 0 2 1 1 0 0 1 0-2M101 240a1 1 0 1 1 0 2 1 1 0 0 1 0-2M115 240a1 1 0 1 1 0 2 1 1 0 0 1 0-2M129 240a1 1 0 1 1 0 2 1 1 0 0 1 0-2M143 240a1 1 0 1 1 0 2 1 1 0 0 1 0-2M157 240a1 1 0 1 1 0 2 1 1 0 0 1 0-2M171 240a1 1 0 1 1 0 2 1 1 0 0 1 0-2M185 240a1 1 0 1 1 0 2 1 1 0 0 1 0-2M199 240a1 1 0 1 1 0 2 1 1 0 0 1 0-2M213 240a1 1 0 1 1 0 2 1 1 0 0 1 0-2M227 240a1 1 0 1 1 0 2 1 1 0 0 1 0-2M241 240a1 1 0 1 1 0 2 1 1 0 0 1 0-2M255 240a1 1 0 1 1 0 2 1 1 0 0 1 0-2M269 240a1 1 0 1 1 0 2 1 1 0 0 1 0-2M283 240a1 1 0 1 1 0 2 1 1 0 0 1 0-2M297 240a1 1 0 1 1 0 2 1 1 0 0 1 0-2M311 240a1 1 0 1 1 0 2 1 1 0 0 1 0-2M325 240a1 1 0 1 1 0 2 1 1 0 0 1 0-2M339 240a1 1 0 1 1 0 2 1 1 0 0 1 0-2M353 240a1 1 0 1 1 0 2 1 1 0 0 1 0-2M367 240a1 1 0 1 1 0 2 1 1 0 0 1 0-2M381 240a1 1 0 1 1 0 2 1 1 0 0 1 0-2M395 240a1 1 0 1 1 0 2 1 1 0 0 1 0-2M409 240a1 1 0 1 1 0 2 1 1 0 0 1 0-2M423 240a1 1 0 1 1 0 2 1 1 0 0 1 0-2M437 240a1 1 0 1 1 0 2 1 1 0 0 1 0-2M451 240a1 1 0 1 1 0 2 1 1 0 0 1 0-2M465 240a1 1 0 1 1 0 2 1 1 0 0 1 0-2M479 240a1 1 0 1 1 0 2 1 1 0 0 1 0-2M493 240a1 1 0 1 1 0 2 1 1 0 0 1 0-2M507 240a1 1 0 1 1 0 2 1 1 0 0 1 0-2M521 240a1 1 0 1 1 0 2 1 1 0 0 1 0-2M535 240a1 1 0 1 1 0 2 1 1 0 0 1 0-2M549 240a1 1 0 1 1 0 2 1 1 0 0 1 0-2M563 240a1 1 0 1 1 0 2 1 1 0 0 1 0-2M577 240a1 1 0 1 1 0 2 1 1 0 0 1 0-2M591 240a1 1 0 1 1 0 2 1 1 0 0 1 0-2M605 240a1 1 0 1 1 0 2 1 1 0 0 1 0-2M619 240a1 1 0 1 1 0 2 1 1 0 0 1 0-2M633 240a1 1 0 1 1 0 2 1 1 0 0 1 0-2M647 240a1 1 0 1 1 0 2 1 1 0 0 1 0-2M661 240a1 1 0 1 1 0 2 1 1 0 0 1 0-2M675 240a1 1 0 1 1 0 2 1 1 0 0 1 0-2M689 240a1 1 0 1 1 0 2 1 1 0 0 1 0-2M703 240a1 1 0 1 1 0 2 1 1 0 0 1 0-2M717 240a1 1 0 1 1 0 2 1 1 0 0 1 0-2M-11 226a1 1 0 1 1 0 2 1 1 0 0 1 0-2M3 226a1 1 0 1 1 0 2 1 1 0 0 1 0-2M17 226a1 1 0 1 1 0 2 1 1 0 0 1 0-2M31 226a1 1 0 1 1 0 2 1 1 0 0 1 0-2M45 226a1 1 0 1 1 0 2 1 1 0 0 1 0-2M59 226a1 1 0 1 1 0 2 1 1 0 0 1 0-2M73 226a1 1 0 1 1 0 2 1 1 0 0 1 0-2M87 226a1 1 0 1 1 0 2 1 1 0 0 1 0-2M101 226a1 1 0 1 1 0 2 1 1 0 0 1 0-2M115 226a1 1 0 1 1 0 2 1 1 0 0 1 0-2M129 226a1 1 0 1 1 0 2 1 1 0 0 1 0-2M143 226a1 1 0 1 1 0 2 1 1 0 0 1 0-2M157 226a1 1 0 1 1 0 2 1 1 0 0 1 0-2M171 226a1 1 0 1 1 0 2 1 1 0 0 1 0-2M185 226a1 1 0 1 1 0 2 1 1 0 0 1 0-2M199 226a1 1 0 1 1 0 2 1 1 0 0 1 0-2M213 226a1 1 0 1 1 0 2 1 1 0 0 1 0-2M227 226a1 1 0 1 1 0 2 1 1 0 0 1 0-2M241 226a1 1 0 1 1 0 2 1 1 0 0 1 0-2M255 226a1 1 0 1 1 0 2 1 1 0 0 1 0-2M269 226a1 1 0 1 1 0 2 1 1 0 0 1 0-2M283 226a1 1 0 1 1 0 2 1 1 0 0 1 0-2M297 226a1 1 0 1 1 0 2 1 1 0 0 1 0-2M311 226a1 1 0 1 1 0 2 1 1 0 0 1 0-2M325 226a1 1 0 1 1 0 2 1 1 0 0 1 0-2M339 226a1 1 0 1 1 0 2 1 1 0 0 1 0-2M353 226a1 1 0 1 1 0 2 1 1 0 0 1 0-2M367 226a1 1 0 1 1 0 2 1 1 0 0 1 0-2M381 226a1 1 0 1 1 0 2 1 1 0 0 1 0-2M395 226a1 1 0 1 1 0 2 1 1 0 0 1 0-2M409 226a1 1 0 1 1 0 2 1 1 0 0 1 0-2M423 226a1 1 0 1 1 0 2 1 1 0 0 1 0-2M437 226a1 1 0 1 1 0 2 1 1 0 0 1 0-2M451 226a1 1 0 1 1 0 2 1 1 0 0 1 0-2M465 226a1 1 0 1 1 0 2 1 1 0 0 1 0-2M479 226a1 1 0 1 1 0 2 1 1 0 0 1 0-2M493 226a1 1 0 1 1 0 2 1 1 0 0 1 0-2M507 226a1 1 0 1 1 0 2 1 1 0 0 1 0-2M521 226a1 1 0 1 1 0 2 1 1 0 0 1 0-2M535 226a1 1 0 1 1 0 2 1 1 0 0 1 0-2M549 226a1 1 0 1 1 0 2 1 1 0 0 1 0-2M563 226a1 1 0 1 1 0 2 1 1 0 0 1 0-2M577 226a1 1 0 1 1 0 2 1 1 0 0 1 0-2M591 226a1 1 0 1 1 0 2 1 1 0 0 1 0-2M605 226a1 1 0 1 1 0 2 1 1 0 0 1 0-2M619 226a1 1 0 1 1 0 2 1 1 0 0 1 0-2M633 226a1 1 0 1 1 0 2 1 1 0 0 1 0-2M647 226a1 1 0 1 1 0 2 1 1 0 0 1 0-2M661 226a1 1 0 1 1 0 2 1 1 0 0 1 0-2M675 226a1 1 0 1 1 0 2 1 1 0 0 1 0-2M689 226a1 1 0 1 1 0 2 1 1 0 0 1 0-2M703 226a1 1 0 1 1 0 2 1 1 0 0 1 0-2M717 226a1 1 0 1 1 0 2 1 1 0 0 1 0-2M-11 212a1 1 0 1 1 0 2 1 1 0 0 1 0-2M3 212a1 1 0 1 1 0 2 1 1 0 0 1 0-2M17 212a1 1 0 1 1 0 2 1 1 0 0 1 0-2M31 212a1 1 0 1 1 0 2 1 1 0 0 1 0-2M45 212a1 1 0 1 1 0 2 1 1 0 0 1 0-2M59 212a1 1 0 1 1 0 2 1 1 0 0 1 0-2M73 212a1 1 0 1 1 0 2 1 1 0 0 1 0-2M87 212a1 1 0 1 1 0 2 1 1 0 0 1 0-2M101 212a1 1 0 1 1 0 2 1 1 0 0 1 0-2M115 212a1 1 0 1 1 0 2 1 1 0 0 1 0-2M129 212a1 1 0 1 1 0 2 1 1 0 0 1 0-2M143 212a1 1 0 1 1 0 2 1 1 0 0 1 0-2M157 212a1 1 0 1 1 0 2 1 1 0 0 1 0-2M171 212a1 1 0 1 1 0 2 1 1 0 0 1 0-2M185 212a1 1 0 1 1 0 2 1 1 0 0 1 0-2M199 212a1 1 0 1 1 0 2 1 1 0 0 1 0-2M213 212a1 1 0 1 1 0 2 1 1 0 0 1 0-2M227 212a1 1 0 1 1 0 2 1 1 0 0 1 0-2M241 212a1 1 0 1 1 0 2 1 1 0 0 1 0-2M255 212a1 1 0 1 1 0 2 1 1 0 0 1 0-2M269 212a1 1 0 1 1 0 2 1 1 0 0 1 0-2M283 212a1 1 0 1 1 0 2 1 1 0 0 1 0-2M297 212a1 1 0 1 1 0 2 1 1 0 0 1 0-2M311 212a1 1 0 1 1 0 2 1 1 0 0 1 0-2M325 212a1 1 0 1 1 0 2 1 1 0 0 1 0-2M339 212a1 1 0 1 1 0 2 1 1 0 0 1 0-2M353 212a1 1 0 1 1 0 2 1 1 0 0 1 0-2M367 212a1 1 0 1 1 0 2 1 1 0 0 1 0-2M381 212a1 1 0 1 1 0 2 1 1 0 0 1 0-2M395 212a1 1 0 1 1 0 2 1 1 0 0 1 0-2M409 212a1 1 0 1 1 0 2 1 1 0 0 1 0-2M423 212a1 1 0 1 1 0 2 1 1 0 0 1 0-2M437 212a1 1 0 1 1 0 2 1 1 0 0 1 0-2M451 212a1 1 0 1 1 0 2 1 1 0 0 1 0-2M465 212a1 1 0 1 1 0 2 1 1 0 0 1 0-2M479 212a1 1 0 1 1 0 2 1 1 0 0 1 0-2M493 212a1 1 0 1 1 0 2 1 1 0 0 1 0-2M507 212a1 1 0 1 1 0 2 1 1 0 0 1 0-2M521 212a1 1 0 1 1 0 2 1 1 0 0 1 0-2M535 212a1 1 0 1 1 0 2 1 1 0 0 1 0-2M549 212a1 1 0 1 1 0 2 1 1 0 0 1 0-2M563 212a1 1 0 1 1 0 2 1 1 0 0 1 0-2M577 212a1 1 0 1 1 0 2 1 1 0 0 1 0-2M591 212a1 1 0 1 1 0 2 1 1 0 0 1 0-2M605 212a1 1 0 1 1 0 2 1 1 0 0 1 0-2M619 212a1 1 0 1 1 0 2 1 1 0 0 1 0-2M633 212a1 1 0 1 1 0 2 1 1 0 0 1 0-2M647 212a1 1 0 1 1 0 2 1 1 0 0 1 0-2M661 212a1 1 0 1 1 0 2 1 1 0 0 1 0-2M675 212a1 1 0 1 1 0 2 1 1 0 0 1 0-2M689 212a1 1 0 1 1 0 2 1 1 0 0 1 0-2M703 212a1 1 0 1 1 0 2 1 1 0 0 1 0-2M717 212a1 1 0 1 1 0 2 1 1 0 0 1 0-2M-11 198a1 1 0 1 1 0 2 1 1 0 0 1 0-2M3 198a1 1 0 1 1 0 2 1 1 0 0 1 0-2M17 198a1 1 0 1 1 0 2 1 1 0 0 1 0-2M31 198a1 1 0 1 1 0 2 1 1 0 0 1 0-2M45 198a1 1 0 1 1 0 2 1 1 0 0 1 0-2M59 198a1 1 0 1 1 0 2 1 1 0 0 1 0-2M73 198a1 1 0 1 1 0 2 1 1 0 0 1 0-2M87 198a1 1 0 1 1 0 2 1 1 0 0 1 0-2M101 198a1 1 0 1 1 0 2 1 1 0 0 1 0-2M115 198a1 1 0 1 1 0 2 1 1 0 0 1 0-2M129 198a1 1 0 1 1 0 2 1 1 0 0 1 0-2M143 198a1 1 0 1 1 0 2 1 1 0 0 1 0-2M157 198a1 1 0 1 1 0 2 1 1 0 0 1 0-2M171 198a1 1 0 1 1 0 2 1 1 0 0 1 0-2M185 198a1 1 0 1 1 0 2 1 1 0 0 1 0-2M199 198a1 1 0 1 1 0 2 1 1 0 0 1 0-2M213 198a1 1 0 1 1 0 2 1 1 0 0 1 0-2M227 198a1 1 0 1 1 0 2 1 1 0 0 1 0-2M241 198a1 1 0 1 1 0 2 1 1 0 0 1 0-2M255 198a1 1 0 1 1 0 2 1 1 0 0 1 0-2M269 198a1 1 0 1 1 0 2 1 1 0 0 1 0-2M283 198a1 1 0 1 1 0 2 1 1 0 0 1 0-2M297 198a1 1 0 1 1 0 2 1 1 0 0 1 0-2M311 198a1 1 0 1 1 0 2 1 1 0 0 1 0-2M325 198a1 1 0 1 1 0 2 1 1 0 0 1 0-2M339 198a1 1 0 1 1 0 2 1 1 0 0 1 0-2M353 198a1 1 0 1 1 0 2 1 1 0 0 1 0-2M367 198a1 1 0 1 1 0 2 1 1 0 0 1 0-2M381 198a1 1 0 1 1 0 2 1 1 0 0 1 0-2M395 198a1 1 0 1 1 0 2 1 1 0 0 1 0-2M409 198a1 1 0 1 1 0 2 1 1 0 0 1 0-2M423 198a1 1 0 1 1 0 2 1 1 0 0 1 0-2M437 198a1 1 0 1 1 0 2 1 1 0 0 1 0-2M451 198a1 1 0 1 1 0 2 1 1 0 0 1 0-2M465 198a1 1 0 1 1 0 2 1 1 0 0 1 0-2M479 198a1 1 0 1 1 0 2 1 1 0 0 1 0-2M493 198a1 1 0 1 1 0 2 1 1 0 0 1 0-2M507 198a1 1 0 1 1 0 2 1 1 0 0 1 0-2M521 198a1 1 0 1 1 0 2 1 1 0 0 1 0-2M535 198a1 1 0 1 1 0 2 1 1 0 0 1 0-2M549 198a1 1 0 1 1 0 2 1 1 0 0 1 0-2M563 198a1 1 0 1 1 0 2 1 1 0 0 1 0-2M577 198a1 1 0 1 1 0 2 1 1 0 0 1 0-2M591 198a1 1 0 1 1 0 2 1 1 0 0 1 0-2M605 198a1 1 0 1 1 0 2 1 1 0 0 1 0-2M619 198a1 1 0 1 1 0 2 1 1 0 0 1 0-2M633 198a1 1 0 1 1 0 2 1 1 0 0 1 0-2M647 198a1 1 0 1 1 0 2 1 1 0 0 1 0-2M661 198a1 1 0 1 1 0 2 1 1 0 0 1 0-2M675 198a1 1 0 1 1 0 2 1 1 0 0 1 0-2M689 198a1 1 0 1 1 0 2 1 1 0 0 1 0-2M703 198a1 1 0 1 1 0 2 1 1 0 0 1 0-2M717 198a1 1 0 1 1 0 2 1 1 0 0 1 0-2M-11 184a1 1 0 1 1 0 2 1 1 0 0 1 0-2M3 184a1 1 0 1 1 0 2 1 1 0 0 1 0-2M17 184a1 1 0 1 1 0 2 1 1 0 0 1 0-2M31 184a1 1 0 1 1 0 2 1 1 0 0 1 0-2M45 184a1 1 0 1 1 0 2 1 1 0 0 1 0-2M59 184a1 1 0 1 1 0 2 1 1 0 0 1 0-2M73 184a1 1 0 1 1 0 2 1 1 0 0 1 0-2M87 184a1 1 0 1 1 0 2 1 1 0 0 1 0-2M101 184a1 1 0 1 1 0 2 1 1 0 0 1 0-2M115 184a1 1 0 1 1 0 2 1 1 0 0 1 0-2M129 184a1 1 0 1 1 0 2 1 1 0 0 1 0-2M143 184a1 1 0 1 1 0 2 1 1 0 0 1 0-2M157 184a1 1 0 1 1 0 2 1 1 0 0 1 0-2M171 184a1 1 0 1 1 0 2 1 1 0 0 1 0-2M185 184a1 1 0 1 1 0 2 1 1 0 0 1 0-2M199 184a1 1 0 1 1 0 2 1 1 0 0 1 0-2M213 184a1 1 0 1 1 0 2 1 1 0 0 1 0-2M227 184a1 1 0 1 1 0 2 1 1 0 0 1 0-2M241 184a1 1 0 1 1 0 2 1 1 0 0 1 0-2M255 184a1 1 0 1 1 0 2 1 1 0 0 1 0-2M269 184a1 1 0 1 1 0 2 1 1 0 0 1 0-2M283 184a1 1 0 1 1 0 2 1 1 0 0 1 0-2M297 184a1 1 0 1 1 0 2 1 1 0 0 1 0-2M311 184a1 1 0 1 1 0 2 1 1 0 0 1 0-2M325 184a1 1 0 1 1 0 2 1 1 0 0 1 0-2M339 184a1 1 0 1 1 0 2 1 1 0 0 1 0-2M353 184a1 1 0 1 1 0 2 1 1 0 0 1 0-2M367 184a1 1 0 1 1 0 2 1 1 0 0 1 0-2M381 184a1 1 0 1 1 0 2 1 1 0 0 1 0-2M395 184a1 1 0 1 1 0 2 1 1 0 0 1 0-2M409 184a1 1 0 1 1 0 2 1 1 0 0 1 0-2M423 184a1 1 0 1 1 0 2 1 1 0 0 1 0-2M437 184a1 1 0 1 1 0 2 1 1 0 0 1 0-2M451 184a1 1 0 1 1 0 2 1 1 0 0 1 0-2M465 184a1 1 0 1 1 0 2 1 1 0 0 1 0-2M479 184a1 1 0 1 1 0 2 1 1 0 0 1 0-2M493 184a1 1 0 1 1 0 2 1 1 0 0 1 0-2M507 184a1 1 0 1 1 0 2 1 1 0 0 1 0-2M521 184a1 1 0 1 1 0 2 1 1 0 0 1 0-2M535 184a1 1 0 1 1 0 2 1 1 0 0 1 0-2M549 184a1 1 0 1 1 0 2 1 1 0 0 1 0-2M563 184a1 1 0 1 1 0 2 1 1 0 0 1 0-2M577 184a1 1 0 1 1 0 2 1 1 0 0 1 0-2M591 184a1 1 0 1 1 0 2 1 1 0 0 1 0-2M605 184a1 1 0 1 1 0 2 1 1 0 0 1 0-2M619 184a1 1 0 1 1 0 2 1 1 0 0 1 0-2M633 184a1 1 0 1 1 0 2 1 1 0 0 1 0-2M647 184a1 1 0 1 1 0 2 1 1 0 0 1 0-2M661 184a1 1 0 1 1 0 2 1 1 0 0 1 0-2M675 184a1 1 0 1 1 0 2 1 1 0 0 1 0-2M689 184a1 1 0 1 1 0 2 1 1 0 0 1 0-2M703 184a1 1 0 1 1 0 2 1 1 0 0 1 0-2M717 184a1 1 0 1 1 0 2 1 1 0 0 1 0-2M-11 170a1 1 0 1 1 0 2 1 1 0 0 1 0-2M3 170a1 1 0 1 1 0 2 1 1 0 0 1 0-2M17 170a1 1 0 1 1 0 2 1 1 0 0 1 0-2M31 170a1 1 0 1 1 0 2 1 1 0 0 1 0-2M45 170a1 1 0 1 1 0 2 1 1 0 0 1 0-2M59 170a1 1 0 1 1 0 2 1 1 0 0 1 0-2M73 170a1 1 0 1 1 0 2 1 1 0 0 1 0-2M87 170a1 1 0 1 1 0 2 1 1 0 0 1 0-2M101 170a1 1 0 1 1 0 2 1 1 0 0 1 0-2M115 170a1 1 0 1 1 0 2 1 1 0 0 1 0-2M129 170a1 1 0 1 1 0 2 1 1 0 0 1 0-2M143 170a1 1 0 1 1 0 2 1 1 0 0 1 0-2M157 170a1 1 0 1 1 0 2 1 1 0 0 1 0-2M171 170a1 1 0 1 1 0 2 1 1 0 0 1 0-2M185 170a1 1 0 1 1 0 2 1 1 0 0 1 0-2M199 170a1 1 0 1 1 0 2 1 1 0 0 1 0-2M213 170a1 1 0 1 1 0 2 1 1 0 0 1 0-2M227 170a1 1 0 1 1 0 2 1 1 0 0 1 0-2M241 170a1 1 0 1 1 0 2 1 1 0 0 1 0-2M255 170a1 1 0 1 1 0 2 1 1 0 0 1 0-2M269 170a1 1 0 1 1 0 2 1 1 0 0 1 0-2M283 170a1 1 0 1 1 0 2 1 1 0 0 1 0-2M297 170a1 1 0 1 1 0 2 1 1 0 0 1 0-2M311 170a1 1 0 1 1 0 2 1 1 0 0 1 0-2M325 170a1 1 0 1 1 0 2 1 1 0 0 1 0-2M339 170a1 1 0 1 1 0 2 1 1 0 0 1 0-2M353 170a1 1 0 1 1 0 2 1 1 0 0 1 0-2M367 170a1 1 0 1 1 0 2 1 1 0 0 1 0-2M381 170a1 1 0 1 1 0 2 1 1 0 0 1 0-2M395 170a1 1 0 1 1 0 2 1 1 0 0 1 0-2M409 170a1 1 0 1 1 0 2 1 1 0 0 1 0-2M423 170a1 1 0 1 1 0 2 1 1 0 0 1 0-2M437 170a1 1 0 1 1 0 2 1 1 0 0 1 0-2M451 170a1 1 0 1 1 0 2 1 1 0 0 1 0-2M465 170a1 1 0 1 1 0 2 1 1 0 0 1 0-2M479 170a1 1 0 1 1 0 2 1 1 0 0 1 0-2M493 170a1 1 0 1 1 0 2 1 1 0 0 1 0-2M507 170a1 1 0 1 1 0 2 1 1 0 0 1 0-2M521 170a1 1 0 1 1 0 2 1 1 0 0 1 0-2M535 170a1 1 0 1 1 0 2 1 1 0 0 1 0-2M549 170a1 1 0 1 1 0 2 1 1 0 0 1 0-2M563 170a1 1 0 1 1 0 2 1 1 0 0 1 0-2M577 170a1 1 0 1 1 0 2 1 1 0 0 1 0-2M591 170a1 1 0 1 1 0 2 1 1 0 0 1 0-2M605 170a1 1 0 1 1 0 2 1 1 0 0 1 0-2M619 170a1 1 0 1 1 0 2 1 1 0 0 1 0-2M633 170a1 1 0 1 1 0 2 1 1 0 0 1 0-2M647 170a1 1 0 1 1 0 2 1 1 0 0 1 0-2M661 170a1 1 0 1 1 0 2 1 1 0 0 1 0-2M675 170a1 1 0 1 1 0 2 1 1 0 0 1 0-2M689 170a1 1 0 1 1 0 2 1 1 0 0 1 0-2M703 170a1 1 0 1 1 0 2 1 1 0 0 1 0-2M717 170a1 1 0 1 1 0 2 1 1 0 0 1 0-2M-11 156a1 1 0 1 1 0 2 1 1 0 0 1 0-2M3 156a1 1 0 1 1 0 2 1 1 0 0 1 0-2M17 156a1 1 0 1 1 0 2 1 1 0 0 1 0-2M31 156a1 1 0 1 1 0 2 1 1 0 0 1 0-2M45 156a1 1 0 1 1 0 2 1 1 0 0 1 0-2M59 156a1 1 0 1 1 0 2 1 1 0 0 1 0-2M73 156a1 1 0 1 1 0 2 1 1 0 0 1 0-2M87 156a1 1 0 1 1 0 2 1 1 0 0 1 0-2M101 156a1 1 0 1 1 0 2 1 1 0 0 1 0-2M115 156a1 1 0 1 1 0 2 1 1 0 0 1 0-2M129 156a1 1 0 1 1 0 2 1 1 0 0 1 0-2M143 156a1 1 0 1 1 0 2 1 1 0 0 1 0-2M157 156a1 1 0 1 1 0 2 1 1 0 0 1 0-2M171 156a1 1 0 1 1 0 2 1 1 0 0 1 0-2M185 156a1 1 0 1 1 0 2 1 1 0 0 1 0-2M199 156a1 1 0 1 1 0 2 1 1 0 0 1 0-2M213 156a1 1 0 1 1 0 2 1 1 0 0 1 0-2M227 156a1 1 0 1 1 0 2 1 1 0 0 1 0-2M241 156a1 1 0 1 1 0 2 1 1 0 0 1 0-2M255 156a1 1 0 1 1 0 2 1 1 0 0 1 0-2M269 156a1 1 0 1 1 0 2 1 1 0 0 1 0-2M283 156a1 1 0 1 1 0 2 1 1 0 0 1 0-2M297 156a1 1 0 1 1 0 2 1 1 0 0 1 0-2M311 156a1 1 0 1 1 0 2 1 1 0 0 1 0-2M325 156a1 1 0 1 1 0 2 1 1 0 0 1 0-2M339 156a1 1 0 1 1 0 2 1 1 0 0 1 0-2M353 156a1 1 0 1 1 0 2 1 1 0 0 1 0-2M367 156a1 1 0 1 1 0 2 1 1 0 0 1 0-2M381 156a1 1 0 1 1 0 2 1 1 0 0 1 0-2M395 156a1 1 0 1 1 0 2 1 1 0 0 1 0-2M409 156a1 1 0 1 1 0 2 1 1 0 0 1 0-2M423 156a1 1 0 1 1 0 2 1 1 0 0 1 0-2M437 156a1 1 0 1 1 0 2 1 1 0 0 1 0-2M451 156a1 1 0 1 1 0 2 1 1 0 0 1 0-2M465 156a1 1 0 1 1 0 2 1 1 0 0 1 0-2M479 156a1 1 0 1 1 0 2 1 1 0 0 1 0-2M493 156a1 1 0 1 1 0 2 1 1 0 0 1 0-2M507 156a1 1 0 1 1 0 2 1 1 0 0 1 0-2M521 156a1 1 0 1 1 0 2 1 1 0 0 1 0-2M535 156a1 1 0 1 1 0 2 1 1 0 0 1 0-2M549 156a1 1 0 1 1 0 2 1 1 0 0 1 0-2M563 156a1 1 0 1 1 0 2 1 1 0 0 1 0-2M577 156a1 1 0 1 1 0 2 1 1 0 0 1 0-2M591 156a1 1 0 1 1 0 2 1 1 0 0 1 0-2M605 156a1 1 0 1 1 0 2 1 1 0 0 1 0-2M619 156a1 1 0 1 1 0 2 1 1 0 0 1 0-2M633 156a1 1 0 1 1 0 2 1 1 0 0 1 0-2M647 156a1 1 0 1 1 0 2 1 1 0 0 1 0-2M661 156a1 1 0 1 1 0 2 1 1 0 0 1 0-2M675 156a1 1 0 1 1 0 2 1 1 0 0 1 0-2M689 156a1 1 0 1 1 0 2 1 1 0 0 1 0-2M703 156a1 1 0 1 1 0 2 1 1 0 0 1 0-2M717 156a1 1 0 1 1 0 2 1 1 0 0 1 0-2M-11 142a1 1 0 1 1 0 2 1 1 0 0 1 0-2M3 142a1 1 0 1 1 0 2 1 1 0 0 1 0-2M17 142a1 1 0 1 1 0 2 1 1 0 0 1 0-2M31 142a1 1 0 1 1 0 2 1 1 0 0 1 0-2M45 142a1 1 0 1 1 0 2 1 1 0 0 1 0-2M59 142a1 1 0 1 1 0 2 1 1 0 0 1 0-2M73 142a1 1 0 1 1 0 2 1 1 0 0 1 0-2M87 142a1 1 0 1 1 0 2 1 1 0 0 1 0-2M101 142a1 1 0 1 1 0 2 1 1 0 0 1 0-2M115 142a1 1 0 1 1 0 2 1 1 0 0 1 0-2M129 142a1 1 0 1 1 0 2 1 1 0 0 1 0-2M143 142a1 1 0 1 1 0 2 1 1 0 0 1 0-2M157 142a1 1 0 1 1 0 2 1 1 0 0 1 0-2M171 142a1 1 0 1 1 0 2 1 1 0 0 1 0-2M185 142a1 1 0 1 1 0 2 1 1 0 0 1 0-2M199 142a1 1 0 1 1 0 2 1 1 0 0 1 0-2M213 142a1 1 0 1 1 0 2 1 1 0 0 1 0-2M227 142a1 1 0 1 1 0 2 1 1 0 0 1 0-2M241 142a1 1 0 1 1 0 2 1 1 0 0 1 0-2M255 142a1 1 0 1 1 0 2 1 1 0 0 1 0-2M269 142a1 1 0 1 1 0 2 1 1 0 0 1 0-2M283 142a1 1 0 1 1 0 2 1 1 0 0 1 0-2M297 142a1 1 0 1 1 0 2 1 1 0 0 1 0-2M311 142a1 1 0 1 1 0 2 1 1 0 0 1 0-2M325 142a1 1 0 1 1 0 2 1 1 0 0 1 0-2M339 142a1 1 0 1 1 0 2 1 1 0 0 1 0-2M353 142a1 1 0 1 1 0 2 1 1 0 0 1 0-2M367 142a1 1 0 1 1 0 2 1 1 0 0 1 0-2M381 142a1 1 0 1 1 0 2 1 1 0 0 1 0-2M395 142a1 1 0 1 1 0 2 1 1 0 0 1 0-2M409 142a1 1 0 1 1 0 2 1 1 0 0 1 0-2M423 142a1 1 0 1 1 0 2 1 1 0 0 1 0-2M437 142a1 1 0 1 1 0 2 1 1 0 0 1 0-2M451 142a1 1 0 1 1 0 2 1 1 0 0 1 0-2M465 142a1 1 0 1 1 0 2 1 1 0 0 1 0-2M479 142a1 1 0 1 1 0 2 1 1 0 0 1 0-2M493 142a1 1 0 1 1 0 2 1 1 0 0 1 0-2M507 142a1 1 0 1 1 0 2 1 1 0 0 1 0-2M521 142a1 1 0 1 1 0 2 1 1 0 0 1 0-2M535 142a1 1 0 1 1 0 2 1 1 0 0 1 0-2M549 142a1 1 0 1 1 0 2 1 1 0 0 1 0-2M563 142a1 1 0 1 1 0 2 1 1 0 0 1 0-2M577 142a1 1 0 1 1 0 2 1 1 0 0 1 0-2M591 142a1 1 0 1 1 0 2 1 1 0 0 1 0-2M605 142a1 1 0 1 1 0 2 1 1 0 0 1 0-2M619 142a1 1 0 1 1 0 2 1 1 0 0 1 0-2M633 142a1 1 0 1 1 0 2 1 1 0 0 1 0-2M647 142a1 1 0 1 1 0 2 1 1 0 0 1 0-2M661 142a1 1 0 1 1 0 2 1 1 0 0 1 0-2M675 142a1 1 0 1 1 0 2 1 1 0 0 1 0-2M689 142a1 1 0 1 1 0 2 1 1 0 0 1 0-2M703 142a1 1 0 1 1 0 2 1 1 0 0 1 0-2M717 142a1 1 0 1 1 0 2 1 1 0 0 1 0-2M-11 128a1 1 0 1 1 0 2 1 1 0 0 1 0-2M3 128a1 1 0 1 1 0 2 1 1 0 0 1 0-2M17 128a1 1 0 1 1 0 2 1 1 0 0 1 0-2M31 128a1 1 0 1 1 0 2 1 1 0 0 1 0-2M45 128a1 1 0 1 1 0 2 1 1 0 0 1 0-2M59 128a1 1 0 1 1 0 2 1 1 0 0 1 0-2M73 128a1 1 0 1 1 0 2 1 1 0 0 1 0-2M87 128a1 1 0 1 1 0 2 1 1 0 0 1 0-2M101 128a1 1 0 1 1 0 2 1 1 0 0 1 0-2M115 128a1 1 0 1 1 0 2 1 1 0 0 1 0-2M129 128a1 1 0 1 1 0 2 1 1 0 0 1 0-2M143 128a1 1 0 1 1 0 2 1 1 0 0 1 0-2M157 128a1 1 0 1 1 0 2 1 1 0 0 1 0-2M171 128a1 1 0 1 1 0 2 1 1 0 0 1 0-2M185 128a1 1 0 1 1 0 2 1 1 0 0 1 0-2M199 128a1 1 0 1 1 0 2 1 1 0 0 1 0-2M213 128a1 1 0 1 1 0 2 1 1 0 0 1 0-2M227 128a1 1 0 1 1 0 2 1 1 0 0 1 0-2M241 128a1 1 0 1 1 0 2 1 1 0 0 1 0-2M255 128a1 1 0 1 1 0 2 1 1 0 0 1 0-2M269 128a1 1 0 1 1 0 2 1 1 0 0 1 0-2M283 128a1 1 0 1 1 0 2 1 1 0 0 1 0-2M297 128a1 1 0 1 1 0 2 1 1 0 0 1 0-2M311 128a1 1 0 1 1 0 2 1 1 0 0 1 0-2M325 128a1 1 0 1 1 0 2 1 1 0 0 1 0-2M339 128a1 1 0 1 1 0 2 1 1 0 0 1 0-2M353 128a1 1 0 1 1 0 2 1 1 0 0 1 0-2M367 128a1 1 0 1 1 0 2 1 1 0 0 1 0-2M381 128a1 1 0 1 1 0 2 1 1 0 0 1 0-2M395 128a1 1 0 1 1 0 2 1 1 0 0 1 0-2M409 128a1 1 0 1 1 0 2 1 1 0 0 1 0-2M423 128a1 1 0 1 1 0 2 1 1 0 0 1 0-2M437 128a1 1 0 1 1 0 2 1 1 0 0 1 0-2M451 128a1 1 0 1 1 0 2 1 1 0 0 1 0-2M465 128a1 1 0 1 1 0 2 1 1 0 0 1 0-2M479 128a1 1 0 1 1 0 2 1 1 0 0 1 0-2M493 128a1 1 0 1 1 0 2 1 1 0 0 1 0-2M507 128a1 1 0 1 1 0 2 1 1 0 0 1 0-2M521 128a1 1 0 1 1 0 2 1 1 0 0 1 0-2M535 128a1 1 0 1 1 0 2 1 1 0 0 1 0-2M549 128a1 1 0 1 1 0 2 1 1 0 0 1 0-2M563 128a1 1 0 1 1 0 2 1 1 0 0 1 0-2M577 128a1 1 0 1 1 0 2 1 1 0 0 1 0-2M591 128a1 1 0 1 1 0 2 1 1 0 0 1 0-2M605 128a1 1 0 1 1 0 2 1 1 0 0 1 0-2M619 128a1 1 0 1 1 0 2 1 1 0 0 1 0-2M633 128a1 1 0 1 1 0 2 1 1 0 0 1 0-2M647 128a1 1 0 1 1 0 2 1 1 0 0 1 0-2M661 128a1 1 0 1 1 0 2 1 1 0 0 1 0-2M675 128a1 1 0 1 1 0 2 1 1 0 0 1 0-2M689 128a1 1 0 1 1 0 2 1 1 0 0 1 0-2M703 128a1 1 0 1 1 0 2 1 1 0 0 1 0-2M717 128a1 1 0 1 1 0 2 1 1 0 0 1 0-2M-11 114a1 1 0 1 1 0 2 1 1 0 0 1 0-2M3 114a1 1 0 1 1 0 2 1 1 0 0 1 0-2M17 114a1 1 0 1 1 0 2 1 1 0 0 1 0-2M31 114a1 1 0 1 1 0 2 1 1 0 0 1 0-2M45 114a1 1 0 1 1 0 2 1 1 0 0 1 0-2M59 114a1 1 0 1 1 0 2 1 1 0 0 1 0-2M73 114a1 1 0 1 1 0 2 1 1 0 0 1 0-2M87 114a1 1 0 1 1 0 2 1 1 0 0 1 0-2M101 114a1 1 0 1 1 0 2 1 1 0 0 1 0-2M115 114a1 1 0 1 1 0 2 1 1 0 0 1 0-2M129 114a1 1 0 1 1 0 2 1 1 0 0 1 0-2M143 114a1 1 0 1 1 0 2 1 1 0 0 1 0-2M157 114a1 1 0 1 1 0 2 1 1 0 0 1 0-2M171 114a1 1 0 1 1 0 2 1 1 0 0 1 0-2M185 114a1 1 0 1 1 0 2 1 1 0 0 1 0-2M199 114a1 1 0 1 1 0 2 1 1 0 0 1 0-2M213 114a1 1 0 1 1 0 2 1 1 0 0 1 0-2M227 114a1 1 0 1 1 0 2 1 1 0 0 1 0-2M241 114a1 1 0 1 1 0 2 1 1 0 0 1 0-2M255 114a1 1 0 1 1 0 2 1 1 0 0 1 0-2M269 114a1 1 0 1 1 0 2 1 1 0 0 1 0-2M283 114a1 1 0 1 1 0 2 1 1 0 0 1 0-2M297 114a1 1 0 1 1 0 2 1 1 0 0 1 0-2M311 114a1 1 0 1 1 0 2 1 1 0 0 1 0-2M325 114a1 1 0 1 1 0 2 1 1 0 0 1 0-2M339 114a1 1 0 1 1 0 2 1 1 0 0 1 0-2M353 114a1 1 0 1 1 0 2 1 1 0 0 1 0-2M367 114a1 1 0 1 1 0 2 1 1 0 0 1 0-2M381 114a1 1 0 1 1 0 2 1 1 0 0 1 0-2M395 114a1 1 0 1 1 0 2 1 1 0 0 1 0-2M409 114a1 1 0 1 1 0 2 1 1 0 0 1 0-2M423 114a1 1 0 1 1 0 2 1 1 0 0 1 0-2M437 114a1 1 0 1 1 0 2 1 1 0 0 1 0-2M451 114a1 1 0 1 1 0 2 1 1 0 0 1 0-2M465 114a1 1 0 1 1 0 2 1 1 0 0 1 0-2M479 114a1 1 0 1 1 0 2 1 1 0 0 1 0-2M493 114a1 1 0 1 1 0 2 1 1 0 0 1 0-2M507 114a1 1 0 1 1 0 2 1 1 0 0 1 0-2M521 114a1 1 0 1 1 0 2 1 1 0 0 1 0-2M535 114a1 1 0 1 1 0 2 1 1 0 0 1 0-2M549 114a1 1 0 1 1 0 2 1 1 0 0 1 0-2M563 114a1 1 0 1 1 0 2 1 1 0 0 1 0-2M577 114a1 1 0 1 1 0 2 1 1 0 0 1 0-2M591 114a1 1 0 1 1 0 2 1 1 0 0 1 0-2M605 114a1 1 0 1 1 0 2 1 1 0 0 1 0-2M619 114a1 1 0 1 1 0 2 1 1 0 0 1 0-2M633 114a1 1 0 1 1 0 2 1 1 0 0 1 0-2M647 114a1 1 0 1 1 0 2 1 1 0 0 1 0-2M661 114a1 1 0 1 1 0 2 1 1 0 0 1 0-2M675 114a1 1 0 1 1 0 2 1 1 0 0 1 0-2M689 114a1 1 0 1 1 0 2 1 1 0 0 1 0-2M703 114a1 1 0 1 1 0 2 1 1 0 0 1 0-2M717 114a1 1 0 1 1 0 2 1 1 0 0 1 0-2M-11 100a1 1 0 1 1 0 2 1 1 0 0 1 0-2M3 100a1 1 0 1 1 0 2 1 1 0 0 1 0-2M17 100a1 1 0 1 1 0 2 1 1 0 0 1 0-2M31 100a1 1 0 1 1 0 2 1 1 0 0 1 0-2M45 100a1 1 0 1 1 0 2 1 1 0 0 1 0-2M59 100a1 1 0 1 1 0 2 1 1 0 0 1 0-2M73 100a1 1 0 1 1 0 2 1 1 0 0 1 0-2M87 100a1 1 0 1 1 0 2 1 1 0 0 1 0-2M101 100a1 1 0 1 1 0 2 1 1 0 0 1 0-2M115 100a1 1 0 1 1 0 2 1 1 0 0 1 0-2M129 100a1 1 0 1 1 0 2 1 1 0 0 1 0-2M143 100a1 1 0 1 1 0 2 1 1 0 0 1 0-2M157 100a1 1 0 1 1 0 2 1 1 0 0 1 0-2M171 100a1 1 0 1 1 0 2 1 1 0 0 1 0-2M185 100a1 1 0 1 1 0 2 1 1 0 0 1 0-2M199 100a1 1 0 1 1 0 2 1 1 0 0 1 0-2M213 100a1 1 0 1 1 0 2 1 1 0 0 1 0-2M227 100a1 1 0 1 1 0 2 1 1 0 0 1 0-2M241 100a1 1 0 1 1 0 2 1 1 0 0 1 0-2M255 100a1 1 0 1 1 0 2 1 1 0 0 1 0-2M269 100a1 1 0 1 1 0 2 1 1 0 0 1 0-2M283 100a1 1 0 1 1 0 2 1 1 0 0 1 0-2M297 100a1 1 0 1 1 0 2 1 1 0 0 1 0-2M311 100a1 1 0 1 1 0 2 1 1 0 0 1 0-2M325 100a1 1 0 1 1 0 2 1 1 0 0 1 0-2M339 100a1 1 0 1 1 0 2 1 1 0 0 1 0-2M353 100a1 1 0 1 1 0 2 1 1 0 0 1 0-2M367 100a1 1 0 1 1 0 2 1 1 0 0 1 0-2M381 100a1 1 0 1 1 0 2 1 1 0 0 1 0-2M395 100a1 1 0 1 1 0 2 1 1 0 0 1 0-2M409 100a1 1 0 1 1 0 2 1 1 0 0 1 0-2M423 100a1 1 0 1 1 0 2 1 1 0 0 1 0-2M437 100a1 1 0 1 1 0 2 1 1 0 0 1 0-2M451 100a1 1 0 1 1 0 2 1 1 0 0 1 0-2M465 100a1 1 0 1 1 0 2 1 1 0 0 1 0-2M479 100a1 1 0 1 1 0 2 1 1 0 0 1 0-2M493 100a1 1 0 1 1 0 2 1 1 0 0 1 0-2M507 100a1 1 0 1 1 0 2 1 1 0 0 1 0-2M521 100a1 1 0 1 1 0 2 1 1 0 0 1 0-2M535 100a1 1 0 1 1 0 2 1 1 0 0 1 0-2M549 100a1 1 0 1 1 0 2 1 1 0 0 1 0-2M563 100a1 1 0 1 1 0 2 1 1 0 0 1 0-2M577 100a1 1 0 1 1 0 2 1 1 0 0 1 0-2M591 100a1 1 0 1 1 0 2 1 1 0 0 1 0-2M605 100a1 1 0 1 1 0 2 1 1 0 0 1 0-2M619 100a1 1 0 1 1 0 2 1 1 0 0 1 0-2M633 100a1 1 0 1 1 0 2 1 1 0 0 1 0-2M647 100a1 1 0 1 1 0 2 1 1 0 0 1 0-2M661 100a1 1 0 1 1 0 2 1 1 0 0 1 0-2M675 100a1 1 0 1 1 0 2 1 1 0 0 1 0-2M689 100a1 1 0 1 1 0 2 1 1 0 0 1 0-2M703 100a1 1 0 1 1 0 2 1 1 0 0 1 0-2M717 100a1 1 0 1 1 0 2 1 1 0 0 1 0-2M-11 86a1 1 0 1 1 0 2 1 1 0 0 1 0-2M3 86a1 1 0 1 1 0 2 1 1 0 0 1 0-2M17 86a1 1 0 1 1 0 2 1 1 0 0 1 0-2M31 86a1 1 0 1 1 0 2 1 1 0 0 1 0-2M45 86a1 1 0 1 1 0 2 1 1 0 0 1 0-2M59 86a1 1 0 1 1 0 2 1 1 0 0 1 0-2M73 86a1 1 0 1 1 0 2 1 1 0 0 1 0-2M87 86a1 1 0 1 1 0 2 1 1 0 0 1 0-2M101 86a1 1 0 1 1 0 2 1 1 0 0 1 0-2M115 86a1 1 0 1 1 0 2 1 1 0 0 1 0-2M129 86a1 1 0 1 1 0 2 1 1 0 0 1 0-2M143 86a1 1 0 1 1 0 2 1 1 0 0 1 0-2M157 86a1 1 0 1 1 0 2 1 1 0 0 1 0-2M171 86a1 1 0 1 1 0 2 1 1 0 0 1 0-2M185 86a1 1 0 1 1 0 2 1 1 0 0 1 0-2M199 86a1 1 0 1 1 0 2 1 1 0 0 1 0-2M213 86a1 1 0 1 1 0 2 1 1 0 0 1 0-2M227 86a1 1 0 1 1 0 2 1 1 0 0 1 0-2M241 86a1 1 0 1 1 0 2 1 1 0 0 1 0-2M255 86a1 1 0 1 1 0 2 1 1 0 0 1 0-2M269 86a1 1 0 1 1 0 2 1 1 0 0 1 0-2M283 86a1 1 0 1 1 0 2 1 1 0 0 1 0-2M297 86a1 1 0 1 1 0 2 1 1 0 0 1 0-2M311 86a1 1 0 1 1 0 2 1 1 0 0 1 0-2M325 86a1 1 0 1 1 0 2 1 1 0 0 1 0-2M339 86a1 1 0 1 1 0 2 1 1 0 0 1 0-2M353 86a1 1 0 1 1 0 2 1 1 0 0 1 0-2M367 86a1 1 0 1 1 0 2 1 1 0 0 1 0-2M381 86a1 1 0 1 1 0 2 1 1 0 0 1 0-2M395 86a1 1 0 1 1 0 2 1 1 0 0 1 0-2M409 86a1 1 0 1 1 0 2 1 1 0 0 1 0-2M423 86a1 1 0 1 1 0 2 1 1 0 0 1 0-2M437 86a1 1 0 1 1 0 2 1 1 0 0 1 0-2M451 86a1 1 0 1 1 0 2 1 1 0 0 1 0-2M465 86a1 1 0 1 1 0 2 1 1 0 0 1 0-2M479 86a1 1 0 1 1 0 2 1 1 0 0 1 0-2M493 86a1 1 0 1 1 0 2 1 1 0 0 1 0-2M507 86a1 1 0 1 1 0 2 1 1 0 0 1 0-2M521 86a1 1 0 1 1 0 2 1 1 0 0 1 0-2M535 86a1 1 0 1 1 0 2 1 1 0 0 1 0-2M549 86a1 1 0 1 1 0 2 1 1 0 0 1 0-2M563 86a1 1 0 1 1 0 2 1 1 0 0 1 0-2M577 86a1 1 0 1 1 0 2 1 1 0 0 1 0-2M591 86a1 1 0 1 1 0 2 1 1 0 0 1 0-2M605 86a1 1 0 1 1 0 2 1 1 0 0 1 0-2M619 86a1 1 0 1 1 0 2 1 1 0 0 1 0-2M633 86a1 1 0 1 1 0 2 1 1 0 0 1 0-2M647 86a1 1 0 1 1 0 2 1 1 0 0 1 0-2M661 86a1 1 0 1 1 0 2 1 1 0 0 1 0-2M675 86a1 1 0 1 1 0 2 1 1 0 0 1 0-2M689 86a1 1 0 1 1 0 2 1 1 0 0 1 0-2M703 86a1 1 0 1 1 0 2 1 1 0 0 1 0-2M717 86a1 1 0 1 1 0 2 1 1 0 0 1 0-2M-11 72a1 1 0 1 1 0 2 1 1 0 0 1 0-2M3 72a1 1 0 1 1 0 2 1 1 0 0 1 0-2M17 72a1 1 0 1 1 0 2 1 1 0 0 1 0-2M31 72a1 1 0 1 1 0 2 1 1 0 0 1 0-2M45 72a1 1 0 1 1 0 2 1 1 0 0 1 0-2M59 72a1 1 0 1 1 0 2 1 1 0 0 1 0-2M73 72a1 1 0 1 1 0 2 1 1 0 0 1 0-2M87 72a1 1 0 1 1 0 2 1 1 0 0 1 0-2M101 72a1 1 0 1 1 0 2 1 1 0 0 1 0-2M115 72a1 1 0 1 1 0 2 1 1 0 0 1 0-2M129 72a1 1 0 1 1 0 2 1 1 0 0 1 0-2M143 72a1 1 0 1 1 0 2 1 1 0 0 1 0-2M157 72a1 1 0 1 1 0 2 1 1 0 0 1 0-2M171 72a1 1 0 1 1 0 2 1 1 0 0 1 0-2M185 72a1 1 0 1 1 0 2 1 1 0 0 1 0-2M199 72a1 1 0 1 1 0 2 1 1 0 0 1 0-2M213 72a1 1 0 1 1 0 2 1 1 0 0 1 0-2M227 72a1 1 0 1 1 0 2 1 1 0 0 1 0-2M241 72a1 1 0 1 1 0 2 1 1 0 0 1 0-2M255 72a1 1 0 1 1 0 2 1 1 0 0 1 0-2M269 72a1 1 0 1 1 0 2 1 1 0 0 1 0-2M283 72a1 1 0 1 1 0 2 1 1 0 0 1 0-2M297 72a1 1 0 1 1 0 2 1 1 0 0 1 0-2M311 72a1 1 0 1 1 0 2 1 1 0 0 1 0-2M325 72a1 1 0 1 1 0 2 1 1 0 0 1 0-2M339 72a1 1 0 1 1 0 2 1 1 0 0 1 0-2M353 72a1 1 0 1 1 0 2 1 1 0 0 1 0-2M367 72a1 1 0 1 1 0 2 1 1 0 0 1 0-2M381 72a1 1 0 1 1 0 2 1 1 0 0 1 0-2M395 72a1 1 0 1 1 0 2 1 1 0 0 1 0-2M409 72a1 1 0 1 1 0 2 1 1 0 0 1 0-2M423 72a1 1 0 1 1 0 2 1 1 0 0 1 0-2M437 72a1 1 0 1 1 0 2 1 1 0 0 1 0-2M451 72a1 1 0 1 1 0 2 1 1 0 0 1 0-2M465 72a1 1 0 1 1 0 2 1 1 0 0 1 0-2M479 72a1 1 0 1 1 0 2 1 1 0 0 1 0-2M493 72a1 1 0 1 1 0 2 1 1 0 0 1 0-2M507 72a1 1 0 1 1 0 2 1 1 0 0 1 0-2M521 72a1 1 0 1 1 0 2 1 1 0 0 1 0-2M535 72a1 1 0 1 1 0 2 1 1 0 0 1 0-2M549 72a1 1 0 1 1 0 2 1 1 0 0 1 0-2M563 72a1 1 0 1 1 0 2 1 1 0 0 1 0-2M577 72a1 1 0 1 1 0 2 1 1 0 0 1 0-2M591 72a1 1 0 1 1 0 2 1 1 0 0 1 0-2M605 72a1 1 0 1 1 0 2 1 1 0 0 1 0-2M619 72a1 1 0 1 1 0 2 1 1 0 0 1 0-2M633 72a1 1 0 1 1 0 2 1 1 0 0 1 0-2M647 72a1 1 0 1 1 0 2 1 1 0 0 1 0-2M661 72a1 1 0 1 1 0 2 1 1 0 0 1 0-2M675 72a1 1 0 1 1 0 2 1 1 0 0 1 0-2M689 72a1 1 0 1 1 0 2 1 1 0 0 1 0-2M703 72a1 1 0 1 1 0 2 1 1 0 0 1 0-2M717 72a1 1 0 1 1 0 2 1 1 0 0 1 0-2M-11 58a1 1 0 1 1 0 2 1 1 0 0 1 0-2M3 58a1 1 0 1 1 0 2 1 1 0 0 1 0-2M17 58a1 1 0 1 1 0 2 1 1 0 0 1 0-2M31 58a1 1 0 1 1 0 2 1 1 0 0 1 0-2M45 58a1 1 0 1 1 0 2 1 1 0 0 1 0-2M59 58a1 1 0 1 1 0 2 1 1 0 0 1 0-2M73 58a1 1 0 1 1 0 2 1 1 0 0 1 0-2M87 58a1 1 0 1 1 0 2 1 1 0 0 1 0-2M101 58a1 1 0 1 1 0 2 1 1 0 0 1 0-2M115 58a1 1 0 1 1 0 2 1 1 0 0 1 0-2M129 58a1 1 0 1 1 0 2 1 1 0 0 1 0-2M143 58a1 1 0 1 1 0 2 1 1 0 0 1 0-2M157 58a1 1 0 1 1 0 2 1 1 0 0 1 0-2M171 58a1 1 0 1 1 0 2 1 1 0 0 1 0-2M185 58a1 1 0 1 1 0 2 1 1 0 0 1 0-2M199 58a1 1 0 1 1 0 2 1 1 0 0 1 0-2M213 58a1 1 0 1 1 0 2 1 1 0 0 1 0-2M227 58a1 1 0 1 1 0 2 1 1 0 0 1 0-2M241 58a1 1 0 1 1 0 2 1 1 0 0 1 0-2M255 58a1 1 0 1 1 0 2 1 1 0 0 1 0-2M269 58a1 1 0 1 1 0 2 1 1 0 0 1 0-2M283 58a1 1 0 1 1 0 2 1 1 0 0 1 0-2M297 58a1 1 0 1 1 0 2 1 1 0 0 1 0-2M311 58a1 1 0 1 1 0 2 1 1 0 0 1 0-2M325 58a1 1 0 1 1 0 2 1 1 0 0 1 0-2M339 58a1 1 0 1 1 0 2 1 1 0 0 1 0-2M353 58a1 1 0 1 1 0 2 1 1 0 0 1 0-2M367 58a1 1 0 1 1 0 2 1 1 0 0 1 0-2M381 58a1 1 0 1 1 0 2 1 1 0 0 1 0-2M395 58a1 1 0 1 1 0 2 1 1 0 0 1 0-2M409 58a1 1 0 1 1 0 2 1 1 0 0 1 0-2M423 58a1 1 0 1 1 0 2 1 1 0 0 1 0-2M437 58a1 1 0 1 1 0 2 1 1 0 0 1 0-2M451 58a1 1 0 1 1 0 2 1 1 0 0 1 0-2M465 58a1 1 0 1 1 0 2 1 1 0 0 1 0-2M479 58a1 1 0 1 1 0 2 1 1 0 0 1 0-2M493 58a1 1 0 1 1 0 2 1 1 0 0 1 0-2M507 58a1 1 0 1 1 0 2 1 1 0 0 1 0-2M521 58a1 1 0 1 1 0 2 1 1 0 0 1 0-2M535 58a1 1 0 1 1 0 2 1 1 0 0 1 0-2M549 58a1 1 0 1 1 0 2 1 1 0 0 1 0-2M563 58a1 1 0 1 1 0 2 1 1 0 0 1 0-2M577 58a1 1 0 1 1 0 2 1 1 0 0 1 0-2M591 58a1 1 0 1 1 0 2 1 1 0 0 1 0-2M605 58a1 1 0 1 1 0 2 1 1 0 0 1 0-2M619 58a1 1 0 1 1 0 2 1 1 0 0 1 0-2M633 58a1 1 0 1 1 0 2 1 1 0 0 1 0-2M647 58a1 1 0 1 1 0 2 1 1 0 0 1 0-2M661 58a1 1 0 1 1 0 2 1 1 0 0 1 0-2M675 58a1 1 0 1 1 0 2 1 1 0 0 1 0-2M689 58a1 1 0 1 1 0 2 1 1 0 0 1 0-2M703 58a1 1 0 1 1 0 2 1 1 0 0 1 0-2M717 58a1 1 0 1 1 0 2 1 1 0 0 1 0-2M-11 44a1 1 0 1 1 0 2 1 1 0 0 1 0-2M3 44a1 1 0 1 1 0 2 1 1 0 0 1 0-2M17 44a1 1 0 1 1 0 2 1 1 0 0 1 0-2M31 44a1 1 0 1 1 0 2 1 1 0 0 1 0-2M45 44a1 1 0 1 1 0 2 1 1 0 0 1 0-2M59 44a1 1 0 1 1 0 2 1 1 0 0 1 0-2M73 44a1 1 0 1 1 0 2 1 1 0 0 1 0-2M87 44a1 1 0 1 1 0 2 1 1 0 0 1 0-2M101 44a1 1 0 1 1 0 2 1 1 0 0 1 0-2M115 44a1 1 0 1 1 0 2 1 1 0 0 1 0-2M129 44a1 1 0 1 1 0 2 1 1 0 0 1 0-2M143 44a1 1 0 1 1 0 2 1 1 0 0 1 0-2M157 44a1 1 0 1 1 0 2 1 1 0 0 1 0-2M171 44a1 1 0 1 1 0 2 1 1 0 0 1 0-2M185 44a1 1 0 1 1 0 2 1 1 0 0 1 0-2M199 44a1 1 0 1 1 0 2 1 1 0 0 1 0-2M213 44a1 1 0 1 1 0 2 1 1 0 0 1 0-2M227 44a1 1 0 1 1 0 2 1 1 0 0 1 0-2M241 44a1 1 0 1 1 0 2 1 1 0 0 1 0-2M255 44a1 1 0 1 1 0 2 1 1 0 0 1 0-2M269 44a1 1 0 1 1 0 2 1 1 0 0 1 0-2M283 44a1 1 0 1 1 0 2 1 1 0 0 1 0-2M297 44a1 1 0 1 1 0 2 1 1 0 0 1 0-2M311 44a1 1 0 1 1 0 2 1 1 0 0 1 0-2M325 44a1 1 0 1 1 0 2 1 1 0 0 1 0-2M339 44a1 1 0 1 1 0 2 1 1 0 0 1 0-2M353 44a1 1 0 1 1 0 2 1 1 0 0 1 0-2M367 44a1 1 0 1 1 0 2 1 1 0 0 1 0-2M381 44a1 1 0 1 1 0 2 1 1 0 0 1 0-2M395 44a1 1 0 1 1 0 2 1 1 0 0 1 0-2M409 44a1 1 0 1 1 0 2 1 1 0 0 1 0-2M423 44a1 1 0 1 1 0 2 1 1 0 0 1 0-2M437 44a1 1 0 1 1 0 2 1 1 0 0 1 0-2M451 44a1 1 0 1 1 0 2 1 1 0 0 1 0-2M465 44a1 1 0 1 1 0 2 1 1 0 0 1 0-2M479 44a1 1 0 1 1 0 2 1 1 0 0 1 0-2M493 44a1 1 0 1 1 0 2 1 1 0 0 1 0-2M507 44a1 1 0 1 1 0 2 1 1 0 0 1 0-2M521 44a1 1 0 1 1 0 2 1 1 0 0 1 0-2M535 44a1 1 0 1 1 0 2 1 1 0 0 1 0-2M549 44a1 1 0 1 1 0 2 1 1 0 0 1 0-2M563 44a1 1 0 1 1 0 2 1 1 0 0 1 0-2M577 44a1 1 0 1 1 0 2 1 1 0 0 1 0-2M591 44a1 1 0 1 1 0 2 1 1 0 0 1 0-2M605 44a1 1 0 1 1 0 2 1 1 0 0 1 0-2M619 44a1 1 0 1 1 0 2 1 1 0 0 1 0-2M633 44a1 1 0 1 1 0 2 1 1 0 0 1 0-2M647 44a1 1 0 1 1 0 2 1 1 0 0 1 0-2M661 44a1 1 0 1 1 0 2 1 1 0 0 1 0-2M675 44a1 1 0 1 1 0 2 1 1 0 0 1 0-2M689 44a1 1 0 1 1 0 2 1 1 0 0 1 0-2M703 44a1 1 0 1 1 0 2 1 1 0 0 1 0-2M717 44a1 1 0 1 1 0 2 1 1 0 0 1 0-2M-11 30a1 1 0 1 1 0 2 1 1 0 0 1 0-2M3 30a1 1 0 1 1 0 2 1 1 0 0 1 0-2M17 30a1 1 0 1 1 0 2 1 1 0 0 1 0-2M31 30a1 1 0 1 1 0 2 1 1 0 0 1 0-2M45 30a1 1 0 1 1 0 2 1 1 0 0 1 0-2M59 30a1 1 0 1 1 0 2 1 1 0 0 1 0-2M73 30a1 1 0 1 1 0 2 1 1 0 0 1 0-2M87 30a1 1 0 1 1 0 2 1 1 0 0 1 0-2M101 30a1 1 0 1 1 0 2 1 1 0 0 1 0-2M115 30a1 1 0 1 1 0 2 1 1 0 0 1 0-2M129 30a1 1 0 1 1 0 2 1 1 0 0 1 0-2M143 30a1 1 0 1 1 0 2 1 1 0 0 1 0-2M157 30a1 1 0 1 1 0 2 1 1 0 0 1 0-2M171 30a1 1 0 1 1 0 2 1 1 0 0 1 0-2M185 30a1 1 0 1 1 0 2 1 1 0 0 1 0-2M199 30a1 1 0 1 1 0 2 1 1 0 0 1 0-2M213 30a1 1 0 1 1 0 2 1 1 0 0 1 0-2M227 30a1 1 0 1 1 0 2 1 1 0 0 1 0-2M241 30a1 1 0 1 1 0 2 1 1 0 0 1 0-2M255 30a1 1 0 1 1 0 2 1 1 0 0 1 0-2M269 30a1 1 0 1 1 0 2 1 1 0 0 1 0-2M283 30a1 1 0 1 1 0 2 1 1 0 0 1 0-2M297 30a1 1 0 1 1 0 2 1 1 0 0 1 0-2M311 30a1 1 0 1 1 0 2 1 1 0 0 1 0-2M325 30a1 1 0 1 1 0 2 1 1 0 0 1 0-2M339 30a1 1 0 1 1 0 2 1 1 0 0 1 0-2M353 30a1 1 0 1 1 0 2 1 1 0 0 1 0-2M367 30a1 1 0 1 1 0 2 1 1 0 0 1 0-2M381 30a1 1 0 1 1 0 2 1 1 0 0 1 0-2M395 30a1 1 0 1 1 0 2 1 1 0 0 1 0-2M409 30a1 1 0 1 1 0 2 1 1 0 0 1 0-2M423 30a1 1 0 1 1 0 2 1 1 0 0 1 0-2M437 30a1 1 0 1 1 0 2 1 1 0 0 1 0-2M451 30a1 1 0 1 1 0 2 1 1 0 0 1 0-2M465 30a1 1 0 1 1 0 2 1 1 0 0 1 0-2M479 30a1 1 0 1 1 0 2 1 1 0 0 1 0-2M493 30a1 1 0 1 1 0 2 1 1 0 0 1 0-2M507 30a1 1 0 1 1 0 2 1 1 0 0 1 0-2M521 30a1 1 0 1 1 0 2 1 1 0 0 1 0-2M535 30a1 1 0 1 1 0 2 1 1 0 0 1 0-2M549 30a1 1 0 1 1 0 2 1 1 0 0 1 0-2M563 30a1 1 0 1 1 0 2 1 1 0 0 1 0-2M577 30a1 1 0 1 1 0 2 1 1 0 0 1 0-2M591 30a1 1 0 1 1 0 2 1 1 0 0 1 0-2M605 30a1 1 0 1 1 0 2 1 1 0 0 1 0-2M619 30a1 1 0 1 1 0 2 1 1 0 0 1 0-2M633 30a1 1 0 1 1 0 2 1 1 0 0 1 0-2M647 30a1 1 0 1 1 0 2 1 1 0 0 1 0-2M661 30a1 1 0 1 1 0 2 1 1 0 0 1 0-2M675 30a1 1 0 1 1 0 2 1 1 0 0 1 0-2M689 30a1 1 0 1 1 0 2 1 1 0 0 1 0-2M703 30a1 1 0 1 1 0 2 1 1 0 0 1 0-2M717 30a1 1 0 1 1 0 2 1 1 0 0 1 0-2M-11 16a1 1 0 1 1 0 2 1 1 0 0 1 0-2M3 16a1 1 0 1 1 0 2 1 1 0 0 1 0-2M17 16a1 1 0 1 1 0 2 1 1 0 0 1 0-2M31 16a1 1 0 1 1 0 2 1 1 0 0 1 0-2M45 16a1 1 0 1 1 0 2 1 1 0 0 1 0-2M59 16a1 1 0 1 1 0 2 1 1 0 0 1 0-2M73 16a1 1 0 1 1 0 2 1 1 0 0 1 0-2M87 16a1 1 0 1 1 0 2 1 1 0 0 1 0-2M101 16a1 1 0 1 1 0 2 1 1 0 0 1 0-2M115 16a1 1 0 1 1 0 2 1 1 0 0 1 0-2M129 16a1 1 0 1 1 0 2 1 1 0 0 1 0-2M143 16a1 1 0 1 1 0 2 1 1 0 0 1 0-2M157 16a1 1 0 1 1 0 2 1 1 0 0 1 0-2M171 16a1 1 0 1 1 0 2 1 1 0 0 1 0-2M185 16a1 1 0 1 1 0 2 1 1 0 0 1 0-2M199 16a1 1 0 1 1 0 2 1 1 0 0 1 0-2M213 16a1 1 0 1 1 0 2 1 1 0 0 1 0-2M227 16a1 1 0 1 1 0 2 1 1 0 0 1 0-2M241 16a1 1 0 1 1 0 2 1 1 0 0 1 0-2M255 16a1 1 0 1 1 0 2 1 1 0 0 1 0-2M269 16a1 1 0 1 1 0 2 1 1 0 0 1 0-2M283 16a1 1 0 1 1 0 2 1 1 0 0 1 0-2M297 16a1 1 0 1 1 0 2 1 1 0 0 1 0-2M311 16a1 1 0 1 1 0 2 1 1 0 0 1 0-2M325 16a1 1 0 1 1 0 2 1 1 0 0 1 0-2M339 16a1 1 0 1 1 0 2 1 1 0 0 1 0-2M353 16a1 1 0 1 1 0 2 1 1 0 0 1 0-2M367 16a1 1 0 1 1 0 2 1 1 0 0 1 0-2M381 16a1 1 0 1 1 0 2 1 1 0 0 1 0-2M395 16a1 1 0 1 1 0 2 1 1 0 0 1 0-2M409 16a1 1 0 1 1 0 2 1 1 0 0 1 0-2M423 16a1 1 0 1 1 0 2 1 1 0 0 1 0-2M437 16a1 1 0 1 1 0 2 1 1 0 0 1 0-2M451 16a1 1 0 1 1 0 2 1 1 0 0 1 0-2M465 16a1 1 0 1 1 0 2 1 1 0 0 1 0-2M479 16a1 1 0 1 1 0 2 1 1 0 0 1 0-2M493 16a1 1 0 1 1 0 2 1 1 0 0 1 0-2M507 16a1 1 0 1 1 0 2 1 1 0 0 1 0-2M521 16a1 1 0 1 1 0 2 1 1 0 0 1 0-2M535 16a1 1 0 1 1 0 2 1 1 0 0 1 0-2M549 16a1 1 0 1 1 0 2 1 1 0 0 1 0-2M563 16a1 1 0 1 1 0 2 1 1 0 0 1 0-2M577 16a1 1 0 1 1 0 2 1 1 0 0 1 0-2M591 16a1 1 0 1 1 0 2 1 1 0 0 1 0-2M605 16a1 1 0 1 1 0 2 1 1 0 0 1 0-2M619 16a1 1 0 1 1 0 2 1 1 0 0 1 0-2M633 16a1 1 0 1 1 0 2 1 1 0 0 1 0-2M647 16a1 1 0 1 1 0 2 1 1 0 0 1 0-2M661 16a1 1 0 1 1 0 2 1 1 0 0 1 0-2M675 16a1 1 0 1 1 0 2 1 1 0 0 1 0-2M689 16a1 1 0 1 1 0 2 1 1 0 0 1 0-2M703 16a1 1 0 1 1 0 2 1 1 0 0 1 0-2M717 16a1 1 0 1 1 0 2 1 1 0 0 1 0-2M-11 2a1 1 0 1 1 0 2 1 1 0 0 1 0-2M3 2a1 1 0 1 1 0 2 1 1 0 0 1 0-2M17 2a1 1 0 1 1 0 2 1 1 0 0 1 0-2M31 2a1 1 0 1 1 0 2 1 1 0 0 1 0-2M45 2a1 1 0 1 1 0 2 1 1 0 0 1 0-2M59 2a1 1 0 1 1 0 2 1 1 0 0 1 0-2M73 2a1 1 0 1 1 0 2 1 1 0 0 1 0-2M87 2a1 1 0 1 1 0 2 1 1 0 0 1 0-2M101 2a1 1 0 1 1 0 2 1 1 0 0 1 0-2M115 2a1 1 0 1 1 0 2 1 1 0 0 1 0-2M129 2a1 1 0 1 1 0 2 1 1 0 0 1 0-2M143 2a1 1 0 1 1 0 2 1 1 0 0 1 0-2M157 2a1 1 0 1 1 0 2 1 1 0 0 1 0-2M171 2a1 1 0 1 1 0 2 1 1 0 0 1 0-2M185 2a1 1 0 1 1 0 2 1 1 0 0 1 0-2M199 2a1 1 0 1 1 0 2 1 1 0 0 1 0-2M213 2a1 1 0 1 1 0 2 1 1 0 0 1 0-2M227 2a1 1 0 1 1 0 2 1 1 0 0 1 0-2M241 2a1 1 0 1 1 0 2 1 1 0 0 1 0-2M255 2a1 1 0 1 1 0 2 1 1 0 0 1 0-2M269 2a1 1 0 1 1 0 2 1 1 0 0 1 0-2M283 2a1 1 0 1 1 0 2 1 1 0 0 1 0-2M297 2a1 1 0 1 1 0 2 1 1 0 0 1 0-2M311 2a1 1 0 1 1 0 2 1 1 0 0 1 0-2M325 2a1 1 0 1 1 0 2 1 1 0 0 1 0-2M339 2a1 1 0 1 1 0 2 1 1 0 0 1 0-2M353 2a1 1 0 1 1 0 2 1 1 0 0 1 0-2M367 2a1 1 0 1 1 0 2 1 1 0 0 1 0-2M381 2a1 1 0 1 1 0 2 1 1 0 0 1 0-2M395 2a1 1 0 1 1 0 2 1 1 0 0 1 0-2M409 2a1 1 0 1 1 0 2 1 1 0 0 1 0-2M423 2a1 1 0 1 1 0 2 1 1 0 0 1 0-2M437 2a1 1 0 1 1 0 2 1 1 0 0 1 0-2M451 2a1 1 0 1 1 0 2 1 1 0 0 1 0-2M465 2a1 1 0 1 1 0 2 1 1 0 0 1 0-2M479 2a1 1 0 1 1 0 2 1 1 0 0 1 0-2M493 2a1 1 0 1 1 0 2 1 1 0 0 1 0-2M507 2a1 1 0 1 1 0 2 1 1 0 0 1 0-2M521 2a1 1 0 1 1 0 2 1 1 0 0 1 0-2M535 2a1 1 0 1 1 0 2 1 1 0 0 1 0-2M549 2a1 1 0 1 1 0 2 1 1 0 0 1 0-2M563 2a1 1 0 1 1 0 2 1 1 0 0 1 0-2M577 2a1 1 0 1 1 0 2 1 1 0 0 1 0-2M591 2a1 1 0 1 1 0 2 1 1 0 0 1 0-2M605 2a1 1 0 1 1 0 2 1 1 0 0 1 0-2M619 2a1 1 0 1 1 0 2 1 1 0 0 1 0-2M633 2a1 1 0 1 1 0 2 1 1 0 0 1 0-2M647 2a1 1 0 1 1 0 2 1 1 0 0 1 0-2M661 2a1 1 0 1 1 0 2 1 1 0 0 1 0-2M675 2a1 1 0 1 1 0 2 1 1 0 0 1 0-2M689 2a1 1 0 1 1 0 2 1 1 0 0 1 0-2M703 2a1 1 0 1 1 0 2 1 1 0 0 1 0-2M717 2a1 1 0 1 1 0 2 1 1 0 0 1 0-2"/></g><rect width="166.214" height="51.071" x="134.464" y="36.464" fill="#17264f" rx="8.821"/><rect width="166.214" height="51.071" x="134.464" y="36.464" stroke="#3369ff" stroke-width=".929" rx="8.821"/><rect width="27.857" height="27.857" x="145.143" y="48.071" fill="#b3c7ff" rx="3.714"/><path fill="#23262f" d="M166.13 61.398a.851.851 0 0 1 1.204 1.204l-1.952 1.952 1.952 1.951a.852.852 0 0 1-1.204 1.204l-1.951-1.952-1.952 1.952a.851.851 0 0 1-1.204-1.204l1.952-1.951-1.952-1.952a.852.852 0 0 1 1.204-1.204l1.952 1.952zm-7.059-5.356a.85.85 0 0 0-.851-.852c-.069 0-.147.004-.285.214-.166.254-.326.689-.481 1.36-.152.658-.281 1.452-.428 2.377-.1.623-.207 1.298-.334 2.008h1.528a.851.851 0 0 1 0 1.702h-1.848c-.147.796-.269 1.558-.384 2.275-.145.91-.282 1.766-.449 2.492-.164.71-.377 1.393-.716 1.91-.368.562-.928.984-1.71.984a2.553 2.553 0 0 1-2.553-2.554.851.851 0 1 1 1.702 0 .853.853 0 0 0 .851.852c.069 0 .148-.004.285-.214.166-.254.326-.689.482-1.36.151-.658.28-1.452.428-2.377.099-.623.206-1.298.333-2.008h-1.528a.851.851 0 0 1 0-1.702h1.849c.146-.796.269-1.558.383-2.275.145-.91.282-1.766.45-2.492.164-.71.376-1.393.715-1.91.368-.562.928-.984 1.71-.984a2.553 2.553 0 0 1 2.554 2.554.851.851 0 1 1-1.703 0"/><path fill="#fff" d="M186.023 53.183h-1.603a2 2 0 0 0-.253-.699 1.88 1.88 0 0 0-1.085-.844 2.4 2.4 0 0 0-.75-.112q-.716 0-1.269.36-.552.356-.866 1.046-.312.686-.312 1.676 0 1.008.312 1.698.318.686.866 1.037a2.33 2.33 0 0 0 1.265.348q.395 0 .737-.103.348-.108.622-.313.279-.206.467-.506.193-.3.266-.686l1.603.009q-.09.625-.39 1.174a3.5 3.5 0 0 1-.776.969q-.48.416-1.123.651a4.2 4.2 0 0 1-1.427.232q-1.158 0-2.067-.536t-1.431-1.547-.523-2.427q0-1.418.527-2.426.527-1.011 1.436-1.547t2.058-.536q.733 0 1.363.206.63.205 1.123.604.493.395.81.969.321.57.42 1.303m3.283 5.95a2.75 2.75 0 0 1-1.128-.223 1.84 1.84 0 0 1-.788-.669q-.288-.441-.288-1.089 0-.556.206-.921.205-.364.562-.583.356-.219.801-.33.45-.117.93-.167.579-.06.939-.108.36-.05.523-.154.167-.106.167-.33v-.026q0-.484-.287-.75t-.827-.266q-.57 0-.905.249-.33.248-.445.587l-1.449-.206q.171-.6.566-1.003.394-.407.964-.608.57-.207 1.26-.206.476 0 .948.111.471.112.861.369.39.254.626.69.24.438.24 1.093V59h-1.492v-.904h-.051a1.88 1.88 0 0 1-1.037.895 2.6 2.6 0 0 1-.896.142m.403-1.14q.466 0 .81-.185.342-.188.527-.497.189-.309.189-.673v-.776a.7.7 0 0 1-.249.112 4 4 0 0 1-.386.09q-.214.038-.424.068l-.364.052a2.7 2.7 0 0 0-.622.154 1.03 1.03 0 0 0-.433.3.73.73 0 0 0-.159.489q0 .428.313.647.314.219.798.219m6.185-7.772V59h-1.551v-8.78zm4.468 8.908q-.985 0-1.693-.433a2.9 2.9 0 0 1-1.085-1.196q-.377-.767-.377-1.767 0-1.002.386-1.77.386-.771 1.089-1.2.707-.433 1.672-.433.801 0 1.419.296.621.291.99.827.369.531.42 1.243H201.7a1.4 1.4 0 0 0-.429-.793q-.335-.321-.896-.321-.476 0-.836.257-.36.252-.561.729-.198.476-.198 1.14 0 .673.198 1.157.196.48.553.742.36.257.844.257.343 0 .613-.129.274-.132.459-.381.184-.248.253-.605h1.483a2.6 2.6 0 0 1-.412 1.24q-.356.535-.968.84-.613.3-1.441.3m8.292-2.898v-3.815h1.552V59h-1.505v-1.17h-.069q-.223.553-.733.904-.506.352-1.247.352-.647 0-1.145-.288a2 2 0 0 1-.771-.844q-.279-.557-.279-1.346v-4.192h1.552v3.952q0 .626.343.994.343.37.9.37.343 0 .665-.168.321-.167.527-.497.21-.335.21-.836m4.699-6.01V59h-1.552v-8.78zm3.491 8.912a2.75 2.75 0 0 1-1.128-.223 1.85 1.85 0 0 1-.789-.669q-.287-.441-.287-1.089 0-.556.206-.921.205-.364.562-.583.355-.219.801-.33.45-.117.93-.167.579-.06.939-.108.36-.05.523-.154.167-.106.167-.33v-.026q0-.484-.287-.75t-.827-.266q-.57 0-.905.249-.33.248-.445.587l-1.449-.206q.171-.6.565-1.003.395-.407.965-.608.57-.207 1.26-.206.476 0 .948.111.471.112.861.369.39.254.626.69.24.438.24 1.093V59h-1.492v-.904h-.051a1.88 1.88 0 0 1-1.037.895 2.6 2.6 0 0 1-.896.142m.403-1.14q.466 0 .81-.185.342-.188.527-.497.189-.309.189-.673v-.776a.7.7 0 0 1-.249.112 4 4 0 0 1-.386.09q-.214.038-.424.068l-.365.052a2.7 2.7 0 0 0-.621.154 1.03 1.03 0 0 0-.433.3.73.73 0 0 0-.159.489q0 .428.313.647.314.219.798.219m7.921-5.577v1.2h-3.785v-1.2zm-2.85-1.578h1.552v6.182q0 .312.094.48a.5.5 0 0 0 .257.223q.159.06.352.06.145 0 .265-.022.124-.021.189-.038l.261 1.213q-.123.043-.355.094a3 3 0 0 1-.558.06 2.5 2.5 0 0 1-1.05-.176 1.63 1.63 0 0 1-.741-.608q-.27-.412-.266-1.03zm6.993 8.29q-.991 0-1.711-.41a2.8 2.8 0 0 1-1.102-1.176q-.385-.762-.385-1.796 0-1.015.385-1.783.39-.771 1.089-1.2.699-.433 1.642-.433.609 0 1.149.197.545.194.96.6.42.407.66 1.038.24.626.24 1.491v.476h-5.397v-1.046h3.91a1.7 1.7 0 0 0-.193-.793 1.4 1.4 0 0 0-.527-.553 1.5 1.5 0 0 0-.78-.201 1.5 1.5 0 0 0-.836.231q-.36.228-.562.6a1.7 1.7 0 0 0-.201.81v.914q0 .574.21.986.21.407.587.625.377.215.883.215.339 0 .613-.095.274-.098.476-.287t.304-.467l1.449.163a2.26 2.26 0 0 1-.523 1.003q-.381.425-.977.66a3.8 3.8 0 0 1-1.363.232m6.684-.012q-.777 0-1.389-.399-.613-.398-.969-1.157-.356-.758-.356-1.844 0-1.097.36-1.852.364-.758.982-1.144.617-.39 1.376-.39.579 0 .952.197.372.193.591.467.219.27.339.51h.064v-3.283h1.556V59h-1.526v-1.037h-.094q-.12.24-.347.51a1.9 1.9 0 0 1-.601.454q-.372.189-.938.189m.433-1.273q.492 0 .84-.266.347-.27.527-.75t.18-1.12-.18-1.11a1.58 1.58 0 0 0-.523-.733q-.343-.261-.844-.261-.52 0-.866.27a1.63 1.63 0 0 0-.523.746 3.1 3.1 0 0 0-.176 1.089q0 .617.176 1.102.18.48.527.758.35.275.862.275m7.79 1.157v-8.78h5.624v1.334h-4.034v2.383h3.648v1.334h-3.648V59zm7.004 0v-6.584h1.552V59zm.78-7.519a.9.9 0 0 1-.634-.244.79.79 0 0 1-.266-.596.78.78 0 0 1 .266-.596.9.9 0 0 1 .634-.249q.373 0 .635.249a.78.78 0 0 1 .266.596q0 .347-.266.596a.9.9 0 0 1-.635.244m5.283 7.648q-.991 0-1.711-.412a2.8 2.8 0 0 1-1.101-1.175q-.387-.762-.386-1.796 0-1.015.386-1.783.39-.771 1.088-1.2.699-.433 1.642-.433.609 0 1.149.197.544.194.96.6.42.407.66 1.038.24.626.24 1.491v.476h-5.397v-1.046h3.91a1.7 1.7 0 0 0-.193-.793 1.4 1.4 0 0 0-.527-.553 1.5 1.5 0 0 0-.78-.201 1.5 1.5 0 0 0-.836.231q-.36.228-.562.6a1.73 1.73 0 0 0-.201.81v.914q0 .574.21.986.21.407.587.625.377.215.883.215.339 0 .613-.095.275-.098.476-.287.202-.188.304-.467l1.449.163a2.26 2.26 0 0 1-.523 1.003q-.381.425-.977.66a3.8 3.8 0 0 1-1.363.232m5.792-8.908V59h-1.552v-8.78zm4.039 8.895q-.775 0-1.389-.399-.612-.398-.968-1.157-.356-.758-.356-1.844 0-1.097.36-1.852.364-.758.982-1.144.617-.39 1.376-.39.578 0 .951.197.373.193.592.467.219.27.338.51h.065v-3.283h1.556V59h-1.526v-1.037h-.095q-.12.24-.347.51a1.9 1.9 0 0 1-.6.454q-.374.189-.939.189m.433-1.273q.494 0 .84-.266.348-.27.528-.75t.18-1.12-.18-1.11a1.6 1.6 0 0 0-.523-.733q-.343-.261-.845-.261-.519 0-.866.27t-.523.746-.175 1.089q0 .617.175 1.102.18.48.528.758.351.275.861.275M276.467 59h-1.698l3.091-8.78h1.963l3.095 8.78h-1.697l-2.345-6.979h-.069zm.055-3.442h4.63v1.277h-4.63zm8.44 2.388a.92.92 0 0 1-.669-.275.9.9 0 0 1-.274-.669.88.88 0 0 1 .274-.66.92.92 0 0 1 .669-.274q.377 0 .656.274a.904.904 0 0 1 .15 1.136 1 1 0 0 1-.343.343.9.9 0 0 1-.463.125m0-4.352a.92.92 0 0 1-.669-.274.9.9 0 0 1-.274-.669.88.88 0 0 1 .274-.66.91.91 0 0 1 .669-.278q.377 0 .656.278a.9.9 0 0 1 .287.66.986.986 0 0 1-.48.814.87.87 0 0 1-.463.13M181.483 74h-2.975v-8.78h3.036q1.307 0 2.246.528.942.523 1.449 1.505.505.981.505 2.349 0 1.371-.51 2.358a3.52 3.52 0 0 1-1.461 1.513q-.952.527-2.29.527m-1.384-1.376h1.307q.918 0 1.531-.334.613-.339.921-1.008.309-.673.309-1.68 0-1.008-.309-1.672a2.1 2.1 0 0 0-.913-.999q-.6-.334-1.492-.334h-1.354zm10.003 1.505q-.99 0-1.71-.412a2.8 2.8 0 0 1-1.102-1.174q-.386-.764-.386-1.797 0-1.015.386-1.783.39-.771 1.089-1.2.699-.433 1.642-.433.608 0 1.148.197.544.194.961.6.42.408.66 1.038.24.626.24 1.491v.476h-5.397v-1.046h3.909a1.7 1.7 0 0 0-.193-.793 1.4 1.4 0 0 0-.527-.553 1.5 1.5 0 0 0-.78-.201q-.476 0-.836.231-.36.228-.562.6a1.73 1.73 0 0 0-.201.81v.914q0 .574.21.986.21.407.587.625.378.215.883.215.339 0 .613-.095.275-.098.476-.287.202-.189.305-.467l1.448.163a2.26 2.26 0 0 1-.522 1.003 2.56 2.56 0 0 1-.978.66 3.7 3.7 0 0 1-1.363.232m5.564-.129-1.86-6.584h1.581l1.158 4.63h.06l1.183-4.63h1.565l1.183 4.603h.064l1.14-4.603h1.587L201.462 74h-1.616l-1.235-4.45h-.09L197.287 74zm11.807 0v-8.78h3.292q1.012 0 1.698.378.69.377 1.041 1.037.356.657.356 1.492 0 .844-.356 1.5a2.54 2.54 0 0 1-1.05 1.034q-.695.373-1.71.373h-2.182v-1.308h1.967q.593 0 .969-.206.378-.205.557-.566.185-.36.185-.827t-.185-.823a1.25 1.25 0 0 0-.561-.553q-.378-.201-.973-.201h-1.458V74zm10.478.129q-.965 0-1.672-.425a2.9 2.9 0 0 1-1.098-1.187q-.385-.763-.385-1.783t.385-1.788a2.9 2.9 0 0 1 1.098-1.192q.707-.424 1.672-.424.964 0 1.672.424.706.424 1.093 1.192.39.767.39 1.788t-.39 1.783a2.86 2.86 0 0 1-1.093 1.187q-.708.425-1.672.425m.008-1.244q.523 0 .875-.287a1.74 1.74 0 0 0 .523-.78q.175-.489.175-1.089 0-.604-.175-1.093a1.74 1.74 0 0 0-.523-.784q-.352-.292-.875-.292-.536 0-.891.292-.352.291-.528.784-.171.489-.171 1.093 0 .6.171 1.09.176.487.528.78.355.285.891.286M222.423 74v-6.584h1.552V74zm.78-7.519a.9.9 0 0 1-.634-.244.79.79 0 0 1-.266-.596q0-.352.266-.596a.9.9 0 0 1 .634-.249q.373 0 .634.249a.78.78 0 0 1 .266.596q0 .347-.266.596a.9.9 0 0 1-.634.244m3.919 3.66V74h-1.552v-6.584h1.484v1.118h.077q.227-.552.724-.878.502-.327 1.239-.326.681 0 1.187.291.51.292.789.845.284.553.279 1.342V74h-1.552v-3.952q0-.66-.343-1.034-.339-.372-.939-.372-.407 0-.724.18a1.25 1.25 0 0 0-.493.51 1.7 1.7 0 0 0-.176.81m9.092-2.725v1.2h-3.785v-1.2zm-2.85-1.578h1.551v6.182q0 .312.095.48a.5.5 0 0 0 .257.223q.159.06.351.06.147 0 .266-.022.124-.021.189-.038l.261 1.213q-.124.043-.355.094a3 3 0 0 1-.558.06 2.5 2.5 0 0 1-1.05-.176 1.64 1.64 0 0 1-.742-.609q-.27-.411-.265-1.028z"/><rect width="95.5" height="79.5" x="14.25" y="22.25" fill="#202125" rx="3.75"/><rect width="95.5" height="79.5" x="14.25" y="22.25" stroke="#888c96" stroke-dasharray="6 6" stroke-width=".5" rx="3.75"/><rect width="75.041" height="23.041" x="24.48" y="36.48" fill="#23262f" rx="5.52"/><rect width="75.041" height="23.041" x="24.48" y="36.48" stroke="#888c96" stroke-width=".959" rx="5.52"/><path fill="#fff" d="M35.384 46.546v.994H32.25v-.995zm-2.361-1.307h1.285v5.12q0 .26.078.398.083.135.213.185.132.05.292.05.12 0 .22-.018.103-.018.156-.032l.217 1.005q-.103.035-.295.078-.189.042-.462.05-.483.013-.87-.146a1.35 1.35 0 0 1-.614-.504q-.225-.342-.22-.853zm5.792 6.868q-.82 0-1.416-.341-.594-.345-.913-.973-.32-.633-.32-1.488 0-.842.32-1.478.323-.639.902-.994.58-.359 1.36-.359.505 0 .952.164.45.16.795.497.349.337.547.86.2.518.199 1.235v.394h-4.47v-.866h3.238a1.4 1.4 0 0 0-.16-.657 1.16 1.16 0 0 0-.437-.458 1.23 1.23 0 0 0-.646-.167q-.395 0-.693.192a1.3 1.3 0 0 0-.465.497 1.4 1.4 0 0 0-.167.67v.757q0 .477.174.817.174.338.487.519.312.177.731.177.281 0 .508-.078a1.1 1.1 0 0 0 .394-.238 1 1 0 0 0 .252-.387l1.2.135q-.113.476-.433.83-.315.353-.81.548-.492.192-1.129.191M42.33 52v-5.455h1.228v.927h.064q.17-.468.565-.731a1.64 1.64 0 0 1 .94-.267q.554 0 .935.27.383.267.54.728h.056q.182-.454.611-.724.434-.274 1.026-.274.753 0 1.23.476.475.475.475 1.389V52h-1.29v-3.462q0-.508-.269-.742a.96.96 0 0 0-.66-.239q-.465 0-.729.292-.258.287-.259.749V52h-1.26v-3.516q0-.422-.256-.674-.252-.253-.66-.253a.93.93 0 0 0-.505.143 1 1 0 0 0-.362.394q-.135.252-.135.59V52zm8.974 2.045v-7.5h1.264v.902h.075q.1-.198.28-.422.182-.227.49-.387.31-.165.789-.164.632 0 1.14.324.51.32.81.948.3.624.301 1.534 0 .898-.294 1.527-.296.628-.803.959t-1.15.33q-.47 0-.778-.156a1.6 1.6 0 0 1-.498-.377 2.4 2.4 0 0 1-.287-.422h-.053v2.904zm1.26-4.772q0 .528.15.927.152.398.437.621.287.22.696.22.426 0 .714-.227.287-.231.433-.629.15-.4.149-.912 0-.509-.146-.902a1.36 1.36 0 0 0-.433-.618q-.287-.224-.717-.224a1.13 1.13 0 0 0-.7.217 1.33 1.33 0 0 0-.437.607q-.145.39-.145.92m7.405 2.833q-.821 0-1.417-.34-.593-.345-.913-.973-.32-.633-.32-1.488 0-.842.32-1.478.323-.639.902-.994.58-.359 1.36-.359.505 0 .952.164.45.16.796.497.348.337.546.86.2.518.2 1.235v.394h-4.472v-.866h3.239a1.4 1.4 0 0 0-.16-.657 1.16 1.16 0 0 0-.436-.458 1.23 1.23 0 0 0-.647-.167q-.394 0-.692.192a1.3 1.3 0 0 0-.465.497 1.4 1.4 0 0 0-.167.67v.757q0 .477.174.817.174.338.486.519.312.177.732.177.28 0 .507-.078a1.1 1.1 0 0 0 .395-.238 1 1 0 0 0 .252-.387l1.2.135a1.9 1.9 0 0 1-.433.83q-.315.353-.81.548a3.1 3.1 0 0 1-1.13.191M63.48 52v-5.455h1.246v.91h.057q.15-.473.511-.728.366-.26.835-.26.106 0 .238.011.135.007.224.025v1.182a1.4 1.4 0 0 0-.26-.05 2.4 2.4 0 0 0-.337-.024 1.3 1.3 0 0 0-.632.153q-.277.148-.437.415a1.17 1.17 0 0 0-.16.614V52zm5.437.11q-.519 0-.934-.185a1.5 1.5 0 0 1-.654-.554q-.238-.365-.238-.902 0-.461.17-.763.172-.302.466-.483.295-.18.664-.273.373-.096.77-.139.48-.05.778-.089.3-.041.434-.128.138-.088.138-.273V48.3q0-.402-.238-.622t-.685-.22q-.472 0-.75.206-.273.206-.369.487l-1.2-.17q.142-.498.469-.832a2.04 2.04 0 0 1 .799-.504q.472-.17 1.044-.17.394 0 .785.092.39.092.713.305.324.21.519.572.198.362.199.905V52h-1.236v-.75h-.043a1.57 1.57 0 0 1-.86.743q-.315.117-.741.117m.333-.944q.387 0 .672-.153a1.13 1.13 0 0 0 .436-.412 1.05 1.05 0 0 0 .157-.558v-.642a.6.6 0 0 1-.206.092 3 3 0 0 1-.32.075q-.177.031-.352.056l-.301.043a2.3 2.3 0 0 0-.515.128.86.86 0 0 0-.359.248.6.6 0 0 0-.131.405q0 .356.259.536.26.181.66.181m6.563-4.62v.994h-3.136v-.995zm-2.362-1.307h1.286v5.12q0 .26.078.398.083.135.213.185.132.05.291.05.12 0 .22-.018.104-.018.157-.032l.216 1.005a2.419 2.419 0 0 1-.756.128q-.483.013-.87-.146a1.35 1.35 0 0 1-.614-.504q-.225-.342-.22-.853zm6.914 4.467v-3.16h1.285V52h-1.246v-.97h-.057a1.64 1.64 0 0 1-.607.75q-.42.291-1.034.291-.536 0-.948-.238a1.65 1.65 0 0 1-.64-.7q-.23-.461-.23-1.114v-3.474h1.285v3.275q0 .518.285.824.284.305.745.305.285 0 .55-.139a1.1 1.1 0 0 0 .438-.412q.174-.276.174-.692M82.973 52v-5.455h1.246v.91h.057a1.36 1.36 0 0 1 1.346-.988q.106 0 .238.011.135.007.224.025v1.182a1.4 1.4 0 0 0-.26-.05 2.4 2.4 0 0 0-.337-.024 1.3 1.3 0 0 0-.632.153q-.276.148-.437.415a1.17 1.17 0 0 0-.16.614V52zm6.155.106q-.821 0-1.417-.34-.593-.345-.912-.973-.32-.633-.32-1.488 0-.842.32-1.478.323-.639.901-.994.58-.359 1.36-.359.505 0 .952.164.45.16.796.497.348.337.547.86.198.518.198 1.235v.394h-4.47v-.866h3.238a1.4 1.4 0 0 0-.16-.657 1.16 1.16 0 0 0-.436-.458 1.23 1.23 0 0 0-.647-.167q-.394 0-.692.192a1.3 1.3 0 0 0-.465.497 1.4 1.4 0 0 0-.167.67v.757q0 .477.174.817.174.338.486.519.313.177.732.177.28 0 .508-.078a1.1 1.1 0 0 0 .394-.238 1 1 0 0 0 .252-.387l1.2.135q-.114.476-.433.83-.315.353-.81.548-.493.192-1.129.191"/><rect width="58.041" height="23.041" x="24.48" y="68.48" fill="#23262f" rx="5.52"/><rect width="58.041" height="23.041" x="24.48" y="68.48" stroke="#888c96" stroke-width=".959" rx="5.52"/><path fill="#fff" d="M33.946 80.804V84h-1.285v-7.273h1.257v2.745h.063q.192-.46.594-.728.405-.27 1.03-.27.567 0 .99.238.423.239.654.696.234.459.234 1.119V84h-1.286v-3.274q0-.55-.284-.856-.28-.309-.788-.309-.34 0-.61.15a1.04 1.04 0 0 0-.42.422q-.15.276-.149.671m8.324.902v-3.16h1.285V84H42.31v-.97h-.057a1.64 1.64 0 0 1-.607.75q-.42.291-1.034.291-.536 0-.948-.238a1.65 1.65 0 0 1-.639-.7q-.23-.461-.23-1.114v-3.474h1.285v3.275q0 .518.284.824.285.305.746.305.284 0 .55-.139a1.1 1.1 0 0 0 .437-.412q.174-.276.174-.692M44.877 84v-5.454h1.229v.926h.064q.17-.468.565-.731a1.64 1.64 0 0 1 .94-.267q.554 0 .935.27.383.266.54.728h.056q.181-.454.61-.724.435-.274 1.027-.274.753 0 1.229.476t.476 1.389V84h-1.29v-3.462q0-.508-.27-.742a.96.96 0 0 0-.66-.239q-.465 0-.728.292-.258.287-.259.749V84h-1.26v-3.516q0-.422-.256-.674-.253-.252-.66-.252a.93.93 0 0 0-.505.142 1 1 0 0 0-.362.394 1.2 1.2 0 0 0-.135.59V84zm8.975 0v-5.454h1.285V84zm.646-6.229a.75.75 0 0 1-.525-.202.65.65 0 0 1-.22-.494q0-.29.22-.493a.74.74 0 0 1 .525-.206q.309 0 .526.206.22.203.22.493a.65.65 0 0 1-.22.494.74.74 0 0 1-.526.202m3.986 6.325q-.643 0-1.151-.33t-.803-.96q-.294-.627-.294-1.526 0-.91.298-1.534.302-.63.813-.948a2.1 2.1 0 0 1 1.14-.324q.48 0 .788.164.31.159.49.387.182.224.281.422h.053v-2.72h1.29V84h-1.265v-.86h-.078a2.2 2.2 0 0 1-.288.423 1.6 1.6 0 0 1-.497.377q-.309.156-.778.156m.358-1.055q.408 0 .696-.22.288-.224.437-.621.15-.399.15-.927 0-.53-.15-.92a1.3 1.3 0 0 0-.433-.607 1.12 1.12 0 0 0-.7-.217q-.429 0-.717.224t-.433.618a2.6 2.6 0 0 0-.146.902q0 .51.146.912.149.398.436.629.291.227.714.227m3.916.959v-5.454h1.286V84zm.646-6.229a.75.75 0 0 1-.525-.202.65.65 0 0 1-.22-.494q0-.29.22-.493a.74.74 0 0 1 .526-.206q.308 0 .525.206.22.203.22.493a.65.65 0 0 1-.22.494.74.74 0 0 1-.526.202m4.685.775v.994h-3.135v-.995zm-2.361-1.307h1.285v5.12q0 .26.078.398.082.135.214.185.13.05.29.05.122 0 .22-.018.105-.018.157-.032l.217 1.005a2.42 2.42 0 0 1-.756.128q-.484.013-.87-.146a1.35 1.35 0 0 1-.615-.504q-.225-.342-.22-.853zm4.235 8.807a2.6 2.6 0 0 1-.838-.136l.299-1q.28.08.5.077a.6.6 0 0 0 .387-.138q.171-.132.288-.44l.11-.295-1.978-5.568h1.364l1.257 4.119h.057l1.26-4.12h1.368l-2.184 6.115a2.5 2.5 0 0 1-.405.743 1.65 1.65 0 0 1-.618.476q-.362.165-.867.166"/><path fill="#353841" d="M26 13.774h53c.966 0 1.75.784 1.75 1.75v12a1.75 1.75 0 0 1-1.75 1.75H26a1.75 1.75 0 0 1-1.75-1.75v-12c0-.966.784-1.75 1.75-1.75"/><path stroke="#888c96" stroke-width=".5" d="M26 13.774h53c.966 0 1.75.784 1.75 1.75v12a1.75 1.75 0 0 1-1.75 1.75H26a1.75 1.75 0 0 1-1.75-1.75v-12c0-.966.784-1.75 1.75-1.75Z"/><path fill="#fff" d="M28.398 19.356v-1.104H34.2v1.104h-2.248v6.168h-1.306v-6.168zm8.488 6.275q-.821 0-1.417-.341-.593-.345-.913-.973-.32-.632-.32-1.488 0-.841.32-1.477.324-.64.902-.994.58-.36 1.36-.36.505 0 .952.164.45.16.795.497.35.338.547.86.2.518.2 1.236v.394H34.84v-.867h3.239a1.4 1.4 0 0 0-.16-.657 1.16 1.16 0 0 0-.437-.458 1.23 1.23 0 0 0-.646-.167q-.394 0-.692.192a1.3 1.3 0 0 0-.466.497 1.4 1.4 0 0 0-.166.671v.757q0 .476.173.816.175.337.487.519.312.177.732.177.28 0 .507-.078.228-.081.395-.237a1 1 0 0 0 .252-.388l1.2.135q-.114.477-.433.831-.315.352-.81.547-.493.192-1.13.192m4.798-7.38v7.273H40.4v-7.272zm3.737 7.38q-.821 0-1.417-.341-.593-.345-.913-.973-.32-.632-.32-1.488 0-.841.32-1.477.324-.64.902-.994.58-.36 1.36-.36.505 0 .952.164.45.16.796.497.348.338.547.86.198.518.198 1.236v.394h-4.47v-.867h3.238a1.4 1.4 0 0 0-.16-.657 1.16 1.16 0 0 0-.436-.458A1.23 1.23 0 0 0 45.37 21q-.394 0-.692.192a1.3 1.3 0 0 0-.465.497 1.4 1.4 0 0 0-.167.671v.757q0 .476.174.816.174.337.486.519.313.177.732.177.28 0 .508-.078.226-.081.394-.237a1 1 0 0 0 .252-.388l1.2.135a1.9 1.9 0 0 1-.433.831q-.315.352-.81.547a3.1 3.1 0 0 1-1.129.192m3.513-.107V20.07h1.229v.927h.064q.17-.47.564-.732a1.64 1.64 0 0 1 .941-.266q.554 0 .934.27.384.266.54.728h.057a1.5 1.5 0 0 1 .61-.725Q54.309 20 54.9 20q.752 0 1.229.476.475.476.475 1.388v3.661h-1.289v-3.462q0-.507-.27-.742a.96.96 0 0 0-.66-.238q-.465 0-.728.291-.26.288-.26.75v3.401h-1.26V22.01q0-.423-.256-.675-.252-.252-.66-.252a.93.93 0 0 0-.504.142 1 1 0 0 0-.363.394 1.2 1.2 0 0 0-.135.59v3.316zm11.39.107q-.82 0-1.418-.341-.593-.345-.912-.973-.32-.632-.32-1.488 0-.841.32-1.477.323-.64.902-.994.579-.36 1.36-.36.504 0 .952.164.45.16.795.497.348.338.547.86.2.518.199 1.236v.394h-4.471v-.867h3.239a1.4 1.4 0 0 0-.16-.657 1.16 1.16 0 0 0-.437-.458 1.23 1.23 0 0 0-.646-.167q-.395 0-.693.192a1.3 1.3 0 0 0-.465.497 1.4 1.4 0 0 0-.167.671v.757q0 .476.174.816.174.337.487.519.312.177.731.177.28 0 .508-.078.227-.081.394-.237a1 1 0 0 0 .252-.388l1.2.135q-.113.477-.433.831-.315.352-.81.547-.492.192-1.129.192m6.236-5.561v.994h-3.136v-.994zm-2.362-1.307h1.286v5.12q0 .26.078.399.083.135.213.184.132.05.291.05.12 0 .22-.018.104-.017.157-.032l.216 1.005q-.102.036-.294.078-.189.043-.462.05-.483.014-.87-.146a1.35 1.35 0 0 1-.614-.504q-.225-.34-.22-.852zm3.437 6.761V20.07h1.247v.909h.056q.15-.473.512-.728.366-.26.834-.26.106 0 .238.011.135.007.224.025v1.183a1.4 1.4 0 0 0-.26-.05 2.4 2.4 0 0 0-.337-.025 1.3 1.3 0 0 0-.632.153q-.276.15-.437.415a1.17 1.17 0 0 0-.16.615v3.206zm4.93 2.046a2.6 2.6 0 0 1-.838-.135l.298-1.001q.28.081.5.078a.6.6 0 0 0 .388-.139q.171-.132.288-.44l.11-.295-1.978-5.568h1.363l1.258 4.12h.056l1.261-4.12h1.367l-2.184 6.115a2.5 2.5 0 0 1-.405.742 1.65 1.65 0 0 1-.618.476q-.362.167-.866.167"/><path fill="#888c96" d="M113.25 61.25a.75.75 0 0 0 0 1.5v-1.5m18.03 1.28a.75.75 0 0 0 0-1.06l-4.773-4.773a.75.75 0 1 0-1.06 1.06L129.689 62l-4.242 4.243a.75.75 0 0 0 1.06 1.06zM113.25 62v.75h17.5v-1.5h-17.5z"/><rect width="166.214" height="51.071" x="389.464" y="36.464" fill="#1d3739" rx="8.821"/><rect width="166.214" height="51.071" x="389.464" y="36.464" stroke="#3fd9d1" stroke-width=".929" rx="8.821"/><rect width="27.857" height="27.857" x="400.143" y="48.071" fill="#3fd9d1" rx="3.714"/><path stroke="#17181c" stroke-linecap="round" stroke-linejoin="round" stroke-miterlimit="10" stroke-width="1.579" d="M409.888 59.115c0-.797-.646-1.443-1.443-1.443h-1.443c-.796 0-1.442.646-1.442 1.443v4.328c0 .796.646 1.442 1.442 1.442h5.483c.796 0 1.442-.646 1.442-1.442v-2.886c0-.797-.646-1.442-1.442-1.442zM419.698 69.07h-.721a2.164 2.164 0 0 1-2.165-2.165V62M416.812 59.115v-2.02c0-1.195.969-2.164 2.165-2.164h.721M419.698 62h-5.771"/><path stroke="#17181c" stroke-linecap="round" stroke-linejoin="round" stroke-miterlimit="10" stroke-width="1.579" d="M421.141 56.373a1.443 1.443 0 1 0 0-2.885 1.443 1.443 0 0 0 0 2.885M421.141 63.443a1.443 1.443 0 1 0 0-2.886 1.443 1.443 0 0 0 0 2.886M421.141 70.512a1.443 1.443 0 1 0 0-2.886 1.443 1.443 0 0 0 0 2.886"/><path fill="#fff" d="M441.023 53.183h-1.603a2 2 0 0 0-.253-.699 1.88 1.88 0 0 0-1.085-.844 2.4 2.4 0 0 0-.75-.112q-.715 0-1.269.36-.552.356-.866 1.046-.312.686-.312 1.676 0 1.008.312 1.698.318.686.866 1.037a2.33 2.33 0 0 0 1.265.348q.395 0 .737-.103.348-.108.622-.313.279-.206.467-.506.193-.3.266-.686l1.603.009q-.09.625-.39 1.174a3.5 3.5 0 0 1-.776.969q-.48.416-1.123.651a4.2 4.2 0 0 1-1.427.232q-1.158 0-2.067-.536t-1.431-1.547q-.523-1.012-.523-2.427 0-1.418.527-2.426.527-1.011 1.436-1.547t2.058-.536q.732 0 1.363.206.63.205 1.123.604.493.395.81.969.321.57.42 1.303m3.283 5.95a2.75 2.75 0 0 1-1.128-.223 1.84 1.84 0 0 1-.788-.669q-.288-.441-.288-1.089 0-.556.206-.921.205-.364.562-.583.356-.219.801-.33.45-.117.93-.167.579-.06.939-.108.36-.05.523-.154.168-.106.167-.33v-.026q0-.484-.287-.75t-.827-.266q-.57 0-.905.249-.33.248-.445.587l-1.449-.206q.171-.6.566-1.003.393-.407.964-.608.57-.207 1.26-.206.476 0 .948.111.471.112.861.369.39.254.626.69.24.438.24 1.093V59h-1.492v-.904h-.051a1.88 1.88 0 0 1-1.037.895 2.6 2.6 0 0 1-.896.142m.403-1.14q.466 0 .81-.185.342-.188.527-.497.189-.309.189-.673v-.776a.7.7 0 0 1-.249.112 4 4 0 0 1-.386.09q-.214.038-.424.068l-.364.052a2.7 2.7 0 0 0-.622.154 1.03 1.03 0 0 0-.433.3.73.73 0 0 0-.159.489q0 .428.313.647.314.219.798.219m6.185-7.772V59h-1.551v-8.78zm4.468 8.908q-.985 0-1.693-.433a2.9 2.9 0 0 1-1.085-1.196q-.377-.767-.377-1.767 0-1.002.386-1.77.386-.771 1.089-1.2.707-.433 1.672-.433.801 0 1.419.296.621.291.99.827.369.531.42 1.243H456.7a1.4 1.4 0 0 0-.429-.793q-.335-.321-.896-.321-.476 0-.836.257-.36.252-.561.729-.198.476-.198 1.14 0 .673.198 1.157.196.48.553.742.36.257.844.257.343 0 .613-.129.274-.132.459-.381.184-.248.253-.605h1.483a2.6 2.6 0 0 1-.412 1.24q-.356.535-.968.84-.613.3-1.441.3m8.292-2.898v-3.815h1.552V59h-1.505v-1.17h-.069q-.223.553-.733.904-.506.352-1.247.352-.648 0-1.145-.288a2 2 0 0 1-.771-.844q-.279-.557-.279-1.346v-4.192h1.552v3.952q0 .626.343.994.343.37.9.37.343 0 .665-.168.321-.167.527-.497.21-.335.21-.836m4.699-6.01V59h-1.552v-8.78zm3.491 8.912a2.75 2.75 0 0 1-1.128-.223 1.85 1.85 0 0 1-.789-.669q-.287-.441-.287-1.089 0-.556.206-.921.205-.364.562-.583.356-.219.801-.33.45-.117.93-.167.579-.06.939-.108.36-.05.523-.154.168-.106.167-.33v-.026q0-.484-.287-.75t-.827-.266q-.57 0-.905.249-.33.248-.445.587l-1.449-.206q.171-.6.565-1.003.395-.407.965-.608.57-.207 1.26-.206.476 0 .948.111.471.112.861.369.39.254.626.69.24.438.24 1.093V59h-1.492v-.904h-.051a1.88 1.88 0 0 1-1.037.895 2.6 2.6 0 0 1-.896.142m.403-1.14q.466 0 .81-.185.342-.188.527-.497.189-.309.189-.673v-.776a.7.7 0 0 1-.249.112 4 4 0 0 1-.386.09q-.214.038-.424.068l-.365.052a2.7 2.7 0 0 0-.621.154 1.03 1.03 0 0 0-.433.3.73.73 0 0 0-.159.489q0 .428.313.647.314.219.798.219m7.921-5.577v1.2h-3.785v-1.2zm-2.85-1.578h1.552v6.182q0 .312.094.48a.5.5 0 0 0 .257.223q.159.06.352.06.145 0 .265-.022.125-.021.189-.038l.261 1.213q-.124.043-.355.094a3 3 0 0 1-.558.06 2.5 2.5 0 0 1-1.05-.176 1.63 1.63 0 0 1-.741-.608q-.27-.412-.266-1.03zm6.993 8.29q-.991 0-1.711-.41a2.8 2.8 0 0 1-1.102-1.176q-.385-.762-.385-1.796 0-1.015.385-1.783.39-.771 1.089-1.2.699-.433 1.642-.433.609 0 1.149.197.545.194.96.6.42.407.66 1.038.24.626.24 1.491v.476h-5.397v-1.046h3.91a1.7 1.7 0 0 0-.193-.793 1.4 1.4 0 0 0-.527-.553 1.5 1.5 0 0 0-.78-.201 1.5 1.5 0 0 0-.836.231q-.36.228-.562.6a1.7 1.7 0 0 0-.201.81v.914q0 .574.21.986.21.407.587.625.377.215.883.215.339 0 .613-.095.274-.098.476-.287t.304-.467l1.449.163a2.26 2.26 0 0 1-.523 1.003q-.381.425-.977.66a3.8 3.8 0 0 1-1.363.232m6.684-.012q-.777 0-1.389-.399-.614-.398-.969-1.157-.356-.758-.356-1.844 0-1.097.36-1.852.364-.758.982-1.144.617-.39 1.376-.39.579 0 .952.197.372.193.591.467.219.27.339.51h.064v-3.283h1.556V59h-1.526v-1.037h-.094q-.12.24-.347.51a1.9 1.9 0 0 1-.601.454q-.372.189-.938.189m.433-1.273q.492 0 .84-.266.347-.27.527-.75t.18-1.12-.18-1.11a1.58 1.58 0 0 0-.523-.733q-.343-.261-.844-.261-.52 0-.866.27a1.63 1.63 0 0 0-.523.746 3.1 3.1 0 0 0-.176 1.089q0 .617.176 1.102.18.48.527.758.35.275.862.275m7.79 1.157v-8.78h5.624v1.334h-4.034v2.383h3.648v1.334h-3.648V59zm7.004 0v-6.584h1.552V59zm.78-7.519a.9.9 0 0 1-.634-.244.79.79 0 0 1-.266-.596.78.78 0 0 1 .266-.596.9.9 0 0 1 .634-.249q.373 0 .635.249a.78.78 0 0 1 .266.596q0 .347-.266.596a.9.9 0 0 1-.635.244m5.283 7.648q-.991 0-1.711-.412a2.8 2.8 0 0 1-1.101-1.175q-.387-.762-.386-1.796 0-1.015.386-1.783.39-.771 1.088-1.2.699-.433 1.642-.433.609 0 1.149.197.545.194.96.6.42.407.66 1.038.24.626.24 1.491v.476h-5.397v-1.046h3.91a1.7 1.7 0 0 0-.193-.793 1.4 1.4 0 0 0-.527-.553 1.5 1.5 0 0 0-.78-.201 1.5 1.5 0 0 0-.836.231q-.36.228-.562.6a1.73 1.73 0 0 0-.201.81v.914q0 .574.21.986.21.407.587.625.377.215.883.215.339 0 .613-.095.275-.098.476-.287.202-.188.304-.467l1.449.163a2.26 2.26 0 0 1-.523 1.003q-.381.425-.977.66a3.8 3.8 0 0 1-1.363.232m5.792-8.908V59h-1.552v-8.78zm4.039 8.895q-.775 0-1.389-.399-.612-.398-.968-1.157-.357-.758-.356-1.844 0-1.097.36-1.852.364-.758.982-1.144.617-.39 1.376-.39.578 0 .951.197.373.193.592.467.218.27.338.51h.065v-3.283h1.556V59h-1.526v-1.037h-.095q-.12.24-.347.51a1.9 1.9 0 0 1-.6.454q-.374.189-.939.189m.433-1.273q.494 0 .84-.266.348-.27.528-.75t.18-1.12-.18-1.11a1.6 1.6 0 0 0-.523-.733q-.343-.261-.845-.261-.519 0-.866.27t-.523.746q-.175.475-.175 1.089 0 .617.175 1.102.18.48.528.758.351.275.861.275m7.79 1.157v-8.78h3.361q.952 0 1.582.3.635.297.947.811.317.515.317 1.166 0 .536-.205.917a1.73 1.73 0 0 1-.553.613q-.347.236-.776.339v.086q.467.026.896.287.432.257.707.729.274.471.274 1.14 0 .681-.33 1.226-.33.54-.994.853t-1.672.313zm1.591-1.329h1.71q.866 0 1.247-.33a1.08 1.08 0 0 0 .386-.857 1.31 1.31 0 0 0-.741-1.2 1.8 1.8 0 0 0-.849-.185h-1.753zm0-3.716h1.573q.411 0 .741-.15.33-.155.519-.434.193-.282.193-.668 0-.51-.36-.84-.355-.33-1.059-.33h-1.607zm7.23 3.99a.92.92 0 0 1-.668-.274.9.9 0 0 1-.275-.669.88.88 0 0 1 .275-.66.92.92 0 0 1 .668-.274q.378 0 .656.274a.9.9 0 0 1 .15 1.136 1 1 0 0 1-.343.343.9.9 0 0 1-.463.125m0-4.35a.92.92 0 0 1-.668-.275.9.9 0 0 1-.275-.669.88.88 0 0 1 .275-.66.9.9 0 0 1 .668-.278q.378 0 .656.278a.9.9 0 0 1 .15 1.132 1 1 0 0 1-.343.343.87.87 0 0 1-.463.128M434.636 74h-1.698l3.091-8.78h1.963l3.095 8.78h-1.697l-2.345-6.979h-.069zm.056-3.442h4.629v1.277h-4.629zm10.146 6.048q-.836 0-1.436-.227-.6-.223-.964-.6a2.1 2.1 0 0 1-.506-.836l1.397-.339q.095.193.275.382.18.193.484.317.31.129.776.129.66 0 1.093-.322.433-.317.433-1.046v-1.247h-.077q-.12.24-.352.493-.226.252-.604.424-.373.172-.939.172-.758 0-1.376-.356-.612-.36-.977-1.072-.36-.715-.36-1.792 0-1.085.36-1.83.364-.75.981-1.136.618-.39 1.377-.39.578 0 .951.197.378.193.6.467.224.27.339.51h.086v-1.088h1.53v6.691q0 .844-.403 1.398a2.4 2.4 0 0 1-1.102.827q-.698.274-1.586.274m.013-3.918q.493 0 .84-.24.348-.24.528-.69t.18-1.08q0-.623-.18-1.089a1.56 1.56 0 0 0-.523-.724q-.343-.262-.845-.262-.519 0-.866.27t-.523.742a3 3 0 0 0-.175 1.063q0 .605.175 1.059.18.45.528.703.351.248.861.248m7.532 3.918q-.836 0-1.436-.227-.6-.223-.965-.6a2.1 2.1 0 0 1-.505-.836l1.397-.339q.094.193.274.382.18.193.485.317.309.129.776.129.66 0 1.093-.322.433-.317.433-1.046v-1.247h-.077q-.12.24-.352.493-.227.252-.604.424-.374.172-.939.172-.76 0-1.376-.356-.613-.36-.978-1.072-.36-.715-.36-1.792 0-1.085.36-1.83.365-.75.982-1.136.618-.39 1.376-.39.579 0 .952.197.376.193.6.467.223.27.339.51h.085v-1.088h1.531v6.691q0 .844-.403 1.398a2.4 2.4 0 0 1-1.102.827q-.699.274-1.586.274m.013-3.918q.493 0 .84-.24t.527-.69.18-1.08q0-.623-.18-1.089a1.55 1.55 0 0 0-.523-.724q-.342-.262-.844-.262-.52 0-.866.27-.348.27-.523.742a3 3 0 0 0-.176 1.063q0 .605.176 1.059.18.45.527.703.352.248.862.248M457.064 74v-6.584h1.505v1.097h.068q.18-.57.618-.879.441-.312 1.007-.313.129 0 .287.013.163.009.27.03v1.428a1.6 1.6 0 0 0-.313-.06 3 3 0 0 0-.407-.03 1.6 1.6 0 0 0-.763.184q-.335.18-.527.502a1.4 1.4 0 0 0-.193.741V74zm7.43.129q-.99 0-1.71-.412a2.8 2.8 0 0 1-1.102-1.174q-.386-.764-.386-1.797 0-1.015.386-1.783.39-.771 1.089-1.2.699-.433 1.642-.433.608 0 1.148.197.544.194.961.6.42.408.66 1.038.24.626.24 1.491v.476h-5.397v-1.046h3.909a1.66 1.66 0 0 0-.193-.793 1.4 1.4 0 0 0-.527-.553 1.5 1.5 0 0 0-.78-.201q-.476 0-.836.231-.36.228-.561.6a1.7 1.7 0 0 0-.202.81v.914q0 .574.21.986.21.407.587.625.378.215.883.215.34 0 .613-.095.275-.098.476-.287.202-.189.305-.467l1.449.163a2.27 2.27 0 0 1-.523 1.003 2.56 2.56 0 0 1-.978.66 3.7 3.7 0 0 1-1.363.232m7.104 2.477q-.836 0-1.436-.227-.6-.223-.964-.6a2.1 2.1 0 0 1-.506-.836l1.397-.339q.095.193.275.382.18.193.484.317.309.129.776.129.66 0 1.093-.322.433-.317.433-1.046v-1.247h-.077q-.12.24-.352.493-.227.252-.604.424-.373.172-.939.172-.758 0-1.376-.356-.613-.36-.977-1.072-.36-.715-.36-1.792 0-1.085.36-1.83.364-.75.981-1.136.618-.39 1.376-.39.579 0 .952.197.378.193.6.467.224.27.339.51h.086v-1.088h1.53v6.691q0 .844-.403 1.398a2.4 2.4 0 0 1-1.102.827q-.699.274-1.586.274m.013-3.918q.493 0 .84-.24.348-.24.528-.69t.18-1.08q0-.623-.18-1.089a1.56 1.56 0 0 0-.523-.724q-.344-.262-.845-.262-.518 0-.866.27-.347.27-.523.742a3 3 0 0 0-.176 1.063q0 .605.176 1.059.18.45.527.703.352.248.862.248m6.563 1.445q-.626 0-1.127-.223a1.84 1.84 0 0 1-.789-.669q-.288-.441-.287-1.089 0-.556.205-.921.207-.364.562-.583t.802-.33q.45-.116.93-.168.579-.06.939-.107.36-.05.523-.154.167-.106.167-.33v-.026q0-.484-.287-.75-.288-.266-.828-.266-.57 0-.904.249-.33.249-.446.587l-1.449-.206q.171-.6.566-1.003a2.46 2.46 0 0 1 .964-.608q.57-.207 1.261-.206.476 0 .947.111.471.112.862.369.39.254.626.69.24.438.24 1.093V74h-1.492v-.904h-.052a1.9 1.9 0 0 1-.398.514 1.9 1.9 0 0 1-.639.381 2.6 2.6 0 0 1-.896.142m.403-1.14q.468 0 .81-.185.344-.189.527-.497.189-.309.189-.673v-.776a.7.7 0 0 1-.249.112 4 4 0 0 1-.385.09q-.215.038-.425.068l-.364.052a2.7 2.7 0 0 0-.622.154 1.03 1.03 0 0 0-.433.3.74.74 0 0 0-.158.489q0 .428.313.647.312.219.797.219m7.922-5.577v1.2h-3.785v-1.2zm-2.851-1.578h1.552v6.182q0 .312.094.48a.5.5 0 0 0 .258.223 1 1 0 0 0 .351.06q.146 0 .266-.022.125-.021.188-.038l.262 1.213q-.125.043-.356.094a3 3 0 0 1-.557.06 2.5 2.5 0 0 1-1.05-.176 1.63 1.63 0 0 1-.742-.609q-.27-.411-.266-1.028zM487.797 74v-6.584h1.551V74zm.78-7.519a.9.9 0 0 1-.635-.244.79.79 0 0 1-.265-.596q0-.352.265-.596a.9.9 0 0 1 .635-.249q.373 0 .634.249a.78.78 0 0 1 .266.596q0 .347-.266.596a.9.9 0 0 1-.634.244m5.239 7.648q-.964 0-1.671-.425a2.9 2.9 0 0 1-1.098-1.187q-.386-.763-.386-1.783t.386-1.788q.39-.768 1.098-1.192.707-.424 1.671-.424t1.672.424 1.093 1.192q.39.767.39 1.788t-.39 1.783a2.85 2.85 0 0 1-1.093 1.187q-.707.425-1.672.425m.009-1.244q.523 0 .874-.287.352-.291.523-.78a3.2 3.2 0 0 0 .176-1.089q0-.604-.176-1.093a1.7 1.7 0 0 0-.523-.784q-.35-.292-.874-.292-.536 0-.892.292-.351.291-.527.784-.171.489-.171 1.093 0 .6.171 1.09.176.487.527.78.356.285.892.286m6.015-2.743V74h-1.552v-6.584h1.484v1.118h.077q.227-.552.724-.878.503-.327 1.239-.326.682 0 1.188.291.51.292.788.845.284.553.279 1.342V74h-1.552v-3.952q0-.66-.343-1.034-.338-.372-.939-.372-.407 0-.724.18a1.25 1.25 0 0 0-.493.51 1.7 1.7 0 0 0-.176.81"/><path fill="#3369ff" d="M304.393 61.25a.75.75 0 1 0 0 1.5v-1.5m81.887 1.28a.75.75 0 0 0 0-1.06l-4.773-4.773a.75.75 0 0 0-1.061 1.06L384.689 62l-4.243 4.243a.75.75 0 0 0 1.061 1.06zM304.393 62v.75h81.357v-1.5h-81.357z"/><rect width="61" height="23" x="313.5" y="50.5" fill="#23262f" rx="5.5"/><rect width="61" height="23" x="313.5" y="50.5" stroke="#3369ff" rx="5.5"/><path fill="#fff" d="M323.685 66.096q-.643 0-1.151-.33-.507-.33-.802-.96-.295-.627-.295-1.526 0-.91.298-1.534.302-.63.813-.948a2.1 2.1 0 0 1 1.14-.324q.48 0 .789.164.309.159.49.387.18.224.28.422h.053v-2.72h1.289V66h-1.264v-.86h-.078a2.2 2.2 0 0 1-.287.423 1.6 1.6 0 0 1-.498.377q-.309.156-.777.156m.358-1.055q.41 0 .696-.22.288-.224.437-.621.15-.399.149-.927 0-.53-.149-.92a1.3 1.3 0 0 0-.433-.607 1.12 1.12 0 0 0-.7-.217q-.429 0-.717.224-.288.223-.433.618a2.6 2.6 0 0 0-.146.902q0 .51.146.912.149.398.437.629.291.227.713.227m6.331 1.066q-.82 0-1.417-.341a2.3 2.3 0 0 1-.912-.973q-.32-.633-.32-1.488 0-.842.32-1.478.323-.639.902-.994.578-.359 1.36-.359.504 0 .951.164.451.16.796.497.348.337.547.86.199.518.199 1.235v.394h-4.471v-.866h3.238a1.4 1.4 0 0 0-.16-.657 1.16 1.16 0 0 0-.436-.458 1.23 1.23 0 0 0-.647-.167q-.393 0-.692.192a1.3 1.3 0 0 0-.465.497 1.4 1.4 0 0 0-.167.67v.757q0 .477.174.817.174.337.486.519.313.177.732.177.28 0 .508-.078a1.1 1.1 0 0 0 .394-.238 1 1 0 0 0 .252-.387l1.2.135q-.113.476-.433.83a2.1 2.1 0 0 1-.81.548 3.1 3.1 0 0 1-1.129.191m4.609-.107-1.541-5.455h1.311l.958 3.836h.05l.98-3.836h1.296l.981 3.814h.053l.944-3.813h1.314L339.785 66h-1.339l-1.023-3.686h-.074L336.326 66zm7.301 0v-7.273h2.727q.838 0 1.406.313.572.312.863.86.295.542.295 1.235 0 .699-.295 1.243a2.1 2.1 0 0 1-.87.856q-.575.309-1.417.309h-1.807v-1.084h1.63q.49 0 .802-.17t.462-.469q.153-.298.153-.685a1.46 1.46 0 0 0-.153-.682q-.15-.295-.465-.458-.313-.167-.806-.167h-1.208V66zm8.68.106q-.8 0-1.385-.351a2.4 2.4 0 0 1-.909-.984q-.32-.631-.32-1.477 0-.845.32-1.48.322-.637.909-.988.585-.351 1.385-.352.798 0 1.385.352.585.351.905.987.323.636.323 1.481t-.323 1.477q-.32.633-.905.984-.587.352-1.385.352m.007-1.03q.433 0 .724-.237a1.43 1.43 0 0 0 .433-.647q.146-.405.146-.901 0-.501-.146-.906a1.43 1.43 0 0 0-.433-.65 1.1 1.1 0 0 0-.724-.241q-.444 0-.739.241-.291.242-.437.65a2.7 2.7 0 0 0-.142.906q0 .496.142.901.146.405.437.647.295.238.739.238m3.697.924v-5.455h1.286V66zm.647-6.229a.75.75 0 0 1-.526-.202.65.65 0 0 1-.22-.494q0-.29.22-.493a.74.74 0 0 1 .526-.206q.309 0 .525.206.22.203.22.493a.65.65 0 0 1-.22.494.74.74 0 0 1-.525.202m3.246 3.033V66h-1.285v-5.455h1.228v.927h.064q.189-.458.601-.728.415-.27 1.026-.27.564 0 .983.242.423.24.654.7.234.457.231 1.111V66h-1.286v-3.274q0-.547-.284-.856-.28-.309-.778-.309-.338 0-.6.15a1.03 1.03 0 0 0-.408.422 1.4 1.4 0 0 0-.146.671m7.532-2.259v.995h-3.135v-.995zm-2.361-1.306h1.285v5.12q0 .26.078.398.082.135.213.185.132.05.292.05.12 0 .22-.018.103-.018.156-.032l.217 1.005q-.103.035-.295.078a2.4 2.4 0 0 1-.462.05q-.483.013-.87-.146a1.35 1.35 0 0 1-.614-.504q-.224-.342-.22-.853z"/><rect width="126.5" height="79.5" x="579.25" y="22.25" fill="#00695c" fill-opacity=".04" rx="3.75"/><rect width="126.5" height="79.5" x="579.25" y="22.25" stroke="#3fd9d1" stroke-dasharray="6 6" stroke-width=".5" rx="3.75"/><rect width="104.041" height="23.041" x="589.48" y="36.48" fill="#23262f" rx="5.52"/><rect width="104.041" height="23.041" x="589.48" y="36.48" stroke="#3fd9d1" stroke-width=".959" rx="5.52"/><path fill="#fff" d="M597.661 52v-5.455h1.228v.927h.064q.17-.468.565-.731a1.64 1.64 0 0 1 .941-.267q.553 0 .934.27.382.267.54.728h.056q.182-.454.611-.724.433-.274 1.026-.274.753 0 1.229.476.476.475.476 1.389V52h-1.289v-3.462q0-.508-.27-.742a.96.96 0 0 0-.66-.239q-.466 0-.728.292-.26.287-.26.749V52h-1.26v-3.516q0-.422-.256-.674-.252-.253-.661-.253a.93.93 0 0 0-.504.143 1 1 0 0 0-.362.394 1.2 1.2 0 0 0-.135.59V52zm8.974 0v-5.455h1.286V52zm.646-6.229a.75.75 0 0 1-.525-.202.65.65 0 0 1-.22-.494q0-.29.22-.493a.74.74 0 0 1 .525-.206q.31 0 .526.206.22.203.22.493a.65.65 0 0 1-.22.494.74.74 0 0 1-.526.202m3.247 3.033V52h-1.285v-5.455h1.228v.927h.064q.189-.458.6-.728.415-.27 1.027-.27.564 0 .983.242.423.24.654.7.234.457.23 1.111V52h-1.285v-3.274q0-.547-.284-.856-.28-.309-.778-.309-.337 0-.6.15a1.03 1.03 0 0 0-.408.422 1.4 1.4 0 0 0-.146.671m7.33 3.196h-2.465v-7.273h2.514q1.083 0 1.861.437.782.433 1.2 1.246.42.814.419 1.947 0 1.136-.422 1.953-.42.816-1.211 1.253-.789.437-1.896.437m-1.147-1.14h1.083q.76 0 1.267-.277.508-.28.764-.834.255-.558.256-1.393 0-.834-.256-1.384a1.75 1.75 0 0 0-.756-.828q-.498-.276-1.236-.277h-1.122zm7.441 1.25q-.519 0-.934-.185a1.5 1.5 0 0 1-.653-.554q-.238-.365-.238-.902 0-.461.17-.763.171-.302.465-.483.295-.18.664-.273.373-.096.771-.139.48-.05.778-.089.298-.041.433-.128.138-.088.138-.273V48.3q0-.402-.237-.622-.239-.22-.686-.22-.472 0-.749.206-.274.206-.369.487l-1.201-.17q.142-.498.469-.832a2.04 2.04 0 0 1 .799-.504q.473-.17 1.044-.17.394 0 .785.092.39.092.714.305.323.21.518.572.2.362.199.905V52h-1.236v-.75h-.042a1.58 1.58 0 0 1-.86.742 2.1 2.1 0 0 1-.742.118m.334-.944q.387 0 .671-.153.284-.156.437-.412a1.05 1.05 0 0 0 .156-.558v-.642a.6.6 0 0 1-.206.092 3 3 0 0 1-.32.075q-.177.031-.351.056l-.302.043a2.3 2.3 0 0 0-.515.128.86.86 0 0 0-.359.248.6.6 0 0 0-.131.405q0 .356.259.536.26.181.661.181m3.839.834v-5.455h1.285V52zm.646-6.229a.75.75 0 0 1-.526-.202.66.66 0 0 1-.22-.494q0-.29.22-.493a.74.74 0 0 1 .526-.206q.309 0 .525.206.22.203.221.493a.65.65 0 0 1-.221.494.74.74 0 0 1-.525.202m3.247-1.044V52h-1.286v-7.273zm2.12 9.319a2.6 2.6 0 0 1-.838-.136l.299-1q.28.081.5.077a.6.6 0 0 0 .387-.138q.171-.132.288-.44l.11-.295-1.978-5.568h1.364l1.257 4.119h.057l1.26-4.12h1.368l-2.184 6.115a2.5 2.5 0 0 1-.405.743 1.65 1.65 0 0 1-.618.476 2.1 2.1 0 0 1-.867.166M641.822 52h-2.464v-7.273h2.514q1.083 0 1.861.437.782.433 1.2 1.246.42.814.419 1.947 0 1.136-.422 1.953-.42.816-1.211 1.253-.789.437-1.897.437m-1.147-1.14h1.084q.76 0 1.267-.277.508-.28.764-.834.255-.558.255-1.393 0-.834-.255-1.384a1.75 1.75 0 0 0-.757-.828q-.497-.276-1.235-.277h-1.123zm8.287 1.246q-.82 0-1.417-.34a2.3 2.3 0 0 1-.913-.973q-.32-.633-.319-1.488 0-.842.319-1.478.324-.639.902-.994.58-.359 1.361-.359.504 0 .951.164.451.16.796.497.348.337.547.86.198.518.198 1.235v.394h-4.47v-.866h3.238a1.4 1.4 0 0 0-.16-.657 1.16 1.16 0 0 0-.436-.458 1.23 1.23 0 0 0-.647-.167q-.393 0-.692.192a1.3 1.3 0 0 0-.465.497 1.4 1.4 0 0 0-.167.67v.757q0 .477.174.817.174.338.486.519.313.177.732.177.28 0 .508-.078a1.1 1.1 0 0 0 .394-.238 1 1 0 0 0 .252-.387l1.2.135q-.114.476-.433.83a2.1 2.1 0 0 1-.81.548 3.1 3.1 0 0 1-1.129.191m4.609-.106-1.541-5.455h1.311l.958 3.836h.05l.98-3.836h1.296l.98 3.814h.054l.944-3.814h1.314L658.373 52h-1.339l-1.023-3.686h-.075L654.914 52zm7.301 0v-7.273h2.727q.838 0 1.406.313.572.312.863.86.295.542.295 1.235 0 .699-.295 1.243a2.1 2.1 0 0 1-.87.856q-.575.309-1.417.309h-1.807v-1.084h1.63q.49 0 .802-.17t.462-.469a1.5 1.5 0 0 0 .152-.685q0-.387-.152-.682-.15-.295-.465-.458-.313-.167-.807-.167h-1.207V52zm8.679.106q-.799 0-1.384-.351a2.4 2.4 0 0 1-.91-.984q-.32-.631-.319-1.477 0-.845.319-1.48.324-.637.91-.988.585-.351 1.384-.352.8 0 1.385.352.587.351.906.987.323.636.323 1.481t-.323 1.477q-.32.633-.906.984-.585.351-1.385.351m.008-1.03q.433 0 .724-.237a1.43 1.43 0 0 0 .433-.646q.146-.405.146-.902 0-.501-.146-.906a1.43 1.43 0 0 0-.433-.65 1.1 1.1 0 0 0-.724-.241q-.445 0-.739.241-.291.242-.437.65-.142.405-.142.906 0 .496.142.902.146.405.437.646.294.238.739.238m3.697.924v-5.455h1.286V52zm.647-6.229a.75.75 0 0 1-.526-.202.65.65 0 0 1-.22-.494q0-.29.22-.493a.74.74 0 0 1 .526-.206q.308 0 .525.206.22.203.22.493a.65.65 0 0 1-.22.494.74.74 0 0 1-.525.202m3.246 3.033V52h-1.285v-5.455h1.228v.927h.064q.189-.458.6-.728.415-.27 1.027-.27.564 0 .983.242.423.24.654.7.234.457.231 1.111V52h-1.286v-3.274q0-.547-.284-.856-.28-.309-.778-.309-.337 0-.6.15a1.03 1.03 0 0 0-.408.422 1.4 1.4 0 0 0-.146.671m7.532-2.259v.995h-3.136v-.995zm-2.361-1.306h1.285v5.12q0 .26.078.398.082.135.213.185.132.05.292.05.12 0 .22-.018.102-.018.156-.032l.217 1.005q-.103.035-.295.078-.189.042-.462.05-.483.013-.87-.146a1.35 1.35 0 0 1-.614-.504q-.224-.342-.22-.853z"/><rect width="106.041" height="23.041" x="589.48" y="68.48" fill="#23262f" rx="5.52"/><rect width="106.041" height="23.041" x="589.48" y="68.48" stroke="#3fd9d1" stroke-width=".959" rx="5.52"/><path fill="#fff" d="M597.661 84v-5.454h1.228v.926h.064q.17-.468.565-.731a1.64 1.64 0 0 1 .941-.267q.553 0 .934.27.382.266.54.728h.056q.182-.454.611-.724.433-.274 1.026-.274.753 0 1.229.476t.476 1.389V84h-1.289v-3.462q0-.508-.27-.742a.96.96 0 0 0-.66-.239q-.466 0-.728.292-.26.287-.26.749V84h-1.26v-3.516q0-.422-.256-.674-.252-.252-.661-.252a.93.93 0 0 0-.504.142 1 1 0 0 0-.362.394 1.2 1.2 0 0 0-.135.59V84zm10.544.11q-.519 0-.934-.185a1.5 1.5 0 0 1-.654-.554q-.237-.365-.238-.901 0-.462.171-.764.171-.301.465-.483.295-.18.664-.273.374-.096.771-.139.48-.05.777-.089.299-.042.434-.127.138-.089.138-.274V80.3q0-.402-.238-.622-.237-.22-.685-.22-.473 0-.749.206a1 1 0 0 0-.37.487l-1.2-.17q.142-.498.469-.832a2.04 2.04 0 0 1 .799-.504q.473-.17 1.044-.17.394 0 .785.092.39.092.713.305.324.21.519.572.198.362.199.905V84h-1.236v-.75h-.043a1.57 1.57 0 0 1-.859.743 2.1 2.1 0 0 1-.742.117m.334-.945q.387 0 .671-.152.284-.156.436-.412.157-.255.157-.558v-.642a.6.6 0 0 1-.206.092 3 3 0 0 1-.32.075q-.177.031-.351.056l-.302.043a2.2 2.2 0 0 0-.515.128.86.86 0 0 0-.359.248.6.6 0 0 0-.131.405q0 .356.259.536.26.181.661.181m4.889-4.62 1.101 2.014 1.119-2.013h1.36l-1.644 2.727L617.036 84h-1.353l-1.154-1.964L613.386 84h-1.364l1.662-2.727-1.619-2.727zM620.524 84h-2.465v-7.273h2.514q1.083 0 1.861.437.782.433 1.2 1.246.42.814.419 1.947 0 1.136-.422 1.953a2.9 2.9 0 0 1-1.211 1.253q-.789.437-1.896.437m-1.147-1.14h1.083q.76 0 1.267-.277.508-.28.764-.834.255-.558.256-1.392 0-.836-.256-1.385a1.75 1.75 0 0 0-.756-.828q-.498-.276-1.236-.277h-1.122zm7.441 1.25q-.519 0-.934-.185a1.5 1.5 0 0 1-.653-.554q-.238-.365-.238-.901 0-.462.17-.764.171-.301.465-.483.295-.18.664-.273.374-.096.771-.139.48-.05.778-.089.298-.042.433-.127.138-.089.138-.274V80.3q0-.402-.237-.622-.239-.22-.686-.22-.472 0-.749.206-.274.206-.369.487l-1.201-.17q.142-.498.469-.832a2.04 2.04 0 0 1 .799-.504q.472-.17 1.044-.17.394 0 .785.092.39.092.714.305.323.21.518.572.2.362.199.905V84h-1.236v-.75h-.042a1.58 1.58 0 0 1-.86.742 2.1 2.1 0 0 1-.742.118m.334-.945q.387 0 .671-.152.284-.156.437-.412a1.05 1.05 0 0 0 .156-.558v-.642a.6.6 0 0 1-.206.092 3 3 0 0 1-.32.075q-.177.031-.351.056l-.302.043a2.3 2.3 0 0 0-.515.128.86.86 0 0 0-.359.248.6.6 0 0 0-.131.405q0 .356.259.536.26.181.661.181m3.839.835v-5.454h1.285V84zm.646-6.229a.75.75 0 0 1-.526-.202.66.66 0 0 1-.22-.494q0-.29.22-.493a.74.74 0 0 1 .526-.206q.309 0 .525.206.22.203.221.493a.65.65 0 0 1-.221.494.74.74 0 0 1-.525.202m3.247-1.044V84h-1.286v-7.273zm2.12 9.319a2.6 2.6 0 0 1-.838-.136l.299-1q.28.08.5.077a.6.6 0 0 0 .387-.138q.171-.132.288-.44l.11-.295-1.978-5.568h1.364l1.257 4.119h.057l1.26-4.12h1.368l-2.184 6.115a2.5 2.5 0 0 1-.405.743 1.65 1.65 0 0 1-.618.476 2.1 2.1 0 0 1-.867.166M644.488 84h-2.464v-7.273h2.514q1.083 0 1.861.437.781.433 1.2 1.246.42.814.419 1.947 0 1.136-.422 1.953-.42.816-1.211 1.253-.789.437-1.897.437m-1.147-1.14h1.084q.76 0 1.267-.277.508-.28.764-.834.255-.558.255-1.392 0-.836-.255-1.385a1.75 1.75 0 0 0-.757-.828q-.497-.276-1.235-.277h-1.123zm8.287 1.246q-.82 0-1.417-.34a2.3 2.3 0 0 1-.913-.973q-.32-.633-.319-1.488 0-.842.319-1.478.324-.639.902-.994.58-.359 1.361-.359.504 0 .951.164.451.16.796.497.348.337.547.86.198.518.198 1.235v.394h-4.47v-.866h3.238a1.4 1.4 0 0 0-.16-.657 1.16 1.16 0 0 0-.436-.458 1.23 1.23 0 0 0-.647-.167q-.393 0-.692.192a1.3 1.3 0 0 0-.465.497 1.4 1.4 0 0 0-.167.67v.757q0 .477.174.817.174.337.486.519.313.177.732.177.28 0 .508-.078a1.1 1.1 0 0 0 .394-.238 1 1 0 0 0 .252-.387l1.2.135q-.114.476-.433.83a2.1 2.1 0 0 1-.81.548 3.1 3.1 0 0 1-1.129.191m4.609-.106-1.541-5.454h1.311l.958 3.835h.05l.98-3.835h1.296l.98 3.813h.054l.944-3.813h1.314L661.039 84H659.7l-1.023-3.686h-.075L657.58 84zm7.301 0v-7.273h2.727q.838 0 1.406.313.572.312.863.86.295.542.295 1.235 0 .699-.295 1.243a2.1 2.1 0 0 1-.87.856q-.575.309-1.417.309h-1.807v-1.084h1.63q.49 0 .802-.17t.462-.469q.153-.298.153-.685a1.46 1.46 0 0 0-.153-.682q-.15-.295-.465-.458-.313-.167-.807-.167h-1.207V84zm8.68.106q-.8 0-1.385-.351a2.4 2.4 0 0 1-.91-.984q-.32-.631-.319-1.477 0-.845.319-1.48.324-.637.91-.988.585-.351 1.385-.352.799 0 1.384.352.587.351.906.987.323.636.323 1.481t-.323 1.477q-.32.633-.906.984-.585.352-1.384.352m.007-1.03q.433 0 .724-.237a1.43 1.43 0 0 0 .433-.647q.146-.405.146-.901 0-.501-.146-.906a1.43 1.43 0 0 0-.433-.65 1.1 1.1 0 0 0-.724-.241q-.445 0-.739.241-.291.242-.437.65-.142.405-.142.905 0 .498.142.902.146.405.437.647.294.238.739.238m3.697.924v-5.454h1.286V84zm.647-6.229a.75.75 0 0 1-.526-.202.65.65 0 0 1-.22-.494q0-.29.22-.493a.74.74 0 0 1 .526-.206q.309 0 .525.206.22.203.22.493a.65.65 0 0 1-.22.494.74.74 0 0 1-.525.202m3.246 3.033V84h-1.285v-5.454h1.228v.926h.064q.189-.458.6-.728.415-.27 1.027-.27.564 0 .983.242.423.24.654.7.234.457.231 1.111V84h-1.286v-3.274q0-.547-.284-.856-.28-.309-.778-.309-.337 0-.6.15a1.03 1.03 0 0 0-.408.422 1.4 1.4 0 0 0-.146.671m7.532-2.258v.994h-3.136v-.995zm-2.361-1.307h1.285v5.12q0 .26.078.398.082.135.213.185.132.05.292.05.12 0 .22-.018.102-.018.156-.032l.217 1.005q-.103.035-.295.078-.189.042-.462.05-.483.013-.87-.146a1.35 1.35 0 0 1-.614-.504q-.224-.342-.22-.853z"/><rect width="56.5" height="15.5" x="589.25" y="14.25" fill="#1d3739" rx="1.75"/><rect width="56.5" height="15.5" x="589.25" y="14.25" stroke="#3fd9d1" stroke-width=".5" rx="1.75"/><path fill="#fff" d="M593.398 19.832v-1.105h5.802v1.105h-2.248V26h-1.306v-6.168zm8.488 6.275q-.82 0-1.417-.341-.593-.345-.913-.973-.32-.633-.319-1.488 0-.842.319-1.478a2.4 2.4 0 0 1 .902-.994q.58-.359 1.36-.359.505 0 .952.164.451.16.796.497.348.337.546.86.2.518.199 1.235v.394h-4.471v-.866h3.239a1.4 1.4 0 0 0-.16-.657 1.16 1.16 0 0 0-.437-.458 1.23 1.23 0 0 0-.646-.167 1.25 1.25 0 0 0-.692.192 1.3 1.3 0 0 0-.466.497 1.44 1.44 0 0 0-.166.67v.757q0 .477.174.817.174.338.486.519.312.177.732.177.28 0 .507-.078.227-.082.395-.238a1 1 0 0 0 .252-.387l1.2.135q-.114.476-.433.83a2.1 2.1 0 0 1-.81.548 3.1 3.1 0 0 1-1.129.192m4.798-7.38V26h-1.285v-7.273zm3.737 7.38q-.82 0-1.417-.341a2.3 2.3 0 0 1-.913-.973q-.32-.633-.319-1.488 0-.842.319-1.478.324-.639.902-.994.58-.359 1.361-.359.504 0 .951.164.451.16.796.497.348.337.547.86.198.518.198 1.235v.394h-4.47v-.866h3.238a1.4 1.4 0 0 0-.16-.657 1.16 1.16 0 0 0-.436-.458 1.23 1.23 0 0 0-.647-.167 1.25 1.25 0 0 0-.692.192 1.3 1.3 0 0 0-.465.497 1.4 1.4 0 0 0-.167.67v.757q0 .477.174.817.174.338.486.519.313.177.732.177.28 0 .508-.078a1.1 1.1 0 0 0 .394-.238 1 1 0 0 0 .252-.387l1.2.135q-.114.476-.433.83a2.1 2.1 0 0 1-.81.548 3.1 3.1 0 0 1-1.129.192m3.513-.107v-5.454h1.229v.926h.064q.17-.468.564-.731.395-.267.941-.267.555 0 .934.27.384.267.54.728h.057a1.5 1.5 0 0 1 .611-.724q.432-.273 1.026-.274.752 0 1.229.476.475.476.475 1.389V26h-1.289v-3.462q0-.508-.27-.742a.96.96 0 0 0-.66-.238q-.465 0-.728.29-.26.289-.259.75V26h-1.261v-3.516q0-.422-.256-.674-.252-.252-.66-.252a.93.93 0 0 0-.504.142 1 1 0 0 0-.363.394 1.2 1.2 0 0 0-.135.59V26zm11.389.107q-.82 0-1.417-.341a2.3 2.3 0 0 1-.912-.973q-.32-.633-.32-1.488 0-.842.32-1.478.323-.639.902-.994.579-.359 1.36-.359.504 0 .952.164.45.16.795.497.348.337.547.86.198.518.199 1.235v.394h-4.471v-.866h3.239a1.4 1.4 0 0 0-.16-.657 1.16 1.16 0 0 0-.437-.458 1.23 1.23 0 0 0-.646-.167q-.394 0-.693.192a1.3 1.3 0 0 0-.465.497 1.4 1.4 0 0 0-.167.67v.757q0 .477.174.817.174.338.487.519.312.177.731.177.28 0 .508-.078a1.1 1.1 0 0 0 .394-.238 1 1 0 0 0 .252-.387l1.2.135q-.113.476-.433.83-.315.353-.809.548a3.1 3.1 0 0 1-1.13.192m6.237-5.561v.994h-3.136v-.994zm-2.361-1.307h1.285v5.12q0 .26.078.398.082.135.213.185a.8.8 0 0 0 .291.05q.121 0 .221-.018.102-.018.156-.032l.216 1.005q-.102.035-.294.078-.189.042-.462.05-.483.013-.87-.146a1.35 1.35 0 0 1-.614-.504q-.224-.342-.22-.853zM632.635 26v-5.454h1.247v.909h.056q.15-.473.512-.728.366-.26.834-.26.107 0 .238.011.135.007.224.025v1.182a1.4 1.4 0 0 0-.259-.05 2.4 2.4 0 0 0-.338-.024q-.351 0-.632.152-.276.15-.437.416a1.2 1.2 0 0 0-.159.614V26zm4.93 2.046a2.6 2.6 0 0 1-.838-.136l.298-1q.28.08.501.077a.6.6 0 0 0 .387-.138q.171-.132.288-.44l.11-.295-1.978-5.568h1.363l1.257 4.119h.057l1.261-4.12h1.367l-2.184 6.115a2.5 2.5 0 0 1-.405.743 1.65 1.65 0 0 1-.618.476q-.362.166-.866.166"/><path fill="#3fd9d1" d="M559.393 61.25a.75.75 0 1 0 0 1.5v-1.5m16.887 1.28a.75.75 0 0 0 0-1.06l-4.773-4.773a.75.75 0 0 0-1.061 1.06L574.689 62l-4.243 4.243a.75.75 0 0 0 1.061 1.06zM559.393 62v.75h16.357v-1.5h-16.357z"/></g><defs><clipPath id="a"><path fill="#fff" d="M0 0h720v117H0z"/></clipPath><clipPath id="b"><path fill="#fff" d="M0 0h720v314H0z"/></clipPath></defs></svg>